/* XPM */
static char *_564268514460[] = {
/* columns rows colors chars-per-pixel */
"64 64 82 1 ",
"  c #4E4E4E",
". c gray32",
"X c #535353",
"o c gray33",
"O c #555555",
"+ c #565656",
"@ c gray34",
"# c #585858",
"$ c gray35",
"% c #5A5A5A",
"& c #5B5B5B",
"* c gray36",
"= c #5D5D5D",
"- c gray37",
"; c #5F5F5F",
": c #606060",
"> c gray38",
", c #626262",
"< c gray39",
"1 c #646464",
"2 c #656565",
"3 c gray40",
"4 c #676767",
"5 c #686868",
"6 c DimGray",
"7 c #6A6A6A",
"8 c gray42",
"9 c #6C6C6C",
"0 c #6D6D6D",
"q c gray43",
"w c #6F6F6F",
"e c gray44",
"r c #717171",
"t c #727272",
"y c gray45",
"u c #747474",
"i c gray46",
"p c #767676",
"a c #777777",
"s c gray47",
"d c #797979",
"f c gray48",
"g c #7B7B7B",
"h c #7C7C7C",
"j c gray49",
"k c #7E7E7E",
"l c gray50",
"z c #808080",
"x c #818181",
"c c gray51",
"v c #838383",
"b c #848484",
"n c gray52",
"m c #868686",
"M c gray53",
"N c #888888",
"B c #898989",
"V c gray54",
"C c #8B8B8B",
"Z c gray55",
"A c #8D8D8D",
"S c #8E8E8E",
"D c gray56",
"F c #909090",
"G c gray57",
"H c #929292",
"J c #939393",
"K c gray58",
"L c #959595",
"P c gray59",
"I c #979797",
"U c #989898",
"Y c gray60",
"T c #9A9A9A",
"R c #9B9B9B",
"E c gray61",
"W c #9D9D9D",
"Q c gray62",
"! c #9F9F9F",
"~ c #A0A0A0",
"^ c gray63",
"/ c #A2A2A2",
/* pixels */
"UYYIERRERRRTTTTYGGJDRIYUuuiy8677HFFJGKKHHGFJIYYINMMNVCCVKLJL@%@$",
"UUIUWWEWRRRRTTTTHFGDYIUPiupu9687GFGJHJLKGDDHPUUINNMMNBNMJLJJ+@o@",
"UUIUYRTTRRRTTTTYFSDFYYRUuyut7576HGJHHGHHJHHKITTYNNBBVCZZJPKK%%#&",
"PUYWYQ!^RRRTTTTTKHKKLPUPuyiy0898FFGDPLPLHGGJLIIPmMNNNNBVLPHD&#oO",
"~^QTvzhjNNNNMMMMiuiy53432<21;-:;2123ssfdddsdfggfbnnckhhhpddl=,,2",
"Q^~!vcxbNNNNMMMMdsda2<1<2132>><,1,<<hhjhdssssssavbbxhddfddaf->-;",
"Q^!!zzlxNNNMMMMMapsd11321,11::,:212,hdgfffffffddvnmvkghkdfsf,1,<",
"Q!Q~zcxcNNNNMMMMsips<23<2<11>>,:<13,jdghdddddddsvnnchddgsfsd:>;,",
"DFDFeterggfheterq0w9<:,,ADSZGDSFvzzv<4412112hjjhdagg**:-&*=**&*=",
"GJGGrretghfhetrr8808<><<DFSSGGDFzzzv13432<<3hlljhfah-<:-=&&&***%",
"AFDAtewtghfhrtrrw0w91>,>ZZCSDGFFxccc21223<<4djjfifsg&-*>-&&=&-=%",
"JKFZptweghghrtrt08971,<>GGFJZDSDzzzl6565<<28ajlkdhfa<:=>%%=:#&--",
"&=-<;<13hhghryrt<,12,,1<CZCVsapadddgerttlkgsr0875147lcnxNNMl;@O+",
">>:,<211hjgjrytt>;><><2<DGFDiiyisaasuipihjjhq00q8363MvmxvMBc&O+%",
"=-=-<1<1hjgjtytt2,<1,<1>ZSADyiupdddsiyuujjjj88782472vlcbbMNb%+@%",
";::;11<2hjgjtytt,:><,12,DDAGuaiipsfaitupjhhk80095734nncbmmmv%@@@",
"HJHGPLKL,,:,><>>MNBnKFGJVVVBMnnmCVBAkxxzmmbN$=&&LIPLnvcndsddO++O",
"GHGGPILP><<<,,,1NNNnJFDDBVVVNMNNCCCSlcccnmnM$&%&JPLLnnbMdffdOooo",
"JJGJKPKK:,<>,:>1NMMMJJHGVVVBMnnnCZZCllllvnnm*==-LILKnbcbsdds#+@@",
"DGHPHPIY11,-4<::BBBVDFFFCCVBNMMMBBBBbvvvMMbc*$@@LPKKmnbbfspy$+o.",
"JKFAptww;-:5NFGGfggfiuuuaasdghjktrtugjkj0qwu;123jkjliapa*&-1-143",
"DGGDytru1:-1ZHFZhjjjrrttaasfjllzewwrzccxreqe;:;-hjhlisas=&&;;<1>",
"FHGGrret,:-,ZGDAgghlruuusssdghjheewwzllkwwqw,,>>kkhliapi*%&-<332",
"FGFHtyty>:>1ADFFjggkeuyrsssfjlllerrexlzxqwwq>::,jjgkpdaa*&*=,11<",
"zkjz:<,;<<1:DCZZew9rO%@+##@$%*&&MMnN70885546+@@+CCBAriyyuyri$=&&",
"kjjl:,,>1<1,FSDS0q0eO#@##@@#%&&&NBNB90904566@@@#BVVAtiuptuyi%=*=",
"zzzl>>>>1<<,AZZVwrwe@@+@@@@#%&&&bMmm99806775#OO@BCCCttrutuyy$$#%",
"hhhg1<,,>>13CAFF8977##+#$$$$%%%%CCNne066233<&##$NVBNpiuptytr--*-",
"-==;XooX@+o >&$#-;-;#%$%***&%%$$oO+&@&*-****:::>-;-;@#@#*==-+@+#",
"%$$%O++OXoO.;*=-%%$%%&%%=-=*%$$$%%#%%*%%####<<<<==**&&$%**&*&*%&",
"***%@OOoooO.*$%&*=&%*%$%=--*%$#$+@++&&%&%%%@1>>>=;=&&#@#*=*%%#@#",
"%&*$@oO+Oooo====$**$&$#&===*%##$#%$#*&%=$&&@2>><&--%*##&%==%&##&",
"DDSDrterIIUPLJKKEEERTYTTKJJJ&&&&=&*=YTRTTYWIw609weqqTRUYDSDSYUYY",
"FFDDrterPLPLKKLKWWWERRRRKLPJ%@#%*=*$!ERRWITR90e60qtqTLTRFDFDTYTT",
"FFDDrreeYUUUJKKJRRRRTYYYHLIJ*#%=&;;$WIIERUWQ3496r8w9RUEPSADAUIUU",
"DDSDrtrrKLURGKIIWWWERRRRLLKD:&%$=$+;U~QTTUTLyqeqr9eyPYWUFDFDTUTY",
"gggh;:;:PPKDt098hjjhgfff546q+&-=E^/Rmlxn5458bMNmZSABckjlwweqdsds",
"fgfh;::>HJKHe0qekkkkjhhh9448%-=$QRY~xNMv442<GSZZZDAFhljzretegdff",
"fgfh-:;:LPPKw0qqhjjhgfff7447*;;*WWW^lvvv2552CNNCFZVSkxlheweqdass",
"gggh;:;:KKKKqqqqjkkjhggh7677&&*&EQWEnnvn5326NZCBSVDSjhxjrerwfsdd",
"nbbnNVVB:;,>;->:sdfsBMNBssps&-*&IYRP1;:,,-;1znmchgfjxbvcgfhfuyiu",
"vccbMBBN1:>,>,<;fddsNMMMsdas&*&&EIIY><<-:,<>bcvngffjxbbvgfhfiyiu",
"nnnmBCCV<-;,->,=daadNBBNadss--=;TPTW*:<:;;=%Nmbvgffjxbbbhfhgiyiu",
"bbbnMNNM:-,4*:1,hggjnMMmffpy-&@#YUTP2,1,,>>1lvvcjhhkxvvchghgiyiy",
"kkkkkkkkLJJZ6,,>bbvbzxzz-::2>2357688qqewNBBb4,><zlklzxxzhghgiyiy",
"jjjhhgggHJIG4,24MMMNkkkk>>;:>,::7771arrrCCAS-;>>xxzzzzlljgjgiyiy",
"lzllkjjjGGKG1>11mnnBjzzl:>::11<15605tqtyVBMN,,>;xxzzzzzljgjgiyiy",
"kkkjhhhhLJKH312<NnbBhxzj:,>:1,,10469wtuqNZCb3;-<zzzzzxxxjhjgiyiy",
"spaayyiyspps7887ZCBAeutr2<<2@$$#SGFSGDDHffffgggf3323qwqqpdashhgj",
"aiaayyiysaps5775VCVArytu4324@##@SDSAFDSDgffgghhh11,20wqqasaahhfh",
"sadduupippad7909VZCVeewr1<13+#$#ASADFHGHdffffggg43259wq0pspaghfh",
"aiaatrytaasd5677VCVBpiup2234@@##FGFHZSSDghhhgggg,12750qeaspsjkjk",
"nbnbkhkjfdda,::;ipiaweerwww0$@@@PIPLbvcvxxxzlkkkBVmv062323240wqw",
"vcbcgdfdfffa>-==ipipipiprrrw$@@@YTYYzzkzvvvclkklbMmb54352324wter",
"bbmvhfhgsdfa,;:>upiyutryqwe0#+@#UYURzvccxcvxkjjkNVBN44242314wrer",
"bvnvhdggdffa>--;yppyittiertw#O+@UULTkvxzcvvclkklmMmM34342313qrwe",
";=*:3663-=*;<221%>==SSVFtuyt<,:,nmnm3423hkkfirry55544433:>>:;---",
":-=:1431=&*-<332*;%*ADBAtytt<<,<mNmm3213fghdurry66555544:::;----",
"-==:2664===:1443;:&:AGZAuiyt<,:>bMmn5436klkgpttt44444333>>>:;;;;",
"-==:1333===;,11<%**,mAADuutt22,<MNbz73,<ggfsitrt66665555;;;;-===",
";-----=*&&%&*=**&*$O;&#$*=*;O####%&:&:><%%&**=--&&&&&&&&%%%%$###",
";--=*&&%&&%%%%$$+$%#$@#&**&;@&%&&&$&*-==@@@$&=--========#$$#@+++",
"=---===-**&&&&&%$$&*$%&&--*;@%##$%$%;:;:&%%&=--=&&&&&&&&$%%$#@@@",
"-;;-*&&&&&&&&&&&&##&#%&#-=&;@&$$%&&%;--;$##$*--=********$$$$@@@@"
};
