/* XPM */
static char *_564268529101[] = {
/* columns rows colors chars-per-pixel */
"64 64 89 1 ",
"  c #4B562D",
". c #4E592F",
"X c #4C5631",
"o c #4F5936",
"O c gray28",
"+ c #4D4D4D",
"@ c #53554B",
"# c #57594A",
"$ c #5A5D4E",
"% c #545454",
"& c #575853",
"* c #5A5A55",
"= c #575759",
"- c #58575C",
"; c #5B5B5B",
": c #605F5D",
"> c #5E6547",
", c #5F654A",
"< c #5F6255",
"1 c #5F6058",
"2 c #606745",
"3 c #616846",
"4 c #606649",
"5 c #636B4B",
"6 c #616554",
"7 c #656D54",
"8 c #62635E",
"9 c #66695C",
"0 c #696B5F",
"q c #677055",
"w c #6A725D",
"e c #5D5C61",
"r c #605F64",
"t c #636363",
"y c #6A6C64",
"u c #65646A",
"i c #68676D",
"p c #6D6D6C",
"a c #706F6D",
"s c #6C7362",
"d c #6F706B",
"f c #717866",
"g c #71756C",
"h c #74796C",
"j c #6E6D72",
"k c #706F74",
"l c #747474",
"z c #787775",
"x c #767972",
"c c #797A76",
"v c #767579",
"b c #78777C",
"n c #7C7C7C",
"m c #807E7F",
"M c #7F8276",
"N c #7F807B",
"B c #818576",
"V c #81827D",
"C c #858A7D",
"Z c #7E7D81",
"A c #817F80",
"S c #838383",
"D c #888785",
"F c #848980",
"G c #898A85",
"H c #87868A",
"J c #88878C",
"K c #8B8B8B",
"L c #908E8F",
"P c #8E928C",
"I c #92948D",
"U c #97998D",
"Y c #999B8E",
"T c #8E8D91",
"R c #918F91",
"E c #8F9291",
"W c #939394",
"Q c #979891",
"! c #9A9B93",
"~ c #95949A",
"^ c #98979D",
"/ c #9B9B9C",
"( c #A1A29E",
") c #9D9CA1",
"_ c #A4A4A4",
"` c #A7A8A3",
"' c #A8A9A5",
"] c #ABABAB",
"[ c #B1B1B1",
/* pixels */
"nnSnllal;;;;][][]___////W!~WWPTPPIPQPEWW~)~~~TT~TKTEKPKKKIKG8;;;",
"nnnnllvl-1;-[]][__]]~^//W/~!WWWWPPPEEEEE~~~~~~~TTTKRKKIKGGLG:*;:",
"nSnnllal;;-%[[][]]]_///!!//WWKEPEWWEEEE~))^~~~T~LKRLKKPKLLLK:**;",
"nnnnllvv;;11]]]]____)///~W/WWWWWPPPPEEEE~~WWTT~TRLLWKKKKGLKG:;;:",
"nnnmnnnm]_]_[[[[SmSSHKKKNZSSSHHHgggMMxMxnnnnnZnnmmmmzzclSSSS;;;;",
"nZnnnSmN]]]][][]nnnnKKKKNZZmHGGKMfffhhxhnvvnnnZZmmmmclczZnnn:8;t",
"VnnSnnZn]_]]][[]ZNmZEKEKSZZSHHGGsMhhhMxMbxxbnZZnmmmmzzczSSSS;et;",
"nZnnSnSn]]]_[][]ZNmnKKGKSNZFFHHHssghlhxlnvnnvZnnmmmmzlzlnnVSr;;8",
"mNmmtyttkvakSSnSZZSNnvlnZSSZnllnqwwsCCCCCMCFNSSSzzzcypiypppp---e",
"ZnmmttuydvgvnmnmNmNZnvnnZmSNnclnwswsCCCCCCFFSSHSczzciyppippp----",
"nZSntttilvdvZSZNNZZnnzlvSFSZnlllqwwsCCMFNNNSZSSSlzzzyppppppp*---",
"SmnnptttvgavnSmZZNSZnvNnSmSNnlvvwwwsMMPFSSSGSSHHccclppuypppp--;-",
"llnNKLWW///QnvgvklaaajjknnnnnnNNssssMMMNyyptrer;yyiacnNNkglar;rr",
"nnvnKTKK~//~lgvvavvlllglvnvnnZZZMsssMMMNdpayr1eeaapancncvllv1rr1",
"znvcPWKP/!//zlllkgkggkgannnnnZnn7wssMMMMuiyur;reypypnnnnglvaee;1",
"lnnvWETE////lvxvlalklajdnnlnnNZNqsssMMMNpyapr;1epppyNncnvkav1e1;",
"nNnnEEEW%+==%%;%++%%nNmZKGKHHSNSCNCFFSCHTJJJururR~R~DDDDzzcc&&&&",
"vnvnE/WW%%%+==*%%+++mmNZHKKHHSSHFCFFFCSSTJTTrrurRRRRDDDDccnc@@@%",
"NnnNW~WW+%=%=%==+%%+SnNZKKKHSNmSCFCFVSCSJJJJururWW~RDAmDcccz&@&&",
"vnnZPWWW%%%+;%%%%+O%nSmnGKKGHSSHCCCFFFSFTJTJirue~WRLKGGDmnBh*&+@",
"cnlvdptigakz_]]]/(_/lppllclcnNZNMgfglgxljijkruiimkkmkmzzyypd8tyy",
"llllpiypvlav]]]_)//(pllpnlvnZSmZffggxxxvkkkkiuiumkmammmzyppyt888",
"lnllyyiyavvl___]_))_djjjnllvnZZNgggglxlvjjkjiuiiaamammmmyyyytyt8",
"zlvvppiiavkj]]_'/))/agjdvlnnZNZZggsMhxlljkkjitiikmajmazmpdpyy88t",
"EKWKKDKK=**;(_)_NNZnuyuidjdjppip775q67<6dsyd:::;GDSKyaapnnnn*;*;",
"EWWKKHHD=;==__(_NSSZyuiyjdjdppypq7qq6677ydaa::etDDGGipppnnnc;**;",
"WKWKKHKK*;;*__)]nNNnpuuyjjdjpppyqq7q6<;<daaa:;;eKGGKpppynnnn;;;;",
"KWWKKKKK;-%e/__(ZSZvjyyudgjdjppd57557977ydyy88ttDDSCaagpcnnn;;*6",
"nnnnnnnnllvg=++%OO++=;;e;;*-===&XX o,,,,#$#&$$:$r::y*;;;lzlb**;;",
"nnnnnSnnlllz++++++++;1e;;;;=*==-    >555####:$::::::;8:;lllz;;*;",
"nnnnnNZSvlzz++%%OOOO;;1;;;;;*=**    25>2###@:$$::r::;;;:lclb;e;;",
"nnnnnZnnzvvl%++++++Oe;e;=;;===-= .  5,>5####:*::::::8;;;lllv*;;;",
"vnnvWWEW]___]__]SSSSWQWW~W~W;*-*_(``99y0YYYYs000zlal^)^^vnnl**&*",
"vnznWQWW_____]]_SmSS~~//~!~W;===``(`0s00YYYY9000aalk^~^)nnnn*=&=",
"nnnnEWWW____]_]]SSmSWWWEQW/E;=*;(`_`9y1sYYUY0y00zalk)~)~nnvn*&**",
"zcnNP~W~_]]__]_]SmSGW////!WE1;==_'`(py9yYYYUy99ylakz~~)~bnnl**&*",
"nnnvlajjZmZmnmmmKKHHNvnvpjal==;;LGKIFFFFw99yIYYIKKKSnvkZvzzv****",
"nnnnllgvSZSZZnnnHGKGnnnNaadj;;;;LKLGGFPC9yy9UPIIDKDKlkkvvvzl%***",
"nNnngljgSmSNNnnnHKKGvnnbjdjd;;;=DPIGDCCG0006YIIUKHHKvvkkvzvz***=",
"nnvnjlllZmZNNnnnHKHKnnnngdjj;-;;KIGKGDCCy0y0IIIIHDLHljvvvzll****",
"NZZmnnnbTEKWlnvn+%%+HFSHkalj1;;;WW/QzcncVVnVcVnBZZZZTKKKnnnc1;;1",
"mmSmnnnnKPKWlvzv+%%+HHFHlglj;;;;//Q^nzcnVVVVcMncSZZZTKTTnvlc;1;;",
"nnmnnbnNEWEEnlvz++++HHGSlklg;;;;^Q^QnnnzVVVCcVVnNnZZKTTKnnln;1e1",
"SSSnNnnlKTKGncnn%%%%HSHSgjjj;;=;!/^/cccnVVVVcnnnSZZSKKTPznnl;e1;",
"1ettlnnn%==;%=%%e11;SmSSjppp;;=;/)//SSVVagpgttt8ZnnZlvvvlllx;;*;",
"utttNvnv%@+%%;*=eettNNmmpppp;=;;)(((SDDSaaap::;tSZZSvvlllvll-*==",
"ttttnNnn%=%%=*==1eeeNZmSpppp=;=;/(//VDVDaaaattttZZZSlzzvlllx*;*;",
"tet1nlbn%%%%====te1tZmSZppdp;=1=_//_SDSSaagkte;tSnZSvvvlllll;*;*",
"NnnZlNnlWW!WETEK%%++vllljdpj%=%%GPPKnnnnZZZZZZZZe1eeNnZZNvMv====",
"NZNZlnnv/W~WEPEE+++%llaldjpj%%%%IPGPnnnnZiZiZjZZeerenNnZllvl1=1=",
"nNnZlbvlWW/!WRWK%%+%llllpddd=%%%GIKKncnniZZZZZZZ1e1=ZZNZvvvl1===",
"ZZnNnnNnWWWWKKPT++%%pllljjjp=%%%IGPInnnnZZiZZZZZeeerNNZNNlvxe=1=",
"nnnZHHHHWKWWKGKHakaplppy=;;e1utuUQQQAZANZA^AZZZZHHHStttegpkg=1e=",
"NnnnGGKKKKKKHHGHpjjyppjje1;eet1tYQQQSAmSA~^^ZkZZHHJJ1etrpppj=ee1",
"ZnnnKGHKWKTKHGDHdaaapppp;e;1ttttQQQQAZZZ~^~AZZZZHHHHttr1kjgje=e=",
"nnZnKHGKKKEKGHKDjajppjdp;1;ee1trQQQQAZZZ~A~^ZZZZHJHFu1etjpij11e1",
"SSSHlvnl_(()lznlljllvllvcbcb=*-=y0wyyyyykkkkkkkZttutlllllllbtrue",
"SSSHnnnn__/_vnzllpdlllnzccmm==**yyywyyyykZZkkkkkiyuylldaxbxbteur",
"SSSSlllc^_/_lvvzlllllvnlbcbc-==-y0wyyiuyvkkkkkkkytttglvllllvtrur",
"SSSSnNnn/__/nzvndplvdlllmmbz:*=%sswyyyyyvkkjZjkkyiyiglggNvbluree",
"jdajllzvvalzNSGmSSnn:;*-&&-:=:r:$,$$:&&$eeeeeeee:;;;**;*%%==;eee",
"djdjvnnzvgvlKHHSnnnn-&--;--;:::-$$$$&:&:e--eeeeetett==*;=%==eeee",
"lagpzllvlvvvHmGHmSSm*-&&--&-::::$$$$#::#eeeeeeee8;:8=<;;%%=%eeee",
"jajpnzzvlxglHHSGSnnn-*-&;*;;r:::$$$#:&&:ee-eeeeett;t%;*==%=%eeee"
};
