/* XPM */
static char *_564268508849[] = {
/* columns rows colors chars-per-pixel */
"64 64 80 1 ",
"  c #535353",
". c gray33",
"X c #555555",
"o c #565656",
"O c gray34",
"+ c #585858",
"@ c gray35",
"# c #5A5A5A",
"$ c #5B5B5B",
"% c gray36",
"& c #5D5D5D",
"* c gray37",
"= c #5F5F5F",
"- c #606060",
"; c gray38",
": c #626262",
"> c gray39",
", c #646464",
"< c #656565",
"1 c gray40",
"2 c #676767",
"3 c #686868",
"4 c DimGray",
"5 c #6A6A6A",
"6 c gray42",
"7 c #6C6C6C",
"8 c #6D6D6D",
"9 c gray43",
"0 c #6F6F6F",
"q c gray44",
"w c #717171",
"e c #727272",
"r c gray45",
"t c #747474",
"y c gray46",
"u c #767676",
"i c #777777",
"p c gray47",
"a c #797979",
"s c gray48",
"d c #7B7B7B",
"f c #7C7C7C",
"g c gray49",
"h c #7E7E7E",
"j c gray50",
"k c #808080",
"l c #818181",
"z c gray51",
"x c #838383",
"c c #848484",
"v c gray52",
"b c #868686",
"n c gray53",
"m c #888888",
"M c #898989",
"N c gray54",
"B c #8B8B8B",
"V c gray55",
"C c #8D8D8D",
"Z c #8E8E8E",
"A c gray56",
"S c #909090",
"D c gray57",
"F c #929292",
"G c #939393",
"H c gray58",
"J c #959595",
"K c gray59",
"L c #979797",
"P c #989898",
"I c gray60",
"U c #9A9A9A",
"Y c #9B9B9B",
"T c gray61",
"R c #9D9D9D",
"E c gray62",
"W c #9F9F9F",
"Q c #A0A0A0",
"! c #A2A2A2",
"~ c gray64",
/* pixels */
"TYUELYIIRYRTLLPLSSSFHKKJHHHHGGGGKFGHFGHDGDDHPYYUMNNNMMMMASAA**&*",
"RRYWLUIPTYTYLKPKSSSDHJKJJJJHHHHGFDFGDFGFHFFHLIIPBBBNNMMMZAZA====",
"IUIRJUIIRYRTPLPLSAADGJJHGGGGGFFFHJJJGFFGFDDHPYYYNNNMmmnnAAZZ&&%%",
"RERQLUIURTRTPLPLDSSDHJJJJJJJHHHHDFDSFFDFDDDGLIUINNNNNBBNDSAS--==",
"LPKKmmbnmnmnzlxljhhkzxxxnnnnbbbbqw0efjghkjhhjjhgsssdhjjjhjjzXO++",
"YTUINMnmmnmnzlxlkjjkzccxMMMmmmmm7959fjdgjjhgggfdsssgkzxzkkkcO$$$",
"LIPLMmnMMmMmxzczjjhkzxxzmnnnnbbb9e80gjshggghhhhhapadhllklkkzo++O",
"IUIPMmbmMnMmzlxljjhkzxxzmmmmnnnn6w79fhsjjhhhgggfdssfjllkkjjzo##@",
"ZZCAetrraapasssagdgfaaspjhkjsadsbnnbczzxdddsappasffpe99q>:;<&;-=",
"ZZZArtttsaassddsfsffppsajhkjsafdvbbvcxxcsddsappapssiw99q<,:<&-*&",
"CCCZwrerappasssafdgfppsajhkkssfdmnbvczllssdsaaaafgfpr090>>:<&;--",
"ASASerersaasddddhgjhapspjhkjsadanbvvvvcxfffdsaaasssie000>,>1&-=-",
"HJHHyytyhgghjjjjlklkapapkhkhpipi090eypaphhhgdsaszxxcxxcv4533$$@#",
"KLKJyytyjhhjkllkxzxlsiapkjkhpuiu989eiddskkjhfssskklzxcvv5754$#+#",
"JKJJtrethgghjkkkxzclsiapkhkhpuiuw09wisaijjjhfssscxxxcvcc3544$$#%",
"JLKJytryhhhjkllkzzclaiapkhkhpipiq98widsphjhgfdsszllzcvcc5765$#@$",
"HKJHrwwraaaaaaaafsfsytutxcvcxzxcmmnNlczxnzxbtiirsdafvmbnqwew*%**",
"JLKHewqwaaaaaaaadadsytyrxccxzzzxnnnNlcxcclxvtupyddafxbcvqweq&%%&",
"JLJHew0waaaaaaaafsfduyiycvvvcxxcbnbNlcxcbvbbuyiuasafvmnmeeew*&&&",
"HJHGreweaaaaapppdadsytutxxxxxxxxMNMBlxzxxlzliuiupsafxbvbqqwq&&&&",
"DFDFrtrtpppppiiiiyiuewrwhhjjklllsdad0q90iuiiiiaisdaahhfg6676####",
"ASSDrytuppiiiiuuutuuwwewggghklllggff0090teteaiaiasppffsd5455@###",
"ASADrytypppiiiuuiyiieetejhhjlzzlfgff0090uyirsupipapaghgj6556#$$#",
"SDSDrtrtppppiiiiutuuewrejhhjkllkdfdf0q9qrtiesypapsppffdf6555###@",
"bmbvuutupaapuyuu8998655644433322wwwerrrrr8wq,>2;,12,twer0980*-=*",
"bnbbpiupippiyttt0009655555544443wqqwerrre9rw<>3,222<yrrr9990=--;",
"mMnbiutyaaapiuyu0008654433333322wwwerttre0rq>-,:<,,<rttr9008=&&*",
"mmbbpiyuiiuuyttt9988766644444444qqqqerrew0w02,1<3235qere8997,;;:",
"&*&=.oXo$$$$$$$$@@@@#$$$########@@@#$%%%%$%&%&*%----%%%%+@@+%$$%",
"&*&=XOoO++++@#@@OO+@$%&&$$$$$%%%+O+@#$$$$$#%=--=,,,<#$$%+++O;---",
"==*=.o..#@@#$$$#OOO@$%&%@@####$$+++@$%%%$%##&*%&;;;<+%%%+@@X-&%&",
"*=&=XOoo#@++##@+@++@$%%%##$$$%%%+O+@#$$$#&%$=*&-,:;1@*&$O@#X:%&-",
"HHGHHJJHKKKJGFFFUUUYREWEDAAD&==&!!!QETTTLKLHVmNMPLLLPPPLFFADPUPP",
"JJHJKKKJPPLKHGFFUUUYREEEAADF*=;;!~!QETYTKJLJCNVBPPPPIIIIFFSFIYIU",
"GGGGHJJHKKKJGDDDIIIYTRRRSDFD=&==!!!QRYYYPLPJVMNMKKKKLLLLSDADPUPP",
"JJJJKLLKPPPKJHGGYYYTREEEZAAC:=--!!!QETTTLKLHVNBMPPIPPPPPFGDGIUIU",
"tttyuiiiiiiuyttypppasddsytyt. . ZAAZVBBVhgjjssfdaaapiuuurterpaip",
"uuuipaaappapiiiisaasdffdreeqOXX.ZAAACVVCgfhhssgddffspuiiyuyyaspa",
"tttyipppiiiiuyyuaaaasddsttt0O   ZAAZVBVCjgjhsadaassautyuryrripup",
"yyyupaaaaaapiuuuaaaasdssetyq@ XoZAAZVBBVhghjddgdaddsiuuiryttaaps",
"mnnmMMMMsppf0trwpuuajxxkipau-*=-GDGGfdgfddddffffghfjmNMNyyyupapp",
"MMmMNNNMaaagqtttaiisjzljpasi;*=-HGJHgfjgffffffffjkhknNmmiuuuippi",
"mmnmmMmmassdqwwwytyphzzlippy-&&*FDGFdsfdssssdddsfgfhbMmMrrtyuppa",
"MmmMNNNNppppttttapadjzxzaasi:--;JGJHgfhffddfghhhjkjlmBNByuiiiipa",
"apasdfggytyigjkjbvcxxxzl6675oXXXTYRYcxvx8789wrrrpauusspalllhsiii",
"aaadghjjtrrtzxxzMmmbvcxz8887@+++WRWRbvbv989qtiiudfaaffascvckdiui",
"pppsdgggtttelkkjvvbvcxxc7776+OOORYRYczcz8779ruutiaiiddsdkzzjsuia",
"sasdghhhrtyrzklzbbnvxzzx8776+OOoETETvcvx9770ruutadapddpslxxksuup",
"aaaaaaaaipsySVZANMnVwutt;=;-%$&$PJKIruirzcxxttryupiypuyptyiesypp",
"aaaaaaaasasuDCZCmMMCriui;=;-%%*%KHKPrtiyzcccuiuppaiuapuuiuirduiu",
"ppppppppiyuuZZACmNNBrtry=*-=$$&%LKPLtetrzxzzttrtuutuiaiiyrtraipu",
"aaaaaaassaddVCZCmMmMiiup:;>:%$&%KHKHpuiuccxxiiuussadupiiiuiiuyiy",
"ggggggggtrteaipirtry9q905453;*-*SZSShhkhbbbMkxxcbnbbyutylkzktetr",
"gghhhhhjpiaiiuiirrereree8785:=-*ZVZCzlxlnnnBxbbbNVNVtytyxxvceqre",
"fffgggghytyiyupirteqeq9q7674;*=*SZSVxjljnnvMkczzmmnVeuuulkzxqwre",
"gggghhhhitypyppywttwtwqr6674;*-=ZCSBxhkknnvMznvcNMnVrpuyclzcqerq",
",>><355444431<<<3573iryiitri@&%+NMnB9e00pspi32126776655655642112",
"1<<1344355531<<<5663utttuttp#&&%mNmB0eweipii33236776655645542<11",
";;:,23443332<,>,5445uiiuyyyu@##@MBNM009qaspi32,<6776544545531<<1",
"<<123455554432226567rtttuyyt*&&&nmnbrewrpauu44227887655556653112",
"==*%@OOO%$$%%%%%$$$$OOOO:;;:Xooo@$#$ X.X=-->@%%&$$$#@+++#$$@OooO",
":>:=$+O+&&&*====%%%& XXX:;;-###@O+O+O+O+==*>$=*=%%%$@+++$%%$@OO+",
"*--*#O+@%$$%&**&%$$=.++O;::*#ooOO@+oOX.o;-=:#*%%%%%$@+O+$$%#+OO+",
"=;;*@oO@&%$%*=*&*$#= +O.-:>=$o+#o@@o+XX@-=*:$=&&%%%$@+OO#$$#+oOO"
};
