/* XPM */
static char *_d3bd982b5e148f8ec584730849590d9[] = {
/* columns rows colors chars-per-pixel */
"64 64 245 2 ",
"   c #060605",
".  c #0D0604",
"X  c #0D0905",
"o  c #0C0909",
"O  c #050608",
"+  c #120703",
"@  c #120906",
"#  c #140B0B",
"$  c #1A0D0C",
"%  c #190A06",
"&  c #1B110E",
"*  c #17120E",
"=  c #1A0F11",
"-  c #1D1212",
";  c #161010",
":  c #230B06",
">  c #250E09",
",  c #2B0E0A",
"<  c #2B0D06",
"1  c #310F0D",
"2  c #360D08",
"3  c #22130E",
"4  c #2D110D",
"5  c #33110E",
"6  c #3B130E",
"7  c #231514",
"8  c #2A1615",
"9  c #261916",
"0  c #261919",
"q  c #2C1B1A",
"w  c #271718",
"e  c #341412",
"r  c #3C1513",
"t  c #321E1D",
"y  c #3E1B1A",
"u  c #391816",
"i  c #34211E",
"p  c #39221E",
"a  c #361F21",
"s  c #291E26",
"d  c #2B212A",
"f  c #352322",
"g  c #3A2524",
"h  c #3E2A2B",
"j  c #37272A",
"k  c #362933",
"l  c #2F2530",
"z  c #431A15",
"x  c #431C1B",
"c  c #451916",
"v  c #511F1B",
"b  c #48231D",
"n  c #53221E",
"m  c #4D2923",
"M  c #432D2D",
"N  c #482626",
"B  c #542522",
"V  c #542B2B",
"C  c #5B2D2A",
"Z  c #582926",
"A  c #4C3433",
"S  c #493537",
"D  c #543838",
"F  c #53302E",
"G  c #652B2A",
"H  c #682A2A",
"J  c #68312D",
"K  c #7A322D",
"L  c #693834",
"P  c #763A37",
"I  c #6E2D30",
"U  c #491F20",
"Y  c #5D413D",
"T  c #79433D",
"R  c #64463E",
"E  c #563D42",
"W  c #6D3E43",
"Q  c #5B4343",
"!  c #584647",
"~  c #5E5559",
"^  c #674A49",
"/  c #784B49",
"(  c #6E514D",
")  c #76534D",
"_  c #654F51",
"`  c #6B5455",
"'  c #775A58",
"]  c #794C51",
"[  c #7C605D",
"{  c #705E65",
"}  c #7B6566",
"|  c #726B6F",
" . c #833C35",
".. c #87433C",
"X. c #974A37",
"o. c #AF5639",
"O. c #813F40",
"+. c #854B43",
"@. c #8B4C45",
"#. c #894C4A",
"$. c #924D48",
"%. c #8D534B",
"&. c #885148",
"*. c #93544B",
"=. c #98584B",
"-. c #855B57",
";. c #925552",
":. c #955B52",
">. c #995C53",
",. c #975C59",
"<. c #B05C46",
"1. c #9B674C",
"2. c #9C6458",
"3. c #88645C",
"4. c #B96449",
"5. c #A56859",
"6. c #A8735C",
"7. c #AF694F",
"8. c #875D61",
"9. c #886967",
"0. c #966D65",
"q. c #8D716D",
"w. c #99736B",
"e. c #8C6E71",
"r. c #947473",
"t. c #9C7A74",
"y. c #9B7777",
"u. c #847779",
"i. c #A87768",
"p. c #B77A69",
"a. c #A47D75",
"s. c #A67978",
"d. c #A97274",
"f. c #C96D4E",
"g. c #C97667",
"h. c #9E817D",
"j. c #AB847C",
"k. c #A8847A",
"l. c #B48679",
"z. c #AE826A",
"x. c #CC9178",
"c. c #AD7E83",
"v. c #DC7991",
"b. c #E57B96",
"n. c #96868D",
"m. c #A58482",
"M. c #AB8484",
"N. c #AD8A86",
"B. c #B48C84",
"V. c #B48C8B",
"C. c #B98B87",
"Z. c #BC938C",
"A. c #B7928B",
"S. c #B98E91",
"D. c #BC9493",
"F. c #BC9A94",
"G. c #BE9B99",
"H. c #B89395",
"J. c #AD938E",
"K. c #BC9DA1",
"L. c #B1A7AE",
"P. c #C2958B",
"I. c #D98A99",
"U. c #C49B94",
"Y. c #C49D9C",
"T. c #CA9D9C",
"R. c #C59695",
"E. c #D4979D",
"W. c #C9898F",
"Q. c #CCA49D",
"!. c #C6A29A",
"~. c #D3A59E",
"^. c #D89CA4",
"/. c #C59FA0",
"(. c #E68AA4",
"). c #E995AA",
"_. c #F099B1",
"`. c #CCA4A3",
"'. c #CCA9A3",
"]. c #CBA8A7",
"[. c #D1A5A3",
"{. c #D3ABA4",
"}. c #D3ACAB",
"|. c #DAACAB",
" X c #D8A5A7",
".X c #D5B2AC",
"XX c #DBB3AC",
"oX c #D9B6AB",
"OX c #DAAEB1",
"+X c #DBB4B3",
"@X c #DDBAB3",
"#X c #D8B6B5",
"$X c #CFB4B4",
"%X c #E3A6AD",
"&X c #E3B4AD",
"*X c #E8A9B4",
"=X c #E3B5B5",
"-X c #E3BCB5",
";X c #E3BCBB",
":X c #EABCBC",
">X c #E8B8B7",
",X c #F2ADBB",
"<X c #E88298",
"1X c #DDC3B6",
"2X c #E5C2BB",
"3X c #EAC3BC",
"4X c #E8C6BC",
"5X c #F2C3BE",
"6X c #ECBEC1",
"7X c #F2BCC2",
"8X c #ECC3C3",
"9X c #ECCBC4",
"0X c #E8C7C6",
"qX c #F3C4C4",
"wX c #F2CCC5",
"eX c #F4C5CA",
"rX c #F4CBCB",
"tX c #F9CBCE",
"yX c #F8C7C9",
"uX c #EED2C7",
"iX c #F4D3CC",
"pX c #F5DACC",
"aX c #F7D5CB",
"sX c #F8CDD3",
"dX c #F5D4D2",
"fX c #FAD4D3",
"gX c #F6DBD3",
"hX c #FADBD4",
"jX c #FBD5DC",
"kX c #FADBDC",
"lX c #F7D9DB",
"zX c #EDD9D8",
"xX c #FAE2D4",
"cX c #FAE3DC",
"vX c #F8E2D8",
"bX c #F7E0CE",
"nX c #FBDCE1",
"mX c #F7DDE0",
"MX c #E7DEE3",
"NX c #FBE4E3",
"BX c #FBEBE4",
"VX c #FBECEA",
"CX c #F5EEED",
"ZX c #F7EFE9",
"AX c #D0C5CB",
/* pixels */
"@ @ @ @ % % # $ % % $ $ 7 7 w 7 9 & 3 & & & & 3 & $ $ & * * * * # % $ # # @ @ # o o # o o o o o o o # + . . . .                 ",
"X @ # # # % # $ $ # $ = 8 8 8 w 3 3 * 3 9 3 3 7 3 3 7 7 - - & 3 - & & - & * # # # # # # o # o o o + o + . . . .                 ",
"X @ @ @ $ % $ $ $ = 7 7 w w w 7 3 3 3 3 9 3 9 9 8 q 9 9 - 0 9 9 9 9 9 9 7 - - # # # # # # # o # o o o # . . . .         . O   O ",
"X X X @ $ $ $ 0 8 8 8 8 q w 7 w 9 9 9 q q i i i f f i t f i g f f i q s q 0 9 9 = ; = ; = # # # # # o + + + . .         O   O O ",
"X X X # & 9 q j g w w 8 q w q q 9 t i i p F D ^ ^ D D A A Y Y D D M h j j q i 0 9 7 - - = = ; ; # # # o o # + . X     O O O o O ",
"X @ # - i h M h g a 0 0 w a w a i p F R [ 3.0.t.w.0.3.[ 3.( ( ` ` ! Y Y S S h j d d 0 7 - = = = = # o # + o o . X X X o o O . . ",
"@ & i h M M h g f q q q q q q a F R 3.0.0.z.j.l.l.j.k.h.q.q.q.9.} [ ( ( _ ^ _ ! E E k s w 7 7 - = = = # # # + o X X X o o o o o ",
"# 9 g M M j f i q q q q q t N W -.9.w.w.k.k.l.C.Z.U.F.j.k.k.h.r.q.q.9.} 9.} [ ` ` ' ` E A E A t = = = = = # # # # # X o X X - # ",
"i h Y h h j g f f q q u i M ( 0.w.a.k.k.B.A.P.P.U.U.U.Z.J.V.J.m.h.k.y.q.e.9.9.} } } } } W.^.E.s.E w - = = # # # # # # # # # 9 # ",
"! _ ~ ! ! S h g i q q q M ) q.z.k.j.l.l.Z.Z.U.U.U.T.T.Q.!.U.U.H.J.N.m.r.u.e.e.9.} 9.q.M.~.%X X*XI.E 7 - = = # = - # $ - 7 $ - ; ",
"~ [ _ Y Y S g i i t i M ( w.h.z.j.A.Z.Z.Z.U.U.U.U.~.Q.Q.Q.[.`.Q.`.G.H.m.y.r.e.e.q.r.t.R.|.*X*XI.).S.M - - = = = - ; # # 7 # = = ",
"{ _ _ _ S j i i i t M ( w.k.k.j.Z.Z.P.!.Q.Q.!.!.Q.Q.Q.Q.{.}.}.}.}.].].'.J.h.r.r.q.r.y.Y.:XrXeXOXE.E.c.s 0 - = = # ; ; $ & # - = ",
"` ` Y Y S j i i i N ^ t.j.l.A.Z.!.U.!.Q.~.Q.{.~.{.{.{.|..X|.|..X}.}.].'.Y.m.y.r.q.r.S.;XrX:X6XsX7X*XE.8.q 7 = = - * * * 7 & - - ",
"` { ` ~ D g g i p R 9.l.B.Z.P.U.!.~.Q.~.{.{..X{.{..X.X.X.X.X+X|.$X}.[.].`.G.N.y.r.0.M.+XrX;X;X6X6X6X*X/.^ s w 7 - s - * 9 q 7 d ",
"_ _ _ ! Y j p p A ' k.C.Z.U.!.Q.~.{.{.{.oXoX@XoXXXoXXXXX.X.X.X.X$X+XOXOX}.]./.S.M.c.c./.+X6X+XeXeX*XOX%XV.a q 0 s 7 o s ~ h.| n.",
"^ ` ! h h g p M ^ k.B.Z.U.!.Q.~.{.|..XoX@X@X@XXX.X.X|.{.'..X.X#X@X@X+X+X|.}.`.T.Y.R.N.V./.OXOX;XrXrX%X*X).E 0 d k ~ ! ~ u.| { ~ ",
"` ! A g f f g Y 0.B.Z.P.!.Q.{.oX{.oXoXoX-X2XoXoX}.}.].}.$XOX$X#X#X;X#XOX*XOX X].[.`./.S.V.}.6X#XdX0X=X*X*Xc.n.L.L.~ k l k l d s ",
"` D M g f i M ) k.Z.P.!.Q.~.{.{.oX{.oX&X2X&XoXoX}.}.}.}.$X].}.}.+X;X6X;X=XOX*XOXOXOX X/.H.G.+X+X6X].:X#X%Xs.c.AX~ l l l l d d d ",
"' S h f i p D 3.A.P.P.!.Q.~.{.oX{.oX-X2X;X-XXX+X}.].K./.Y.}.#X#X6X#X6X6X6X6X=X6X>X=X+X}.Y.R.Y.}.Y.0XfXsX:Xc.! ! l l l k l l d d ",
"' E g i i p Y t.P.P.!.Q.{.{.Q.{.oXoX1X3X2X@X}.].$X}.K.K.$X0X0XzX0XsX0X6X6X6X;X6X6X;X#XOX}.`././.}.rXfXqX,XE.` D k S k k l l l l ",
"} E h t t M ^ a.Z.!.Q.~.~.{.{.{..X-X;X;X@X}.G./.H.N.K.$X0XuXuXgXlXdXrX0X7XeX6X7X7X6X;X;X+X+X`.`.}.+X0X:X7XR.e.' S k k k l l s d ",
"} Q g q t M ( w.Z.!.Q.~.{.{.~.{.XX-X;X;X'.N.y.r.N.}.0XsX0X3X9XwXgXdXdXsXsX7X6XsX7X6X6X6X;X#XOX`.].].6XtX:XV.y.y.[ S k k l l s l ",
"| ! f t a F ' s.P.!.Q.'.{.~.Q..X-X-X+X+XJ.e.' m.}.9XiX9X:X-X-XwXfXhXdXsXsXsXeXeXeX6X6X8X#X;X;XOX|.}.}.OX^.R.M.m.k.` h k l k l l ",
"9.! g t g E w.l.P.!.{.'.{.Q.Q.|.;X#X+XK.r.[ y.#X0XqXwX3X2XXX4XdXhXfXdXdXjXjXjXsXeX0X6X8X6X6X;X#X#XOX].H.V.Y./.V.A.k.[ } ` _ ' u.",
"| ! M g M -.M.A.U.~.~.~.{.~.~.XX=X=X}.r.} e./.8X8X8X2X;XY.G.dXhXkXdXnXnXjXlXnXsXeXeXyX6X6XeX8X8X#X#X}.`.m.S.`.!.U.F.k.3.w.h.z.w.",
"_ } ! Y Q ' k.C.U.~.~.{.[.[.[.XX;X+XH.r.9.m.+X;X-X-X;X'.H.0XlXfXjXlXlXnXnXnXnXnXjXsXsXeXeXeXeX8X8X8X#X}.D.m.Y.}.!.!.F.k.3.h.l.k.",
"i g M h a Y i.C.U.~.{.{.[.'.[.+X;XOX].H.m.!.3X2XXX=XQ.M.+XdXhXdXfXjXlXnXnXnXnXnXlXlXsXtXeXyXtXeX0X0X;X#X`.J.N..XoX'.!.Z.k.w.k.Z.",
"i d i q q M w.C.P.U.~.{. X]. X+XOX}.]./.].1X5X2XoX|.j.T.8XdXfXfXsXfXlXnXnXnXnXnXjXjXlXtXrXeXrXrXrXrX0X6XOXG.m.`.@X#X{.!.F.j.h.j.",
"f q 8 0 q g 0.B.P.U.`.`.}.}.}.+X#XOX].}.#X9XwX3XXXU.l.>X5XwXdXtXsXsXnXnXnXjXnXnXjXjXfXtXtXtXyXtXrXeXeX0X;X].H.D.@X2XXXoX~.!.B.k.",
"9 9 q 8 t g ' l.Z.T.!.Q.}.|.+X#X#XOX].$X2XuXaX3X-X{.XX3XrXaXrXeXsXsXsXjXnXnXjXnXnXjXfXsXtXsXtXtXeXeXeX9X;X#XY.H..X3X3X-X1X~.Q.Z.",
"7 0 a q 8 t ^ s.B.U.U.!.[.+X;X#X6X8X@X2XuXaXaX3X-X&X-X5X8XwXqXqX7XsXfXnXnXmXnXnXmXnXjXtXtXtXyXyXqXwXeXeX8X#X'.H.Q.@X4X4X2X@X{.~.",
"> 7 0 9 f q F w.j.Z.U.'.}.OX6X6X0X#X6X9XdXdXiXwX-X:X-X>X3X3X8XqXtXsXfXjXnXnXnXnXnXkXkXlXsXtXtXyX7XqXqXiXuX2X.XF.'.oX4X4X4X2X@XoX",
"7 & 9 9 9 7 i ) a.B.U.`.[.|.#X8X8X8X@X2X4XiXrXqX3X3X>X:X5X5XwXtXsXsXlXkXNXnXnXNXNXnXmXkXfXfXtXyX7XqXyXwXrX0X.XG.'.oX2X4X4X4X4X@X",
"- 7 & q 9 7 7 N 3.j.D.T.].].+X#X;X#X#X.X2X8X9XqX5X5X5X3X5X5XaXaXfXjXkXNXVXVXVXVXVXVXBXNXkXkXhXtXtXqXrXaXiXuX1XG.'.oX@X4X9X4X3X-X",
"& 3 9 9 9 9 7 7 D y.H.F.Y.G.G.Y.G.U.U.F.Q.#X6X6X5X3X3X3XwXwXaXpXkXhXcXcXBXVXVXVXZXVXBXZXNXkXkXkXfXrXtXaXiXuX2X'.'.#X-X2X5X4X3X3X",
"& 7 - 7 q q 9 9 8 ( V.S.N.y.t.r.w.N.U.U.Z.Q.+X6X8XqXqXyXfXaXhXgXcXcXcXcXNXBXVXCXZXZXZXZXBXcXhXkXfXiXfXfXgXuX9X'.!.#X;X2X4X3X3X3X",
"& 3 7 q 9 9 f 8 7 u [ m.9.' [ -.N.|.|.XX{.Z.[.:X8X:X:XqXeXwX9X2X8XaXhXxXcXcXcXBXVXVXZXZXBXBXcXcXhXkXhXhXgXiX9X}.Y.#X-X3X9X3X4X5X",
"& 7 7 - 0 7 9 q w - i ` Q Y ` q.!.XXoX&X{.V.R.=X6X7X:X8X8X>X>X>X:X-X3XwXaXhXhXgXcXBXcXZXVXZXBXBXcXhXxXkXhXiXuX.XU.XX3X3X3X4X3X4X",
"- - 7 - 8 0 q q q 0 9 N M N ^ m.{.XX&X|.N.D.D. X:X:X:XqX3X;X8XtXpXaX5X3XyXfXxXkXNXNXcXBXBXBXBXcXxXhXxXpXxXhXaX#XF.oX3X-X3X3X4X3X",
"* * 7 7 7 w 7 w s 8 7 w M g D D.!.Q.|.'.s.+X[.R.%X6X8X8X8XiXgXNXiX|.yX5XyXaXxXgXcXcXcXcXxXcXcXxXgXgXpXxXhXpXpX@XF.oX3X-X3X3X-X3X",
"# & & 7 9 7 9 q 9 t 8 8 t g D c.C.B.T.D.s.=X;X'.Y.6X7XtXgXcXcXuX~.E.5XqXaXhXcXxXcXcXcXcXhXgXpXpXpXbXgXbXpXpXuX1XU..X2X:X3X5X-X-X",
"7 & 7 3 & 9 7 7 8 i 0 8 8 t g ^ e.w.M.y.V.}.$X+XS.OXrXjXcXcXaXXX&XqXdXdXlXhXxXxXcXxXiXwXqX0XiXwXuXpXbXbXpXuX4X#X`.+X;X-X:X&X&X>X",
"# & & & - q - q q 8 i t 8 t t y N D ( ) 9.J.Y.}. XR.0XlXBXhXrX3XtXaXhXNXcXcXvXxXxXaXqX,X*X%X6XuX5XbXxXxXxXuX4X@X!.;X;X-X&X&X&X>X",
"* * * 7 - * 0 7 8 9 q q t g t f M i f M F ' c.G.].Y.`.eXhXrX-X-X-X9XiXkXNXcXvXlXfX7X>X,X_._.^.6X4X4XbXxXpXuX1XoXU.+X+XXX&X&X>X&X",
"* # - # * 9 - 9 8 t 8 q f q f f a h h M g N ` N.K.^.H.}.8X2X6X=X~.-XwXgXhXhXjX7X,X)._.).(._.^.*X4XbXbXbX1XuX1X'.T.@XXXoX~.&X&X{.",
"$ - # 7 & 9 & 9 3 7 i 9 0 f a a g j g f M a N 9.S./.`.R.`.@X6X XP.|.-XwXwXwX7X*X(.(._._.(.)._.^.1XbXbXuXuX4X1X!.Q.=X|.{.~.&X&X~.",
"* # # - & - q - t q 0 0 0 q w t j i M M g j e.J.c.c.T.T.Y.'.OX].U.U.XX-X3X%X,X_.(.)._._.b.(._.I.2XxXbXpX9XuX#X!.].>X XT.E.~.Q.P.",
"@ @ @ @ @ @ % $ $ $ $ $ $ 9 8 7 7 9 8 q 0 d S ! ^ ^ y.S.R.Y.^.%XT.P.{.oX&X%X(.W.).).(.b.v.b.(.I.2XuX4XuX4X1X1XU.[.:X~.P.U.P.d.+.",
"X + + + + + % % % : : : 3 3 3 4 8 > 8 8 e e q u U A D W 8.c.c.c.R.S.G.$X+XOXW.(.(.(.b.b.b.b.<XW.XX-X3X@X$X!.].B.Y.Q.s.d.i.+.I P ",
"% % % % % : : : : > > < 5 u e e e e u y y y x a a U N N V G W W 8.9.N.J.R.H.^.W.(.b.b.b.b.v.g.p.z.{.@X}.F.J.q.) &.+.T +.$.#.#.#.",
"4 q 4 5 4 e e e u r u p p b m m m b B V V V V V V V D V I E W E V -.N.c.e.y.T.[.;X7X*XI.I.x.g.x.l.j.oX!.J.h.' #.%.*.*.,.5.5.,.>.",
"4 4 e e e e u u y z b b b m b m m U U N N N B V V V V V V E I I ^ H.y.] 8.8.V.Y.$XCXVX.XU.{.l.P.a.j.N.J.c.8.] #.-.,.2.2.5.,.5.5.",
"3 > 4 8 < , 1 e 6 6 y x b b r r z z y z x z z z U U U V V V V U -.B.9.3.w.[ K.9.n.MXCX$XJ.N.i.i.2.w.l.t.-.W W  .#.;.;.$.>.;.;.>.",
"> > < < , , 5 5 5 u e 6 6 e 5 6 r e e r r z r 6 y y x U Z V V V L 0.0.w.6.6.6.a.d.H.K.t.2.0.w.z.i.w.w.&.L J K O.#.#.;.#.$.$.$.*.",
": : < : : 5 1 , 4 4 4 < < < < 4 1 1 1 1 e r z z c c y U U U V Z C 3.2.w.z.z.7.x.P.@XMX'.i.i.5.i.z.0.i.T W P +.#.#.;.,.,.;.>.>.>.",
"< > < 4 , , 1 e e e 4 > < < 5 5 5 r z z r c z z c U U Z H H I H G / 6.1.1.1.7.=.6.p.U.i.5.6.1.0.i.l.i.P P P  .#.;.;.;.*.$.*.;.>.",
", 4 4 5 4 5 1 1 5 5 e 5 5 6 5 6 6 6 u z z z v c n n G n Z J G P J T z.6.1.1.2.6.6.p.x.p.5.1.<.=.5.l.p.+.+.....$.$.;.;.:.:.>.>.=.",
"> < < < 4 1 1 5 5 5 e 6 5 6 2 2 6 6 6 z z v n n n n G H H H J I J G Z.i.1.X.=...X.=.=.<.4.X.o.o.1.i.5. .@.......*.#.$.>.>.=.=.=.",
"4 4 > < < , e e e 6 6 6 r r 6 r z v n n v n n n Z J J H H T I H H H l.6.<. .X.X.4.4.4.f.f.o.4.4.o.7.#.K  . . ...@.$.=.=.=.=.=.=.",
"1 1 5 4 5 5 5 1 1 5 5 5 6 r r z z n n m v v n n G I J I P H H I K H 6.=.o.o.o.o.f.f.x.g.f.o.o.f.X.6.K K K  .K  . .$.$.=.>.>.$.$.",
"e e 4 4 , 1 1 1 e u x b n b m m C m n C C C J n J T P T J H K I P P &.6.=.o.4.o.4.g.^.g.4.4.<.1.i.>...K  . .K >...@.%.$.$.$.$.$.",
"% : : : : , < 1 r u y r b b m V m m J C C Z J R T L T T T T T T T +.&.w.i.5.6.6.5.5.l.5.5.a.i.2.1.*.@.#.+.+.*.=.>.2.2.:.>.>.,.$.",
"> > > 4 4 , < 4 e u y y u b m b n v v v m C L J R L J R P L P J P P ..T / 1.6.k.0.0.0.+.,.5.:.:.=.%.@.&.%.2.*.%.%.;.*.:.,.%.=.$.",
": : : 3 4 , 8 e e y b y N B m V n n R Y C R C J n J P J L T T T T T +...@.@.&.%.,.,.,.*.>.,.:.2.2.%.%.%.*.&.+.+.+.+.#.%.*.@.$.;."
};
