/* XPM */
static char *_564268542466[] = {
/* columns rows colors chars-per-pixel */
"64 64 256 2 ",
"   c #575E5E",
".  c #735D55",
"X  c #675F54",
"o  c #5D635E",
"O  c #5B6B5D",
"+  c #566658",
"@  c #5B7359",
"#  c #57634F",
"$  c #62625C",
"%  c #686859",
"&  c #756C5D",
"*  c #76675B",
"=  c #66755E",
"-  c #78765D",
";  c #61634D",
":  c #7B5D7B",
">  c #605E61",
",  c #5C6C62",
"<  c #576365",
"1  c #5D7768",
"2  c #5E7875",
"3  c #4F6264",
"4  c #6C6C65",
"5  c #65656B",
"6  c #6B636D",
"7  c #656A6A",
"8  c #6B6C6B",
"9  c #646763",
"0  c #746D63",
"q  c #7B6B63",
"w  c #736C6B",
"e  c #796B6B",
"r  c #6C7364",
"t  c #6C746C",
"y  c #667C6D",
"u  c #6C7A6D",
"i  c #667968",
"p  c #727364",
"a  c #7B7362",
"s  c #797A63",
"d  c #73736C",
"f  c #7C756C",
"g  c #747A6C",
"h  c #7A7B6D",
"j  c #737B65",
"k  c #6B6572",
"l  c #646B73",
"z  c #6C6C74",
"x  c #6B6D7B",
"c  c #646977",
"v  c #726D73",
"b  c #7C6C75",
"n  c #736D7B",
"m  c #7C6D7C",
"M  c #786577",
"N  c #647373",
"B  c #6B7374",
"V  c #6C7C73",
"C  c #65747A",
"Z  c #6C737B",
"A  c #6C7A7A",
"S  c #667A77",
"D  c #747473",
"F  c #7B7473",
"G  c #747A73",
"H  c #7B7B74",
"J  c #74737B",
"K  c #7A737B",
"L  c #757B7C",
"P  c #7C7C7B",
"I  c #575F61",
"U  c #865D7E",
"Y  c #846D6B",
"T  c #837C6C",
"R  c #83756B",
"E  c #816B7C",
"W  c #836778",
"Q  c #827573",
"!  c #8D7676",
"~  c #837B74",
"^  c #8B7B74",
"/  c #84757C",
"(  c #837C7B",
")  c #8A7B7B",
"_  c #8C757B",
"`  c #907876",
"'  c #926D7E",
"]  c #6C846D",
"[  c #6A866A",
"{  c #77836A",
"}  c #6C8372",
"|  c #6A8474",
" . c #738374",
".. c #7C8274",
"X. c #75827C",
"o. c #7B827C",
"O. c #798978",
"+. c #79907E",
"@. c #7E845E",
"#. c #83827C",
"$. c #8B817D",
"%. c #868C7D",
"&. c #8A8D7D",
"*. c #848675",
"=. c #968E79",
"-. c #8A9477",
";. c #93917C",
":. c #949178",
">. c #808263",
",. c #587882",
"<. c #6B6D82",
"1. c #736C84",
"2. c #7C6D82",
"3. c #7A6786",
"4. c #6C7483",
"5. c #677886",
"6. c #757482",
"7. c #7B7382",
"8. c #757C83",
"9. c #7C7C83",
"0. c #757C8C",
"q. c #7B7D8B",
"w. c #78748A",
"e. c #767B93",
"r. c #727194",
"t. c #7A5F82",
"y. c #816B82",
"u. c #876886",
"i. c #847583",
"p. c #8A7284",
"a. c #827B83",
"s. c #8A7B84",
"d. c #8B758B",
"f. c #837C8A",
"g. c #87798B",
"h. c #957A88",
"j. c #827E91",
"k. c #93738E",
"l. c #926C88",
"z. c #6C8286",
"x. c #748383",
"c. c #7B8383",
"v. c #7D8D85",
"b. c #74838B",
"n. c #7B828B",
"m. c #798B87",
"M. c #7D968C",
"N. c #7D8C93",
"B. c #7A8B98",
"V. c #7C9796",
"C. c #6C8693",
"Z. c #7A95A3",
"A. c #5CE9DE",
"S. c #78C8EB",
"D. c #6BD2E6",
"F. c #7BCAF2",
"G. c #75C4FD",
"H. c #74CDFD",
"J. c #7CCDFE",
"K. c #77C7F9",
"L. c #6BD4FD",
"P. c #6BD5F2",
"I. c #7CD4FC",
"U. c #74D2FB",
"Y. c #6DC9F0",
"T. c #4CEAEB",
"R. c #4AE9E9",
"E. c #56E9E9",
"W. c #4BE9F5",
"Q. c #55E5F4",
"!. c #5BE5F3",
"~. c #53ECF3",
"^. c #59E9F6",
"/. c #4CF6F9",
"(. c #54F3FD",
"). c #56F5F9",
"_. c #4FF4EC",
"`. c #63E9E8",
"'. c #6CEAFC",
"]. c #75E6FE",
"[. c #62F3FE",
"{. c #56DEEC",
"}. c #848384",
"|. c #8B8484",
" X c #848D85",
".X c #8A8B84",
"XX c #84848A",
"oX c #8A868B",
"OX c #848B8C",
"+X c #8C8B8D",
"@X c #93858A",
"#X c #9C828B",
"$X c #938B8D",
"%X c #9B8B8B",
"&X c #968884",
"*X c #839185",
"=X c #8C9384",
"-X c #84938A",
";X c #8C938A",
":X c #83998C",
">X c #919383",
",X c #93938D",
"<X c #989489",
"1X c #848C94",
"2X c #8A8C93",
"3X c #858C9A",
"4X c #8A8D9B",
"5X c #888596",
"6X c #958493",
"7X c #9B8493",
"8X c #948C93",
"9X c #9A8B94",
"0X c #948C9A",
"qX c #9B8C9C",
"wX c #98839B",
"eX c #8B9195",
"rX c #8B939A",
"tX c #849599",
"yX c #939393",
"uX c #93959A",
"iX c #979695",
"pX c #A1878E",
"aX c #878DA2",
"sX c #9383A6",
"dX c #8393A0",
"fX c #B7E5DE",
"gX c #87C6EC",
"hX c #85C7F8",
"jX c #83D1FF",
"kX c #B9DEF5",
"lX c #B4DBEB",
"zX c #B5E6E7",
"xX c #B4E4F4",
"cX c #BDE6FA",
"vX c #ABE1ED",
"bX c #B4DDD9",
"nX c #C9DAE8",
"mX c #CEDDF4",
"MX c #C4DAFE",
"NX c #CBDCFD",
"BX c #C3DAF8",
"VX c #D1DBF0",
"CX c #CCE8EB",
"ZX c #D4E9EA",
"AX c #C3E4FD",
"SX c #CBE4FC",
"DX c #C7E9F6",
"FX c #D2E6F8",
"GX c #C1F3FC",
"HX c #ECFEED",
"JX c #FCEFFF",
"KX c #FDF4FE",
"LX c #FCFCFE",
"PX c #F5F9F9",
"IX c #EFFCF0",
"UX c #CBDADF",
/* pixels */
"L L L J G d G G N 7 c x Z 6.2.w.d D K v *.h ..~ :XV.V.:X=X>X=X=X+ 3 3 + rX0X0X8Xi.7.P ( 0 j & & D v D n z n J n - - R a G L 8.6.",
"D L L G G g g G B N z z J K K m F J K b ....h h M.M.M.:X-.;.;.;.+ + + + yXuX0X0X9.a.i.( p & - a B D D J D n J J s a a f H 6.8.6.",
"D J J G d g g G x c c n J 7.K n m b m b ~ ......M.V.:X:X;.;.<X<X@ 3 + O 2X0X0X8XK ( i.~ 0 & & & v D J x z J n J a - Y f L 8.8.7.",
"L L K P G G f H x l z x 1.6.6.6.F F K F P ..H H M.M.M.:X;X=X<XqX+ + O , 8XiX0XuXP a./ / d r j d z z D z J D J J f R R a D A 8.8.",
"f.n.q.9.9.P P ( -.-.-.-. X Xv. X%X%X%X,X+XOXOX+X#X#Xh.pXh.qXqXk.L L L B .X.X#..X9X9X9X8X:X:X:X:X6 7 5 5 L 7.L 6.~ ^ ^ ~ L Z S A ",
"q.5X5Xf.a.( ( a.-.-.-.-.*Xv.m.v.<X<X<X<XXX5X1XOX#Xh.pXh.sXk.sXsX6.6.J J =X.X&.=X7X7XwX0XuXV.Z.tX5 5 9 5 8.L 7.L ^ ^ ^ H V C Z A ",
"j.XXe.f.a.( ( s.-.-.-.%. XN.N.v.%X%X%XiXXX2X1X1X#X#X#Xh.sXsXsXsXL 6.L L .X&.&.%.9XpXiXuXtXV.V.dX6 5 7 5 9.L L L ~ ~ ^ ( L S C A ",
"q.j.j.f.a.( ( ( :.-.-.-.*XOXv.v.9X%X%X<XXX1XOXOX#Xh.=.h.qXk.sXsXP K L J .X-.%. X,X9XqXiXtXV.V.rX5 5 6 5 9.L L 8.) ) ) H L S S S ",
"' p.l.p.o # # + g ..H G N l N l gXgXhXgX3.2.5.<.r d d r } V y } @XpX#Xh.2.2.m y.G L G V } } ] ] NXNXNXNXS.F.K.gX}.a.a.f.H { H H ",
"p.y.k.p.o # X   g h H H B N N C hXgXhXgX1.n 4.6.G d p u u } u y k.sXwXwXm y.m y.G V G G ] ] ] ] NXNXNXNXgXS.K.K.9.f.a.a.h g h h ",
"l.u.p.E $ # # + H h H D t l l l gXgXgXgX1.J 4.1.w d d G t V V  .#X#Xh.7Xv L 2.n V G V G } } ] ] NXNXNXMXS.F.K.S.XXf.f.}.H { g ..",
"' p.p.E % + + + H H H G B N N B F.gXgXgXr.5.r.1.j j - =  .V y t 7XpXh.sXb K 2.2.G V G G G }  .] NXNXAXMXgXgXgXS.a.s.a.P L  .G { ",
"O.c.}. XoX$X$X%XP H ~ H L L 8.L ! Q P #.; % O @ 8.8.8.N.BXNXNXNX(.)./.).B.9.0.c.G G G G G  ...H q 0 0 W 1 c C C f e v D c.c.x.x.",
"+.O.+.m.$X8X8X6XP ~ H o.L L X.X...{ H P @ = , O x.X.X.A BXMXkXMX(.(././.q./ 0.}.D G F F H ..o...w e w e N Z Z B w e 0 8 c.b.b.b.",
"o.#.O.X.$X$X2X2X~ P ~ P P X.L L ..T H ~ @ % O O X.X.+.8.SXMXMXNX/.E.(./.8.c.C.8.G f F G H P ..H 6 4 4 e N B B B e e e d n.b.b.b.",
"m.O.m.o.9X#X$X%X( H ~ H L L X.L H ~ H Q @ @ , = x.X. .0.BXMXMXBX(.~.(.(.8.P e.L G D D F P  .H H e e 6 e N Z B N e e w w m.C.z.m.",
"a.P 9.c.2X3XeX1X2XXX1X1XK m n K F F v K l <.<.C J J 6.w.i j u j 0 q p 0 r r i j 8X4X4XrXo.o.o.c.&X=.=.%X9XqX9X9X.XXXeXOX4 * 0 9 ",
"a.9.9.9.2X2XeX1XXX+X+XoX6.2.2.6.e F F D J C ,.<.6.m J 2.[ d i j a 0 0 0 r i r r eX4XaXrXo.*.*.o.=.=.=.=.9XqXqXiX-XOXv..X0 * * * ",
"9.9.9.9.2XeXeX3X2XoXoX2X2.2.m 2.K v d J c 5.<.c n i.6.2.- r i j 0 q 0 0 p t i r 2X4X4XeX*.*.*.*.=.=.=.%XiXqXqXqXm.-Xv..X% * * & ",
"P 9.( 9.+X+X2X+X+XOX5X1XK K m J v F b K l <.x <.w.2.Z r.= g [ i d e 0 d r r r i 8X4X0X0Xo.X.O.+.%X<X=.%X9X0X0X8XXX-XOX}.w w 9 w ",
"8 4 4 4 G G H F n.q.n.n.G h H H $.$.) |.KXLXPXKXvXzXzXlXR q Y Y H P F F 9 , , , LXKXKXPXZXZXZXZX/ K K J J J J Z > $ > 9 6.0.8.6.",
"4 4 t 4 H f H H b.0.n.n.d g s { ^ $.$.) LXKXKXLXcXlXlXxXe Q f f 9.P 9.L , , O , KXLXKXPXZXDXCXDX7.w.6.6.J Z Z B $ % $ > q.r.e.r.",
"r 7 4 r f h f f n.q.n.n.g s s g $.) ^ |.KXLXKXKXlXkXxXxXY q f a 9.P L P O , O $ KXKXKXKXZXCXDXCXw.i.w.6.6.Z Z Z $ X $ > e.5.r.e.",
"r 7 4 4 H F h Q n.n.e.n.F h h G #.#.$.^ LXKXKXLXkXcXvXvXY Y p a ( K P #.O 9 O O LXKXKXPXZXCXCXFX7.7.w.2.n Z Z Z $ 9 X 9 0.0.r.0.",
"uXuXyXuXXX2X5XoXD H H t LXLXLXPXmXmXVXVXG.G.G.K.jXjXI.I.!.!.!.!.x.8.x.b.g.d.d.d.J.J.J.hXW.Q.^.Q.m.v.M.v.v.*X*X X,X$X$X;X@ @ @ , ",
"rXuXuXuX5X1X1X1XH H d H LXLXLXLXmXmXmXCXG.G.G.G.jXjXjXjX!.!.!.!.x.x.x.b.i.p.f.p.J.U.H.J.W.Q.Q.Q.v.M.*Xv.v.%. X X+XyXyX-X= @ @ @ ",
"uXtXuXuX1X5X5X1XH H H H LXLXLXLXmXmXmXBXhXG.G.G.I.jXjXI.!.!.!.~.z.8.b.b.g.g.j.d.I.H.H.I.Q.Q.Q.Q.v.M.v.*X*X*X*X*X;X$XyX;X= @ @ @ ",
"iXiXiXuX2X5X1X2Xd H D D LXLXPXLXVXZXnXxXhXG.G.G.I.I.I.I.`.E.!.!.b.0.b.n.g.p.p.d.hXJ.J.I.^.Q.Q.W. XXX X X*X X*XOX,XyX$X.Xr @ O @ ",
"O...H ( a.a.f.a.a.9.}.P D t G t 2 2 S S t t a a f f b Y N B z l t j j r * . * . 5.,.4.4.C Z n x H H H G d t t t P Q ( ( D L 9.( ",
"f h R F s.f.a.}.7.7.7.L d j j r 2 2 2 2 p t d r a h g b N l z z j p u r . . . X A 4.6.4.4.C Z Z H Q F F G 8 8 d ( ~ ) ) K i.i.i.",
"Q H T f }.s.a.a.9.9.f.K G r u u 2 1 N 2 a F d f d g j f N l z N z d t t . . % . S 4.4.5.J B x n f Q T F d d t D / ~ ~ _ i.i.i.i.",
"H T H F }.f.a.f.( 9.9.9.d d g t 2 2 2 ,.& d d w E F f Y B z z 8 t d t r * . % . 5.S 4.5.n C n 6.R Q H f D t t t ( ( ( Q i./ E / ",
"X.L { X.AXSXDXSXY.S.K.Y.7 5 7 6 8X6X6XoXi [ i i _ s.i.' }.s.g.XXKXKXJXJXCXDXDXDX+X#X.XeX=.,X=X;.pX%X%X&X2X1XN.N.3XtXaX3X&.*.&.-.",
"H P g V FXSXSXSXS.S.S.K.7 c c , @X7X9X$Xi 1 i i p.i.s.h.9.s.i.s.KXKXJXJXFXDXDXSX+X$X-X3X;.$X:X;XpXpX%X%X2X1X1XtX3XeX3X2X%.%..X$.",
"G X...A SXSXAXAXH.S.F.hX< 7 l 6 @X6X7XoXu i i [ h.p.p.k.9.s.s.i.KXKXJXPXCXGXDXDX+X+X|.oX>X;X,X>XpXpXpX$X2X1XN.1XaX3X3X4X.X&.&.&.",
"X. .] X.SXSXSXBXY.S.Y.S.2 c c 5 8X8X8X}. .i i t p.h.h.l.XXi.f.XXJXJXJXJXFXCXFXCXeX+X8XrX:.-.=X;.&X%X%X$X+X3XeX2XaX4X4XrX X&.%.*.",
"G L ~ G 7.M M m V } V z.Y e R F 6 4 6 t G G ..X.8 7 , A zXcXzXzX[.[.[.[.W.W.R.W.Q.{.T.{.4.1.4.4.* Y Y & w 8 8 8 =X;X;X;Xc.9.q.q.",
"H L H H M M b M B S i 2 T K f D 8 7 7 7 o.P ..H 4 0 4 6 zXxXxXxX[.).[.[.R.R.R.R.^.Q.~.).x n S Z - * & & 0 w t w >X,X>X,X9.0.6.q.",
" .A X.L z e b M S z.y S f F Y H 9 7 7 7 H *.P o.8 4 4 z zXcXxXxX[.(.[.[.R.R.E.R.~.{.Q.!.Z J 6.M * - Y & 4 4 w 4 iXiX,X,Xq.n.c.9.",
"H L G H m M b n u S y A f K f K 4 8 8 7 #.H X.L z 8 4 v zXxXxXzX[.).^.^.R.R.R.R.~.T.~.Q.Z Z J 4.& & * * w w w w <X;X>X,Xw.e.9.e.",
"|.s.@X|.h { { j $X@XoX$Xv F w v D.D.S.P.1XB.rX3XrX4XtXrX7.9.9.8.9 < $ $ H K Q ~ $X0X%X$XZ.tXN.V.j.4X5Xj. X8X+X X..H ~ Q ) ! ` ! ",
"&X) ) $.h s { j @X@X@X$Xv b D K U.Y.D.U.oX4X2X2X3XtX3XtX8.f.q.f.o o   $ H F H Q #X9X%X%XB.B.N.V.sX5X4XaX XOXOX-XH H F Q ! ! ! ! ",
") ` &X$.h j j { $X$X$X$XF v w v Y.D.D.D.1X4X1XtXtXtXtXrX6.7.7.8.9 $ 9 9 F P H F %X6X&X%XV.Z.tXB.4XoX6Xj..XOX+XXX~ H H ( ! ` ` ! ",
"oXoXoX#...g g g oXoX|.|.D b D F D.D.D.S.N.3X1X1X3X4X1X2X9.a.9.a.  > > 9 G K ~ P %XiX<X|.Z.B.B.Z.sX5X4XaX|.+X2X.XF F H ( Q _ ) _ ",
"      o o.#.}.#.#.#.^ ( H H F ~ u.t.u.r._ g.g.f.F Q F ( d h h h yXyXyX+X+X+X}.|.}.n.c.+XcXSXSXAXE.`.A.A.M.*X X-X+X+XOX}.k 6 6 6 ",
"3 3 3 < }.|.}.}.H T h *.T ..h h u.u.u.u.s.p.k.p.! R Y T h ..h h +X$X+X$XXX|.oXoXc.n.n.c.AXkXkXAXE.E.E.`.v..XOX-XXXXXOXXXk k 5 6 ",
"3 3 < < }.a.|.}.*.H *.T H h H H t.3.y.3.a.f.f.s.Q Q Y R h h p h ,XyXyXyX}.oXoX+XO.n.c.9.AXcXAXAX`._.E.`. X$X.X XOXOXOX1Xk 5 k c ",
"  I 3   }.|.( }.~ H ~ H ~ H H K u.u.3.u.) k.p.a.F Q Q f H h h T $X2X$XyX|.OXXXXX Xn. X}.cXcXcXkXA.A.`.`.v.*X+XOXoXoXXX+X5 k k 5 ",
"}.a.c.XX6 6 k 6 K / L K V u V t <.1.n r.t J L D r r p r h g G  .FXcXAXSXHXIXPXIXUXnXVXbXjXF.I.jXU.L.L.L.E.R.T._.G G F G X.c.X.o.",
"a.q.XXXX6 : M 6 / / a.( N u | V <.C 4.<.g D D A & r p 4 H g h G DXcXDXGXIXPXIXHXnXnXnXUXjXF.I.I.P.P.L.L.E.R.~.E.d f F F L x.8.c.",
"}.9.XXf.k 6 6 8 P K P / N u y t 1.<.M M G A D J r & & r h H H H GXDXCXGXIXHXHXIXVXnXnXnXI.jXjXF.H.L.U.L.!.E.E._.h f F H X.X.x.x.",
"XXn.9.9.w 6 6 6 K 7.f.E | t S A 1.1.1.0.d D G D r d j t G G G F SXcXcXDXPXKXPXHXnXUXnXDXgXP.U.hXL.L.L.L.!.T.T.R.G F D G P o.X.X.",
"L L o.}.$XyXiXiXU : : 2.bXzXfXfX_._._._.o.( P }.H P P F D z z v Q W W y.R._./.~.L.].'.'.y.2.m J T T T ^ _ / / p.v.2Xn. X>X>X;.>X",
"#.c.X.o.<XiXiX,XU 3.t.: zXfXfXzX/._././.P _  .~ P 9.a.9.z k k z E W E U ~.~.~.W.'.].].'.b V B K { >.>.>._ / / p.N.B.N.OX=X=.:.;.",
"X.c.L P iX,X<X,XM 3.: : zXzXfXzX).[.~.~.( #.X.( 9.9.a.9.z v k n W W E W /.T.~.~.'.].].'.b J D v ^ ` >.^ p.i.~ i.N.N.N. X;.:.:.;.",
"9.c.X.X.iX<X,XiXu.t.u.u.fXfXfXfX_.)./.T.}.~ H a.P ( P a.z v k M b W W W ~./.~.~.'.'.'.'.D n K F >.T >.>.p.p./ p.OX1XN.XX=X;.;.>X",
"G G H G x.m.m.c... .O.O.- 0 a 0 d t t d D F F d t t i 8 6.6.6.J L P ..L c.0.x.x.&..X XOX1XN.1XB./ p.p.i.B y V A 2.y.E E i.s./ p.",
"L G H ..X.x.x.X...} { ..= 0 0 0 t i t y d G G G t i r t 8.1.w.w.P P P X.8.b.0.z.XX X X XOXtXB.tXi.u.p.K V y y V 2.y.m y.i.f.a.9.",
"g d d G | m.x.O.O.{ O.{ r & p 0 t N t t G G F F t r t z 6.w.w.w.P H X.L b.0.z.z. X X XOXN.N.tXB.p.p.p.7.G y y V E y.W E i.i.i.i.",
"H H G H c.m.c.c.....O...p a - & D B V B K F D D B t G B J Z A A L  .L X.8.8.c.9.OX.XOXOXOXOXOXOX7.2.i.P J V V V E E E K p.i./ / ",
"d t t D M n n n n x A D f - - s < 5 5 l g.6X9X0X8X6X8X+XO.| X.O.X.x.x.P ~ ^ ^ ( H H H H D D G F D D D D J D J D A | |  .X.P P X.",
"D G D v m 2.y.2.1.<.<.z f - @.- c c c k 6X6XwXk.qXqXqX8X .[ [ [ x.x.x.o.( ^ ` ^ P ..o.H H f a f V t u B J n m m | | | } ..~ H ..",
"d d t D m y.2.3.1.1.<.z s - - - 5 c c c 6X0Xh.qXwXqXqX8X .[ [ [ X.x.x.X.^ ` ` ^ P P P H f a f a V t u d J K m F u } } V H ^ ~ P ",
"g d t D b 2.M n z n 2.B s - - { l 7 c c 6Xh.6X6X0XqXqX8XO.| ]  .X.x.x.X.~ ^ ^ ) X.L P H F F f f B V t u D m K D  .} | | H P P O."
};
