/* XPM */
static char *_564268549636[] = {
/* columns rows colors chars-per-pixel */
"64 64 230 2 ",
"   c #3F3439",
".  c #552D0B",
"X  c #592F0B",
"o  c #5B2E07",
"O  c #5B320D",
"+  c #59330F",
"@  c #4D2D18",
"#  c #552E13",
"$  c #592E19",
"%  c #582E16",
"&  c #4F331D",
"*  c #4F3014",
"=  c #553215",
"-  c #5C3413",
";  c #5D3913",
":  c #53341B",
">  c #5B361A",
",  c #56391E",
"<  c #5D3A1D",
"1  c #61340C",
"2  c #603206",
"3  c #613512",
"4  c #623A14",
"5  c #6B3C13",
"6  c #633C1C",
"7  c #663B1A",
"8  c #4D3524",
"9  c #4C362B",
"0  c #4B3628",
"q  c #533622",
"w  c #5C3623",
"e  c #543A23",
"r  c #5A3A22",
"t  c #523529",
"y  c #523A2A",
"u  c #5B3A2B",
"i  c #5A352C",
"p  c #463237",
"a  c #4B2D2B",
"s  c #613D22",
"d  c #603723",
"f  c #7C3F20",
"g  c #6E401B",
"h  c #79471E",
"j  c #5E4026",
"k  c #644225",
"l  c #6E4A23",
"z  c #6D4B2D",
"x  c #684628",
"c  c #754523",
"v  c #7A4524",
"b  c #744B26",
"n  c #7B4C24",
"m  c #73462E",
"M  c #744D2C",
"N  c #7A4E2B",
"B  c #6E542F",
"V  c #7B5225",
"C  c #75522D",
"Z  c #7C522D",
"A  c #7C5C2C",
"S  c #775126",
"D  c #6D4D33",
"F  c #6B4E39",
"G  c #664F32",
"H  c #734D32",
"J  c #7B4C34",
"K  c #724E3A",
"L  c #7C4C3A",
"P  c #754730",
"I  c #665534",
"U  c #6C5235",
"Y  c #67533A",
"T  c #6C523C",
"R  c #6D5A3B",
"E  c #675936",
"W  c #755234",
"Q  c #7B5433",
"!  c #765835",
"~  c #7E5A33",
"^  c #74543B",
"/  c #7B543A",
"(  c #75583A",
")  c #7D5A3C",
"_  c #7F6131",
"`  c #6F4F40",
"'  c #774C43",
"]  c #6D5342",
"[  c #6C594A",
"{  c #675749",
"}  c #735442",
"|  c #7B5341",
" . c #745941",
".. c #7B5B44",
"X. c #7B5E4C",
"o. c #715A48",
"O. c #645A51",
"+. c #7D6344",
"@. c #7E644C",
"#. c #77614C",
"$. c #7D6253",
"%. c #7E7C6D",
"&. c #7F7B72",
"*. c #82481D",
"=. c #814424",
"-. c #804C2A",
";. c #804C25",
":. c #815223",
">. c #82532D",
",. c #814C39",
"<. c #804E34",
"1. c #815533",
"2. c #835A34",
"3. c #8F5E36",
"4. c #815239",
"5. c #835B3A",
"6. c #8D5F39",
"7. c #905F37",
"8. c #8E623D",
"9. c #8C693D",
"0. c #87683A",
"q. c #9B6333",
"w. c #94653D",
"e. c #99653B",
"r. c #936A3C",
"t. c #9B6A3C",
"y. c #936834",
"u. c #906C32",
"i. c #A96A3E",
"p. c #A56A3D",
"a. c #815745",
"s. c #846344",
"d. c #8D6443",
"f. c #846941",
"g. c #8E6A45",
"h. c #85644A",
"j. c #8C654B",
"k. c #87694C",
"l. c #8D6A4C",
"z. c #936643",
"x. c #9C6641",
"c. c #946A45",
"v. c #9B6A44",
"b. c #946649",
"n. c #9C664B",
"m. c #946C4B",
"M. c #9A6D4A",
"N. c #94714C",
"B. c #9B704D",
"V. c #977341",
"C. c #8D6C52",
"Z. c #876955",
"A. c #936E52",
"S. c #996D53",
"D. c #966856",
"F. c #8A7357",
"G. c #957253",
"H. c #9A7252",
"J. c #91715C",
"K. c #8F7544",
"L. c #A16545",
"P. c #A26C44",
"I. c #A96A41",
"U. c #A06B4B",
"Y. c #A27149",
"T. c #A57247",
"R. c #B97E46",
"E. c #A67E5C",
"W. c #AA7E5B",
"Q. c #A87A51",
"!. c #B57E5A",
"~. c #BD7D5A",
"^. c #B87E55",
"/. c #967D67",
"(. c #987C66",
"). c #847D73",
"_. c #8A7B74",
"`. c #867D7C",
"'. c #887C7C",
"]. c #897A6C",
"[. c #A27E62",
"{. c #AB7F64",
"}. c #7E8476",
"|. c #B8823D",
" X c #B48245",
".X c #B68247",
"XX c #AE8354",
"oX c #A6845D",
"OX c #AC825D",
"+X c #A58A5D",
"@X c #AB895D",
"#X c #B48355",
"$X c #BA8455",
"%X c #B28854",
"&X c #B4845C",
"*X c #BB855B",
"=X c #BC895C",
"-X c #B38C5D",
";X c #B6915D",
":X c #AF824B",
">X c #96806F",
",X c #89847E",
"<X c #948172",
"1X c #92897E",
"2X c #958779",
"3X c #83826E",
"4X c #A48165",
"5X c #AC8462",
"6X c #AD8B64",
"7X c #A98669",
"8X c #AC896A",
"9X c #A28169",
"0X c #B38662",
"qX c #B48964",
"wX c #BA8A63",
"eX c #B48D69",
"rX c #B98D6A",
"tX c #B98361",
"yX c #B69365",
"uX c #B59269",
"iX c #BA916A",
"pX c #AF947E",
"aX c #B49275",
"sX c #B1957D",
"dX c #B99172",
"fX c #C2825A",
"gX c #877D86",
"hX c #7E8487",
"jX c #8A8986",
"kX c #928B84",
/* pixels */
"$X$X$X$Xy.0.8.y.g.b.n.A.U E R T M Z M n @X%XXX%XF.J.C.C.g.r.r.9.R R } ( H H J J < j < ; ! ! W ! b c N b 0X0XeX0XK W W W 5X5X0X{.",
"$XfX^.$Xy.u.u.y.m.b.b.m.U R R Y S Q C M XX%XXX%XJ.J./.A.b.9.c.c.R  .] ( W Q H J < s s < ! W ! ! v v v c tXeXeXeXW C W Q 5X0XtX0X",
"$XfXfX$Xy.y.8.t.b.M.n.G.B E I R N N M n %XXX%XXXJ.C.C.l.M.r.t.9.U o.}  .H W D J < ; > , ( W ! W c v N v tX0X0XrXW W W ~ W.OX5X{.",
"%X$X%X.Xy.u.u.e.b.m.m.j.! E U U N N N N #X%X#X#XF.F.F.F.f.9.c.c.(  .( ^ W H H Q < < 6 s W W ! W M c c N 0XrXeX0XC W ( / E.OX5X0X",
"L K ^ | D.D.D.D.6 > 7 6 W ~ / Q v v f f P.p.p.p.)._.).].u i w u H H H Q E.@XOXOXb.G.m.b.H m m P 0XeXeX5XN.g.b.N.= = # . 7 4 ; ; ",
"Y Y Y D D.n.U.n.w = > - 1.Q 2.-.=.=.=.*.i.p.i.i.&.`.&.<X9 i t u J M J N &X@X&XOXb.m.m.m.m P m J 6X5X6X8Xm.N.K.m.# $ $ # 6 ; 4 4 ",
"F Y R K D.n.n.U.> 6 6 > 1.Z 1.1.=.f =.f I.p.i.I.3X%.%.].y u r w M J J M OXXXOX@Xm.b.b.b.M J P m 6X6X6XuXg.M.g.N.$ $ $ # ; O O ; ",
"` ] F F D.U.n.D.6 < > ; Q 2.Z Z *.f =.f p.i.I.p.}.%.).].y t u u J J H M 5X@XoX@Xm.g.m.m.m m J P qXeX6XqXN.N.m.N.$ $ = * g ; ; ; ",
"!.!.!.0XW ' ^ } b c S l 9   p p dXiXyXuXW ' ^ ^ / H / / J N 1.,.*XfX$XwXN J W Q Z Z Z 1.Z >.Z A : @ & & < < 6 w 0XwXwXrXz D U D ",
"!.^.!.!.J K K K c c h l p p p p iXyXyXuX| ' ' ^ / W H L Q 1.N N =X$X$X=XN / K M >.1.>.>.:.Z Z :.: & & # j > > < wXwXwXiXM U D D ",
"!.^.~.{./ K K / S V n l p       uXyXuXuX' ' ' ' W ( W / N N N Q =X;XfX;XJ H K Q N >.Z N >.Z Z Z & & & & k > 6 w &X=XwXqXC z D W ",
"&X&X!.W./ ^ K U g h b l a 9 9 p uXuXuXuX/ L L / W / / H ~ Q Z / =XfXfX&XQ H H Q 2.2.>.Z 2.>.V V & & @ @ k < , > iXwXwXqXW K H D ",
"m.M.c.B.) @.h.h.iXiXiX-Xa./ } ' K.+.f.f.X 3 3 X M z D K 6X6X6X6Xp.t.t.p.9.j.j.j.b l z S g.K.M.M.F ` } } (.4X4X9Xr.w.r.c.z K W W ",
"m.B.N.N.+.+.+.+.qXeXuX-Xa.4.2.4.f.f.f.9.O 1 2 2 W z H z 6X6XuX6Xt.t.t.c.j.j.j.j.b m l M K.M.K.g.' ] ] ] E.>X4XE.c.x.r.v.M W H H ",
"N.m.m.N.+.@.+.f.yXuXiX;Xa.1.4.4.+._ 0.9.O 2 2 2 z D K M 6X6XuX8Xt.p.t.v.b.h.j.m.l l b b b.K.M.M.] ] ] ' 9X4X4X4Xr.r.w.c.J W / J ",
"m.M.B.m.s.+.+.f.;XqXeX-Xa.1./ / 0.+.f.d.O 2 1 3 H D z z 6X6X6X6Xt.t.t.t.b.j.a.b.M b M l m.M.c.K.] ] ] ` 9X(.[.4Xr.r.w.c.C W J H ",
"m.K.l.K.z M D M g.l.b.g.6X+X+X+X> w w > c.t.r.r.! U U B Z N n V j.j.C.j.g O 1 ; ..| ....$.$.$.$.H C C C K.l.m.l.r < w d n :.:.V ",
"l.g.g.g.M M M M l.g.b.g.6X+X+X+Xw q q > v.t.r.r.U E I B N ;.-.n C.h.j.k.O O 1 o | ( ( } X.$.$.$.W C C C N.N.A.m.w , w d n V :.:.",
"g.m.g.N.m M M H g.b.b.c.+X+X+X+Xw e , < M.v.t.v.E E E B N -.-.n Z.j.C.l.O O 4 4 X.| | X.X.$.$.$.C C C W g.l.l.g.w > w w V :.:.:.",
"l.l.l.l.z D D D g.z.c.m.+X+X6X6Xw w w 6 z.r.r.r.U U U U W N N N Z.Z.C.+.g O O O } } } X.X.$.$.$.C C C ~ l.m.N.N.d w w < :.:.N n ",
"( ( ( ( q & 8 q U.U.n.z.V.g.g.0.J J J J m.M.g.K.w w w < w < w < : : q < Q 2.2.2.( ^ K F t t 8 8 ! ~ Q Z W M M m D z F L XX#XtX&X",
"} } } ] 8 8 0 0 L.L.L.L.v.c.c.M.J ,.,.L g.f.f.g.w w w w w e r e q q q # 5.Q Z A F F D F q t t q C Q 2.Q Z C W Q K H F J #X%X&X#X",
"} } } o.8 8 8 0 L.L.L.v.b.c.m.c.J ,.,.J g.l.l.m.w w w w r e w e 8 q q : ) 1.4.5.^ ^ U ^ q 9 8 8 Q Q ~ Q M M M M K H F K %X&X&X&X",
"K / ^ ] & 8 8 0 L.L.L.v.c.c.V.b.J J L J j.l.g.m., < w w e r w w : : 8 , Q 1.1.~ F T D T 8 y 8 8 1.>.Q Q M M Q M D z K H #X#X!.&X",
"&X~.~.tXz I U H Q / / 4.<.<.,.,.gXgXhXgX( Q 4.Q <.<.J N #X#XW.!.5XoX@X5X/ | | 4.{.5X{.{.qXeX6XyXP H J H S.A.A.H.M V S S A.m.S.m.",
"fX~.~.tXM U G D / / / 4.Q >.>.>.&.}.}._.( Q / / J L ,.<.&XQ.#X&X7X6X5X7X/ | | | E.4XE.oX6X6X6X6XJ H P H H.H.S.H.S S S Z H.S.S.S.",
"~.fX~.tXz U I U | | / 4./ J Q J hXhXjX`. .Q L Q ,.J ,.J 0X!.%X^.oXOXoX5X/ | | 4.4X5XoXoX8XqX6X6XJ H M J m.S.A.M.C S Z S m.S.m.m.",
"!.~.!.{.H F G D ,.4.4.4.4.,.4.4.`.`.'._.X./ / 5.L N J <.W.#XOXXX5X0X5X5X4.4./ a.W.5XW.OX6XqX-XqXm m M / m.H.H.H.N Z S Q m.J.G.G.",
"Q N C ! K ^ } T .X X|. X%X%X&X#Xg.K.N.N.f.s.a.b.1.2.A Z C Q M J c.r.r.z.3 = - - c.M.z.c.v.v.v.v.W Q M M ~ J Z N c.c.b.d.C.j.h.j.",
"C C C U } } o.] R.|.|.fX$X=X&X&Xt.c.V.r.b.d.d.j.A _ A 0.M K H W v.v.x.r.3 - O O x.v.x.x.v.L.L.t.M N N M C Q Q Q b.M.b.g.l.C.l.l.",
"C C ! ! ^ ` ] ] R.R.i..X&XtX0X&XN.G.B.M.b.j.8.j._ A A ~ M / W H x.x.t.z.O ; O O x.c.x.x.P.L.L.L.Z M M Z Z Q Z Z b.z.d.g.l.l.k.k.",
"Z A S W ^ } ] ] R. X|..X#X&X0X%Xr.N.V.r.C.h.d.j.~ A A ~ z H W M n.P.t.c.4 ; O O c.r.c.t.v.v.t.n.S N M C Z Q Q Z m.b.b.g.l.C.k.k.",
"c.z.M.m.M H ! W ;.>.>.N m.g.m.C.U W H H m.m.b.c.F T F D j < , ; W Q / N C.l.l.m.v.M.m.M.N 1.1.Z v n M b N n N Z 6 6 7 6 M J C M ",
"v.c.9.g.M W W D :.V Z Z m.g.l.l.H W W H m.b.m.m.] ] T Y e , , < C Q A W A.l.C.C.M.v.v.M.N Z Z >.b Z M M V ;.n n 6 6 6 6 M N W S ",
"b.c.c.M.M W M W :.Q Q Z m.b.l.m.W H H H A.b.S.j.F ] Y F j e e r A N Z Z m.l.C.C.v.M.M.v.>.N :.Z m M b N N n n >.s 6 s 6 H M M M ",
"b.m.b.d.Q W M Q N N Z S m.g.g.b.W H W Q h.l.m.j.T U U G j , e , / Q / ) j.g.b.j.m.M.m.m.1.Z / >.M N n b Z Z Z 3.6 6 6 < Q C Q W ",
"C M M Z m.B.B.M.< - ; - Z M Q Z Q / / N 6 > > < , < 6 d z z H W D G G z Z n :.n W W ^ / l m l l *X=X=XqXdXaXsXdXx x x x l.l.C.C.",
"W b M M B.B.Q.m.= = > - Q C Z Z N ~ Q / = , $ , 4 3 3 - z D z z F T T W n *.*.*.U ^ K W G z H z =X=X$XwXaXpXsXsXk r k k C.A.C.A.",
"z M Q M B.B.B.T., = : - Q Z Q Q 1.1.Q ~ - < : , 3 3 - 6 z H H D D F T K V *.*.:.^ T W W M z z m 0X=X$XtXaXkXdXdXk k k k C.C.C.A.",
"W C M M H.Y.v.M.: : < = Q Z Z N -.N 1./ > = , , > 4 - < D D D Y J G U C h *.h n K U ^ K M z l M qXwX=XwXaXkXdXdXk k x k G.C.J.C.",
"( ( / Q d.d.w.w.U ^ W H 5X5X0X!.!.&XOXW.1.W H / &X&X#XOXM.m.G.m.: q & > eXeXtXeX0XwXwX7Xu y y y 6.6.3.w.z.m.m.c.jXkXkX2X) A ~ 1.",
"^ W W W d.b.z.z.( W W Q 5X0XW.!.OXOXW.5XQ / ( W &X&XqX0XH.B.N.G.: e e : eXqXeXrXeXqX0XeXe y 8 y 6.6.3.6.z.b.c.x.jX1XjX1X) Q / Q ",
"W ( Q Q d.d.z.a.W W M W {.5XOX0XOXOX5XeXH H W W #X&X0XOXM.m.m.B.& & : # dXrXqXrX0XeXeXaX: y y y 6.6.3.6.c.m.m.c.kXkXkX1X) Q ( / ",
"W W / ) f.d.b.c.Q Q Q Q W.OX5XW.OXOXW.W.1.Q N / qXqX0XW.H.B.c.B., q q < 0XrXwXwX7XeX7X9Xe y e e z.w.y.8.m.b.g.b.1X2X2X2X5.Q / Q ",
"C.m.g.h./ W W W N M M N m.m.M.N.M.M.c.B.#X0XtX&XM b N >.6.w.z.w.@.@.@.+.N.r.x.z.j.l.g.l.U ] ] ^ 3 5 5 7 5.s.g.d.] T { { X X = X ",
"l.l.l.l.( / W ( Q Z Z Z c.K.m.m.M.v.c.w.wXwX*X*XZ M M Z 9.z.w.w.@.@.@.F.d.w.t.z.k.k.h.X. .T T U 5 5 f 7 8.j.s.s.F G Y T o o = X ",
"N.m.l.l.( ^ } T n N n Z b.N.m.l.m.M.M.M.&X&X*X*XW M M N w.w.w.7.$.#.@.f.g.x.x.w.@.k.k.h.^ T T ^ g 5 5 5 d.h.h.d.T W ] R X X * . ",
"m.l.l.l.W ( T } n Z N Z c.N.N.l.A.b.b.B.&X=X=X%XH W N N d.w.e.e.@.$.$.@.c.w.w.r.Z.@.h.k.U ] ^ ! 5 5 g 7 d.h.h.h.T U Y E . X * = ",
"C z U H s j e r M.c.c.M.b Q Z C s.d.d.d.M.Y.v.T.5X5XoXoX2.1.>.3.M K Y F Q Q W ! G z z W C ~ Q Z :.n Z J Z Z ~ W 0XwXwXqX0XqXqXqX",
"C C W H r w < r c.c.c.M.S C Q Q 8.b.8.z.Y.Y.t.T.5X7X5XoX2.:.>.>.U Y Y D ) ~ ~ ) D G z z W Q Q W V N 1.Z 1.>.1.Q *X0XqX&XtXqXqX0X",
"M M z z s < < r M.c.M.c.M S M M w.z.8.w.M.T.T.T.oX5X5X{.2.1.1.2.T T Y ^ W Q C Q G W W z ( W W Q N N Q N 1.N 1.Q qXqX&X0XwXqX0XqX",
"W W H z k s 6 > c.m.m.g.Q Q Z Q 8.d.d.z.M.M.M.Y.5XOXE.E.2.1.1.~ D U F ( W ) ( ) z z x W m ) Q Q Q Z Q b 4.>.:.Z 0XqXwXqXqX&XqXwX",
"D W W / d.j.g.b./ Q ! Q M b M b Z Q Q Q Q Q Q W d.8.d.m.8.g.b.g./ ~ W K e q : & qXrXrXeXO . . X Z Q Q 2.OX#X&X0Xw.d.8.z.w.w.w.w.",
"W W W Q d.d.z.z.W ( Q Q M C N N J Q ~ Q W D W W z.8.8.g.d.g.g.s.Q Q Z Q e e y y wXwX0XrX. O X . ~ Q W Q 0X*X*X!.d.8.z.w.w.w.e.w.",
"W K M C d.c.c.w.( ( W Q C b M b >.Q Q Q W W ( ^ w.8.8.d.g.g.l.k.Q Q Q Q q 8 8 q wXwXwXrX. X . + W ( W Z &X*X^.*X8.d.8.z.w.w.w.e.",
"W ^ W J z.z.w.w.( ( ) W C m N n 1.N A Q W W ( U 8.w.w.d.d.j.l.l.( / Q / q q q , qXrXrXeX# . # = W / / Z 0X$X$X&Xd.z.z.z.w.w.z.e.",
"G.G.G.B.M n n n : : : - 7X5X5X5XC Q Q Q : : & : 5.) ) +., e e e 8X8X8X5X&X#X#X$XC D T D m.m.m.A.n n n b M z U z b.m.c.m.S.G.N.M.",
"G.G.G.m.b n n v = > = = 6X5XOX{.Z Q W W : : & : 5.5.5.) , , e y 7X7X8X5X#X&X$X#XW U T W M.B.S.m.n n n N W H U W v.r.x.m.m.H.G.H.",
"G.H.G.B.N b n b = > - = 0X5X5X5XQ W W W = : : & ) ) ) ) , , , e 7X7X8X5X&X#X$X$XW Y U W m.m.M.c.v v n b z z D z v.x.c.M.M.H.G.A.",
"N.H.B.M.C S b N - # + - [.5X7X5XW Q W ( : : : : 5.+.+.+., , q q 7X7X5X0X#X^.#X^.D K W / l.m.H.G.n V n n M W W M j.l.l.G.m.A.H.G.",
"M.m.b.c.b M M M 0XeXeX5XH.l.m.G.l.l.C.l.D D z D /.>X/./.] R T T m.m.m.m.e.q.q.e.1.1.>.H / D G F c.w.t.z.g.l.g.j.o.o.o.F < - X X ",
"w.g.c.g.z M M U qX5X0XqXm.m.G.l.l.C.C.C.H W W U <X<X>X>X] ] ] T m.m.m.c.e.q.q.q.>.>.2.A ^ Y ] ] c.t.x.c.b.l.m.m.{ O.O.{ : X O - ",
"z.c.c.b.M C H W tX0XwXeXm.m.G.F.C.C.C.l.D W H W <X<X>X/.] U F U n.m.M.v.q.q.q.q.1.>.>./ D Y Y F b.r.c.z.g.g.j.g.O.O.O.o.> X X = ",
"r.r.c.g.z W z D wX*XqX0XA.g.A.A.C.C.k.l.W H D M <X<X>X/.} T T ^ m.n.m.x.q.q.q.q.~ >.>.~ D F U K c.t.c.x.m.b.b.b.] { O.o.# X - > "
};
