/* XPM */
static char *_564268555976[] = {
/* columns rows colors chars-per-pixel */
"64 64 247 2 ",
"   c #05690D",
".  c #027B03",
"X  c #027B0B",
"o  c #07760A",
"O  c #086D16",
"+  c #017C14",
"@  c #017B1C",
"#  c #067517",
"$  c #177113",
"%  c #196D15",
"&  c #037726",
"*  c #464E3B",
"=  c #534C3C",
"-  c #55543C",
";  c #56563B",
":  c #49543C",
">  c #4B633A",
",  c #3D4F45",
"<  c #524C44",
"1  c #4A5A4D",
"2  c #485847",
"3  c #54524C",
"4  c #5C5B4C",
"5  c #575748",
"6  c #504E51",
"7  c #4C5757",
"8  c #525352",
"9  c #5A5B53",
"0  c #535C5D",
"q  c #5C5C5C",
"w  c #595757",
"e  c #4B4D48",
"r  c #63554D",
"t  c #645454",
"y  c #635D54",
"u  c #635C5C",
"i  c #6B5C5C",
"p  c #675858",
"a  c #725B5C",
"s  c #654D48",
"d  c #47614A",
"f  c #59624D",
"g  c #4B6757",
"h  c #546353",
"j  c #5B6455",
"k  c #54635C",
"l  c #5C635C",
"z  c #586B58",
"x  c #527157",
"c  c #64635C",
"v  c #6A645D",
"b  c #646A5C",
"n  c #6A6A5C",
"m  c #646655",
"M  c #776856",
"N  c #76745A",
"B  c #6F6B54",
"V  c #5B5D62",
"C  c #565965",
"Z  c #555A77",
"A  c #4E5668",
"S  c #645C65",
"D  c #645C69",
"F  c #695967",
"G  c #735866",
"H  c #655C74",
"J  c #7B5E73",
"K  c #4C6464",
"L  c #4D6467",
"P  c #546363",
"I  c #5B6463",
"U  c #5B6B64",
"Y  c #586669",
"T  c #5A7367",
"R  c #5C6472",
"E  c #5D7A76",
"W  c #646463",
"Q  c #6B6463",
"!  c #636B63",
"~  c #6C6B64",
"^  c #64636B",
"/  c #6C636A",
"(  c #656B6C",
")  c #6B6B6C",
"_  c #756D63",
"`  c #72646D",
"'  c #736C6C",
"]  c #7B6C6B",
"[  c #766764",
"{  c #657365",
"}  c #6B7464",
"|  c #64736C",
" . c #6B736B",
".. c #67796B",
"X. c #747365",
"o. c #74736C",
"O. c #7B736C",
"+. c #75796C",
"@. c #7B7A6D",
"#. c #797764",
"$. c #636473",
"%. c #6C6574",
"&. c #6C6B73",
"*. c #6A657A",
"=. c #736D74",
"-. c #7A6D74",
";. c #736C7C",
":. c #7B6D7A",
">. c #756373",
",. c #657372",
"<. c #6C7273",
"1. c #6B7B7C",
"2. c #697979",
"3. c #737374",
"4. c #7C7375",
"5. c #757C74",
"6. c #7C7B74",
"7. c #74737B",
"8. c #7A747C",
"9. c #747C7C",
"0. c #7B7B7C",
"q. c #825D73",
"w. c #836B6C",
"e. c #836569",
"r. c #84736E",
"t. c #85776F",
"y. c #826B72",
"u. c #846878",
"i. c #847373",
"p. c #827C75",
"a. c #83757C",
"s. c #837B7C",
"d. c #8B7B7B",
"f. c #8A767A",
"g. c #91797C",
"h. c #02821B",
"j. c #00800B",
"k. c #7C815A",
"l. c #6C8967",
"z. c #7C8366",
"x. c #6D8379",
"c. c #738373",
"v. c #7E8275",
"b. c #74837C",
"n. c #7C817C",
"m. c #72887C",
"M. c #7F9A7B",
"N. c #57B37F",
"B. c #03DD5A",
"V. c #08D95A",
"C. c #14DD5B",
"Z. c #14DA57",
"A. c #0CCC5D",
"S. c #04E25A",
"D. c #14E25A",
"F. c #0CDC6B",
"G. c #07D867",
"H. c #13DC64",
"J. c #13D46A",
"K. c #14DC6B",
"L. c #19D967",
"P. c #0AD871",
"I. c #16D973",
"U. c #13CD6F",
"Y. c #24D86B",
"T. c #0AE269",
"R. c #14E16A",
"E. c #0AE175",
"W. c #13E073",
"Q. c #25DC5E",
"!. c #82817D",
"~. c #8B827D",
"^. c #818176",
"/. c #93857D",
"(. c #838F74",
"). c #7B6C83",
"_. c #766A82",
"`. c #6B7B81",
"'. c #6B7785",
"]. c #7C7483",
"[. c #747C82",
"{. c #7C7B83",
"}. c #7C7C8A",
"|. c #787787",
" X c #6A6F85",
".X c #775B81",
"XX c #837484",
"oX c #827B83",
"OX c #82768B",
"+X c #837C8A",
"@X c #8A7986",
"#X c #9C7D8A",
"$X c #937D8B",
"%X c #8A7286",
"&X c #6D8281",
"*X c #758182",
"=X c #7A8283",
"-X c #7D8B85",
";X c #74838A",
":X c #7C828B",
">X c #768C82",
",X c #7B938A",
"<X c #7D8393",
"1X c #58B483",
"2X c #50B485",
"3X c #838283",
"4X c #8A8484",
"5X c #848B86",
"6X c #83838B",
"7X c #8B848B",
"8X c #848A8B",
"9X c #8C8C8C",
"0X c #8B8B84",
"qX c #92848C",
"wX c #938B8D",
"eX c #968788",
"rX c #8A9583",
"tX c #83938C",
"yX c #8C918D",
"uX c #869B86",
"iX c #91918E",
"pX c #858C93",
"aX c #8C8C93",
"sX c #898597",
"dX c #928C94",
"fX c #998C94",
"gX c #948C9B",
"hX c #998797",
"jX c #8C9292",
"kX c #849591",
"lX c #939195",
"zX c #979199",
"xX c #908E97",
"cX c #BAFEDA",
"vX c #CDFEDC",
"bX c #C2FDD5",
"nX c #D3FCDC",
"mX c #D9FCD7",
"MX c #D2FDCA",
"NX c #E6F5DD",
"BX c #E4ECD9",
"VX c #CAFDE7",
"CX c #D7F9E7",
"ZX c #D9FCF5",
"AX c #D2ECE3",
"SX c #E5F4E2",
"DX c #E7FCF4",
/* pixels */
"d.d.g.s.+.{ .. .+. . . .3.=.<.<.4.i.p.6.8 6 8 8 H $.F H  .1.7.5.T z T z eX/././.}.[.{.].' ' ' ] 5.+.5.6.( <.<.) o.+. . .n.b.*X*X",
"d.d.g.d.+.} } +. .! {  . .<.<.,.p.p.s.4.3 6 8 8 H $.F H 5.|.7.7.z l T U /.~././.|.|.}.[.3.O.O.] 5.o.+.+.) ,.<.( +.+.+. .=X*X*X*X",
"d.d.g.a.+.} }  . .{ { ..<.<.<.<.4.a.a.u.8 8 8 8 F H H H 5.<.;.9.T U T z /./././.{.|.}.8.' ' O.' +.+.6.+. .( <.<.X. .} +.n.=X*X*X",
"d.@X@Xa.3...+.<.{ { { ..( &.7.<.s.s.a.>.w 1 6 3 H H F .X..1.0.5.T U U I rX/./.eX{.{.{.9.3.' o.' 5.5.5.5.<.) &.&.+.+.+.5.9.{.[.5.",
"].XXOXOX9.x.b.b.rXrXrX0X=./ / ) 6 t F C 3 8 w 9 nXmXmXbXQ.C.Z.Z.F D S S yXtXuXkXlXdXzXzXiXiXiXyXP g 7 Y }.+X+X+X4.s.6.8.8.8.7.4.",
"}.}.OX}.`.&X&X[.rXrX(.rX/ ` / ` F t 6 F 9 0 9 9 CXnXNXnXZ.S.D.Z.F D F D kXkXkXkXzXlXzXzXiXiXiXlXK K g P +XsX$X@XXXs.d.d.4.=.:.-.",
"}.|.OX}.[.x.`.1.rXuXuXyXQ ` / ` t C w q 0 w 9 9 nXnXCXCXZ.S.D.D.D C F D kXkXlXyXzXfXzXlX9XrXyX9XP K K P +X$X+XsXa.d.s.d.=.:.-.4.",
"OXOXOXOX[.&X*X*XuX(.(.yX~ ` / ` C S S w 9 9 9 4 mXnXnXnXD.Z.Z.C.F D F F kX,XtXkXzXdXzXzXyXwXiXjXP k g K 7X+X+X+XoXa.a.oX-.:.-.-.",
"=X0.!.n.P I I l s.XXa.a.i.i.i.i.Z Z Z Z  XZ H *.Z.D.D.S.o + X @ u.a.u.a.=.&.&.*.3Xs.s.n.0.n.b.b.b I Q ~  .{ +. .:X=X!.3X9.8.{.0.",
"n.v.0.n.I Y I I a.8.XXa.y.i.r.f.Z R  XA H H H *.D.Z.Z.D.o X X . u.u.%XXX%.&.&.*.oXs.n.oX0.n.0.5.Q b W c @.#.O.+.3X3X3X3X0.8.8.4.",
"6.!.^.3XV I P R XXoXa.a.i.i.r.y.Z Z Z C H %.H *.Z.Z.Z.D.. X X X u.%X%Xu.=.%.&.;.s.s.s.3Xn.0.n.0.v ! ~ u } X.X.} oX3X!.0.0.8.0.a.",
"v.!.oX0.U l k U XXXXXXa.f.i.i.i.Z Z Z R H  X*.H D.D.Z.Z.+ # # o 4.:.-.=.=.&.&.&.[.0.3X0.6.0.0.0.` W W [ { c.@.X.3Xn.n.n.{.{.9.8.",
"[.9.{.*XuXuXuXuX8.].XX8.p.p.p.s.N N N B * * , e m m c { =.7.1.1.v.c.c.v.=X+X+X+X<. . .( I l l l MXMXmXMXY.L.L.R.h h z l 9.=X:X=X",
"=X|.}.9.uXuXuXuX).].].{.s.^.^.^.N M N B , , , 2 B m m l |.). X_.l.l.l.l.=X+X+X+X,.,.,.| I q j q mXmXmXMXL.R.R.L.k h h k n.*X=X=X",
"9.{.}.9.uXuXuXuXXXXX].XXn.v.^.v.N M N n * , , , c b n W '. X X'.l.l.l.c.{.+X+X}.,.,.,.( W l c c MXmXmXMXL.R.D.R.h d h h *X=X-X*X",
"0.{.[.9.uX(.uXtXXX].].0.s.^.v.v.N B N N * , , * ! b m ! <. X|.3.c.l.l.c.3XOX3X3X,.,.<.( l l u l NXmXmXMXR.L.H.R.h h h z =X=X=X=X",
"N (.k.(.^.sX7XgXwXwXwXdX0 0 C 0 cXbXcXcXI.R.W.R./ W W / V F D S @.#.#.#.=.;.:.-.dXfXfXwXW l l c G.P.P.G.& O O # _ _ N ' W R U ( ",
"^.^.N (./.eX7XpXwXeXeXhX0 0 k 0 bXcXcXcXW.L.K.R.c a v p W D Y F #.N #.@.3.;.;.-.fXfXeXiXl U l l P.G.P.G.O O O O _ _ _ O.~ &.( ( ",
"^.(.B N $XgXsXsXeXeXeXwXw 0 C P cXcXcXcXW.Y.I.R.c Q ! Q / p S F N #.#.@.=.;.;.;.dXfXfXzXq l l l U.P.P.G.O & O @ _ _ _ ' ) ( ( &.",
"k.k.(.(.sXgX$XgXlXwX9X9Xq 0 0 7 cXcXcXcXY.W.W.W./ S V G C / D V +.#.#.O.:.:.:.u.wXdX9X9XW I l I A.G.G.A.@ O O # 4.O.O.) ) ( Y ^ ",
"'.2.2.7. X;.3.O.5.c.n.=X) ( ) &.C.R.T.L.j.o o X BXNXNXmXJ.G.G.G.U I I W J >.J J W ! I ( 6.!.!.!.F F [ ~ t y m 9 W W ! ~ 9.*X=X=X",
"'.`.'. X7.=.=.3.m.m.m.b.^ ( ) ^ K.L.K.E.o j.+ X SXAXBXNXG.V.G.V.I Y P D >.q.q.q.I k k q !.oXd.0.c u G y j 4 m r | ) ~ ) [.*Xb.9.",
"'.,.'.'.3.:.).:.m.m.b.b.~ ^ ) %.H.R.K.T.o X + + mXCXCXNXG.A.A.G.I Y Y V J J J q.I I I U 0.s.0.3Xi a [ a y 4 y y ( ( ^ ( =X*X[.b.",
"'.1.'.'.o.] :.] n.b.m.n.( ) ( ( H.C.H.L.X X + o BXNXNXBXG.V.V.H.q Y Y D J q.q.:.W l I ( 0.!.3X0.a G u i y y y 9 ^ ( ( ~ [.*X[.n.",
"$X#X#XhXeXfXwXeXoX}.{.{.u c c l ] ] e.e.5 9 r 4 C.V.R.S.# h.h.+ $.%.&.$.0.5.5.0.5X:X6X8X3.5.5.3.aXiXlXdXpXpXaXaXqX7X4X7X/ ) / / ",
"$X#X#XeXfXiXiXwXs.{.}.{.S u u S ] ] e.e.3 4 4 5 H.B.V.S.@ h.h.h.&.;.%.%.[.b.9.0.6X6X5X8X5.3.5.9.aXaXaXaXaXsXsXaXqXwX7XeX/ F Q F ",
"#X#X#X$XeXiXiXlX9.{.].0.S c u S e.e.e.e.5 4 r 5 V.V.H.T.@ h.@ h.%.%.%.%.[.n.b.[.:X3X8X6X<.3.5.3.zXdXdXaXaXsXpXsX7X7X4X4X/ F / Q ",
"#X#X#XeXeXfXwXwXoXoX].8.W c l I u.u.e.w.w 9 w 9 S.T.D.V.h.h.@ @ %.^ =.&.0.5.c.0.6X6X8X6X6.5.6.5.aX9XaXjXpXpXpX8XwXeXeX4X' / / F ",
"6.0.n.b.x.m.x.&Xa.a.XX@Xv.-X-X-X8.8.].8.K K K k v c b b 3 9 9 9 u u S w c j z c 7.;.2.7.3.o.o.3. . .~  .2.1.1.2.6.6.6.!.8.0.oX{.",
"n.^.0.v.b.m.x.m.f.f.f.@Xn.>X>X>X|.|.].].K K L L n m m j y 3 w 3 c u v y j h z j 7.;.;.&.8.6.6.5.{ n n ..2.x.x.2.!.v.^.^.0.{.{.0.",
"v.0.0.b.b.m.m.m.f.u.f.a.-X>X>X>XOX].XXOXL L A L m b ~ c y 3 w y y y u m m j m j 7.7.|.&.5.3.5.o. .{ {  ...x.x.2.v.@.6.v.0.oXoX0.",
"n.n.v.b.b.&X&X&Xf.f.%Xa.n.>X>X-X].|.].|.L L L L z n c c 9 w 3 w u u u c c j z j ;.;.;.=.0.o.O.6.) { n  .2.1.x...^.^.^.p.s.0.{.oX",
"5.c.b.5.aXdXdXaXfXhXfXfXc c c c Y P P V _.).).:.VXCXCXCXB.S.B.B.7 C 6 A e.w.r.-.x x x x y y p w 1.`.&XE dXqXsXwXaX9XjXyXtXtXtXtX",
"x.c.x.5.dXgXgXlXfXhXhXfXW c ! c P k k V _..XXX).VXVXZXVXV.S.B.B.A A A A u.w.O.w.d x x d a p p i &X`.&X`.gXqXsXdXyXaX9XjX8X,XtXtX",
"c.c.x.c.9XdXsXdXhXhXhXfXQ j c c I z k I ;._.)._.CXCXVXCXB.V.B.B.A A A A u.w.r.w.x x x g a u y p `.2.E `.dXdXsXhXyX9XyXyXtXtXtXtX",
"5.+.5.n.9XaXlXlXfXfXfXwX[ c c v C Y V H ;.).).:.nXVXvXMXS.B.S.S.6 6 w 7 :.w.4.u.d g g z 4 r i m x.1.x.x.eXqXaXqXwXwXwXwX8XtXkXtX",
"s.s.s.6.3.&.) ( r.( &.=.~ ] O.' z b z f ; ; ; ; E.I.W.E.% % $ % 1 1 1 1 ' ` >.` CXSXBXnXE.E.P.P.1 9 h 1 p t t p i.i.i.4.0.9.9.[.",
"g.g.f.d.3.<.<.<.+. .(  .O.O.] ' b ! b b 5 ; ; s T.T.R.E.$ # % % 2 > d 2 ` ` %.>.mXAXCXSXP.T.T.E.f j j 4 r s t s i.y.i.i.0.[.9.[.",
"g.g.g.d.) <. . .{ | <. .O._ ' O.m b { m - - - ; W.R.R.I.$ $ O $ d > d 2 %.%.%.>.CXSXCXmXP.T.T.G.4 4 f f r t t t r.r.y.i.0.9.|.[.",
"oXd.f.d.) <. . .)  .| ~ O.] [ 3.b { b b ; - - 5 E.R.T.E.$ % $ $ 1 2 1 1 >.J >.>.nXCXSXVXP.T.G.P.f 4 f f t s t t r.r.i.4.8.[.[.[.",
"f.a.a.s.0.=X=X9.pX8XpXtX2.1.`.2.{ <.=.&. .~ o.&.y 4 y r j j q j < 3 3 - ^ c I ^ H.L.L.R.      % C V P C ZXDXDXDXJ.J.P.G.[ n n b ",
"oXf.d.s.{.=X=X=XpXpXpXpX'.1.2.1.<.3.<.<.o.} X. .y y a B 9 h m j 5 3 3 = Y c l I C.H.H.T.        C 0 C L CXZXZXZXP.I.I.G.Q m b n ",
"a.a.s.s.{.[.*X0.pXpXpXpX9.1.'.`.) &.( ) ~ } } } p 4 r y h j j h 3 2 2 < R W W ^ L.H.H.H.  % O   7 I C A DXDXZXDXU.F.I.H.) m n n ",
"d.s.p.a.3X=X=X=XjXaXpX8X9.2.<.7.3.3.<.3.) o.} ) p c v t z g j l - s s ; D I V H L.R.L.L.O     O C A L Z DXDXZXZXT.F.H.A.| b v n ",
"~ v ~ Q 5.9.[.5.8.0.0.oX3X5X5X0Xs.d.s.oX=.=.;.=.oX].7.oXAXZXAXAXJ.P.P.P.gXfXhXgXY Y Y L ,.E T T } _ M _ V.B.V.Z.o o o h.< e 8 3 ",
"Q v v Q =X=X=X[.oXs.oX0.~.!.4X!.4X4X~.7X=._.;.;.].}.{.[.ZXZXAXZXL.Y.Y.W.hXaXgXhXY R $.L T T T | ] ~ ~ ] B.V.V.B.o . . X < 6 6 e ",
"n n n Q =X9.[.0.s.8.s.0.4X3X~.~.d.s.d.4X%.;.;.;.}.}.|.|.AXZXVXVXH.L.L.I.hXgXgXhXR R R Y 2.T | | Q ' ' G C.V.A.C.o . . o 2 6 6 e ",
"v n n c n.9.[.[.{.{.{.0.4X4X4X3X4X~.p.7X&.;.=.&.].}.|.|.AXVXCXCXL.K.J.Y.hXgXgXgXR R T R T | ..T _ ~ [ } V.S.B.V.. . . X e 6 6 6 ",
"}.}.}.;XG F G G 9 1 9 g _ } N { k k k k 2.[.7.`.8X8X8X0X2X1X1XN.j.+ . j.2 9 > 5 W l q l l z j j ~ ' ) ' w t w w P U U Y ;X;X;X<X",
";X}.}.'.J F F F g g k g } } _ +.h k g C 9.9.[.`.-X8X-X0X2X1XN.1Xo $ o o : 5 > d q q j l l j k z =.=.=.' S u S S U U U Y ;X;X;X;X",
"|.:X}.[.H F S H 0 k z 9 ..X._ { k P K P 7.9.`.9.5X5X8X5X2X1X1X1X. o o o d 5 5 5 I l I k l l l l ' =.) ` t C w q U U I Y ;X;X;X;X",
";X}.}.6Xt G a G g h 4 h } { ~ N 0 0 k U <.9.7.[.4X9X5X5X1X2X2X2Xo o . o > f > 5 q q j l l l l l ' ' ` ' S u S q U ( ( ( *X;X;X}.",
"$.$.$.K ZXvXbXVXU.I.P.U.v a a m 6X:X=X{.0.4.8.3.o.=.=.w.+.O.O.O.h 7 d d -.u.e.] ( ~ ( ) ) '  .' p.d.~.~.@.p.6.s.7X+X4X+XjXjXjXaX",
"$.Z R ^ vXvXnXvXP.J.U.I.s a i a {.:X=XoX8.4.:.4.] ] ] ] O.o.' O.w 7 7 1 w.w.w.] ) / / / ~ ) ' ~ p.^.t.~.p.s.s.s.qXqX$XqXaXjXaXjX",
"$.R $.( VXvXvXvXU.Y.A.U.a a i p }.:X:X3X8.-.-.4.] i.-.=.O.O.o.3.g g , g y.y.q.y./ ) ) ' =.' ' ' ~.^.t.~.@.0.p.6.$X$X$X7XaXjXjXyX",
"^ %.R H VXvXbXVXU.U.F.U.m a p a :X;X}.{.8.8.4.4.] ] ] o.] 3.3.3.7 , 7 7 r.w.e.O.~ ) ^ ( ( ) &.' d.d./.~.p.d.s.s.$X$X$X7XwXjXyXyX",
"B M M B L.C.G.J.& & & & = e * = ) ( | ) @.t.t.+.O.X.#.3.3.7.7.7.;X<XsX<X5.+.6.5.iXrXfXdXaXsXaXsXb.5.b.5.5.@.+.+.=.3.3.=.{.{.].oX",
"M M M e.J.A.A.L.& @ # & = < < =  .( | ) t.r.t.t.#.X.o.o.3.8.2.<.<X<X<X:X9.+.+.6.iX9XyXiX9X7XsXsX0.n.0.6.5.6.@.@.5.3.7.3.{.oX].{.",
"M a B a P.L.L.A.# @ @ & = = < * | | | ) p.r.r.r.O.X.#.o.3.3.8.3.<X<XsX<X0.o.6.o.iXyXiXaX8X9XsXaX0.5.6.6.6.+.+.+.=.=.=.=.{.oXOX{.",
"M M M M J.A.H.A.& @ @ & : = - - ( ( ) Q 6.6.t.6.o.X.o.o.=.3.4.4.sX}.sX}.5.6.5.6.lXjXlXdXaXsX9XsXn.n.b.v.6.5.5.6.8.7.8.8.0.oX0.oX",
" .,.E ,.W i p S V V V P =.7.7.;.^ W ( ^ tX-X-X-X8X8X0X7XoX+X+XoXs.6.v.6.0.5.0.0.oXoX}.XX].:.7.].|  .| ..| | { | oX3X3X!.s.p.0.6.",
"{ .. .| p u V F P 0 V I 3.3.7.8.^ D ^ Y kX,X,X,X9X7X9X7X+XXXXXXX@.@.@.v.8.{.{.0.OXOXOXOX).].).).,... .| ,.T | T 4X4X4X4X4.6.6.p.",
"....T E u S u q q V C w 7.3.<.3.D ^ ^ V ,X,X,X,X7X8X9X6XoX@X@X@Xp.p.p.6.0.{.[.0.OXOXOXOX].;.].7. .| | | | | T | 4X4X@X0X6.6.t.@.",
"2.| .. .q S i m q q I V 3.-.;.1.W ^ ^ I tX,X,XtX8X5X9X4XoXXX%Xa.s.t.@.s.4.{.0.0.OXOXOX].8.7.7.8. ... . .| ,.,.,.7X+X3X4X6.p.^.@."
};
