/* XPM */
static char *_564263634019[] = {
/* columns rows colors chars-per-pixel */
"64 64 234 2 ",
"   c #1B1A17",
".  c #1D1C1B",
"X  c #181B15",
"o  c #101C0E",
"O  c #221E1A",
"+  c #261E17",
"@  c #391B17",
"#  c #1C241B",
"$  c #23221E",
"%  c #2B241C",
"&  c #292318",
"*  c #32251D",
"=  c #3B231C",
"-  c #3B291E",
";  c #38261B",
":  c #1E1E20",
">  c #252421",
",  c #292722",
"<  c #2C2A25",
"1  c #2E2C29",
"2  c #322621",
"3  c #342B23",
"4  c #3B2C24",
"5  c #312E2A",
"6  c #3A2F29",
"7  c #3B2720",
"8  c #3C3127",
"9  c #33312D",
"0  c #3D332B",
"q  c #3E3530",
"w  c #431D17",
"e  c #44241D",
"r  c #4B251E",
"t  c #49291D",
"y  c #532A1F",
"u  c #4D2621",
"i  c #432D24",
"p  c #4B2D22",
"a  c #442D29",
"s  c #542B23",
"d  c #5A2D25",
"f  c #5B2E29",
"g  c #532925",
"h  c #443226",
"j  c #4B3226",
"k  c #44332A",
"l  c #4B352B",
"z  c #4C392C",
"x  c #43392D",
"c  c #543225",
"v  c #5B3325",
"b  c #53342A",
"n  c #5C352A",
"m  c #543A2E",
"M  c #5B3A2D",
"N  c #5E3927",
"B  c #4D3731",
"V  c #4C3C33",
"C  c #433831",
"Z  c #543D32",
"A  c #5B3D32",
"S  c #593532",
"D  c #623226",
"F  c #63332B",
"G  c #6B362D",
"H  c #633B2D",
"J  c #6B3B2E",
"K  c #733C2E",
"L  c #793E2E",
"P  c #643D32",
"I  c #6B3D33",
"U  c #673731",
"Y  c #733D33",
"T  c #753D36",
"R  c #672F27",
"E  c #304227",
"W  c #5E422F",
"Q  c #4C4437",
"!  c #554234",
"~  c #5C4234",
"^  c #5B453A",
"/  c #59483B",
"(  c #6A412F",
")  c #634234",
"_  c #6B4434",
"`  c #6B4A36",
"'  c #64453A",
"]  c #6C463A",
"[  c #644B3C",
"{  c #6C4B3A",
"}  c #654837",
"|  c #744435",
" . c #7B4435",
".. c #734A37",
"X. c #7B4936",
"o. c #734539",
"O. c #7B4539",
"+. c #744C3B",
"@. c #7B4C3C",
"#. c #6C513F",
"$. c #74523E",
"%. c #7C533D",
"&. c #7C593F",
"*. c #594A42",
"=. c #684D41",
"-. c #7A4E40",
";. c #734F42",
":. c #685548",
">. c #745341",
",. c #7C5442",
"<. c #7C5A44",
"1. c #755C4B",
"2. c #7D5C49",
"3. c #775849",
"4. c #546849",
"5. c #7B624D",
"6. c #77624A",
"7. c #756354",
"8. c #716C56",
"9. c #5E7C62",
"0. c #637D62",
"q. c #834A37",
"w. c #81473B",
"e. c #834C3C",
"r. c #894E3C",
"t. c #834530",
"y. c #84523D",
"u. c #8A533E",
"i. c #91553F",
"p. c #90583F",
"a. c #864F41",
"s. c #835444",
"d. c #8C5543",
"f. c #835B44",
"g. c #8B5A45",
"h. c #895748",
"j. c #835C4A",
"k. c #8B5C4A",
"l. c #925642",
"z. c #935A44",
"x. c #9A5C45",
"c. c #945D4A",
"v. c #9B5E4B",
"b. c #945E51",
"n. c #A15F4A",
"m. c #A15D46",
"M. c #83624C",
"N. c #8C624B",
"B. c #8B6246",
"V. c #94634D",
"C. c #9B624C",
"Z. c #996349",
"A. c #8C6653",
"S. c #8B6A55",
"D. c #876A55",
"F. c #936452",
"G. c #9B6551",
"H. c #946B54",
"J. c #9C6A53",
"K. c #9D6D5A",
"L. c #956B59",
"P. c #9C7158",
"I. c #877458",
"U. c #A2644D",
"Y. c #A7674E",
"T. c #A26552",
"R. c #AA6653",
"E. c #A46B54",
"W. c #AB6D55",
"Q. c #A56D59",
"!. c #AA6E59",
"~. c #B26E59",
"^. c #B26A54",
"/. c #AC7057",
"(. c #A3725B",
"). c #AC735C",
"_. c #AA775D",
"`. c #B17157",
"'. c #B3735B",
"]. c #BA735C",
"[. c #B57B5F",
"{. c #B9795E",
"}. c #966E61",
"|. c #A47462",
" X c #AD7B63",
".X c #AA7761",
"XX c #BC7560",
"oX c #B47B62",
"OX c #BB7C64",
"+X c #B77B67",
"@X c #C27C64",
"#X c #C57E68",
"$X c #C87C67",
"%X c #698B6C",
"&X c #75946F",
"*X c #77AA79",
"=X c #6FA873",
"-X c #678D5E",
";X c #B7815F",
":X c #868768",
">X c #B58166",
",X c #BB8266",
"<X c #BD836A",
"1X c #BB866C",
"2X c #BD8972",
"3X c #87A17C",
"4X c #C2846B",
"5X c #CB836C",
"6X c #C58A6E",
"7X c #CA8B6E",
"8X c #C38267",
"9X c #D1876E",
"0X c #C48B73",
"qX c #CB8D72",
"wX c #CE8670",
"eX c #D48C73",
"rX c #D98E75",
"tX c #CC9274",
"yX c #CA9179",
"uX c #D49275",
"iX c #DA9476",
"pX c #DC967A",
"aX c #D59A7B",
"sX c #DB9B7C",
"dX c #D5927A",
"fX c #E1997C",
"gX c #7BB985",
"hX c #7CC087",
"jX c #8CB389",
"kX c #DB9A82",
"lX c #E29D84",
"zX c #DFA18A",
"xX c #E8A58B",
"cX c #EAAA92",
/* pixels */
"s.r h k Z A =.[ =.' m j j ~ [ ;.3.2.A.F.L.K..X2X0X0X4XqXqXuXyXtXtXaXaXaXaX7X6X,X;X;X;X;XP._._.H.H.F.N.N.k.f.<.>.] { } W ! ! ! ! ",
"-.r z z ' ' ' ' Z Z z j l k l V b Z =.=.-.3.L.|. X2X0X0X6X6XqXtXtXtXtXtXtX7X7X6X6X,X>X>X|.>X;X_.(.J.H.H.B.f.<.>.#.{ } ~ M ! ! ! ",
"I t m ~ ' ] _ ) Z l k k k k k V a k k k Z A ;.}.J..X+X<X<X0XqX6X7XtX6X6X7X7X7X7X6X,XoX>X>X_.;X_.(.J.H.H.V.M.2.<.#.{ } } ~ m m ! ",
"v t ~ ) { ] ] _ M c j j h i a k V x a k B Z *.3.k.L.K.Q.oX4X4X<X6X6X6XtXtXtX6X6X4X,X>X,X>X>X X XoX/.P.P.N.M.<.#.#.[ [ ^ ^ ! z Z ",
"c c _ +.-.;.,.@.+.-.+.+.{ ' M c h l k l V Z B =.>.,.j.F.J.!.oX<X4X6X6XqXtXtX6X,X,X,X,X>X>X>X X X).(.H.L.A.1.3.>.[ / ~ ~ ~ ! z ! ",
"v N o.,.s.s.s.s.s.h.h.s.h.h.,._ M z j j Z Z l A =.{ ;.s.b.J..X+X<X4X6X6XtXtX6X,XoXOX[._.[. X|.|.(.L.M.1.:.{ / ! Q z z x x l l l ",
"H ( X.s.s.,.s.s.h.h.s.s.g.h.k.h.+._ A b S Z l b ' A ' ;.j.F.E..XoXOX<X4X6X7X6X,XoX[._.)._.K.L.K.S.2.=.! z a 6 4 h 6 4 8 8 8 8 h ",
"+...o.s.s.a.y.s.h.,.a.s.@.@.s.f.,.;.>.' ~ Z Z l A A =.-.,.,.k.J.W.oX,X<X4X6X4X;X[.'.)./.(.g.+.,.=.A 8 3 * 4 4 8 3 4 8 8 h x h 8 ",
"@.| o.@.o._ ) v l b S B a b S B ~ ' { >.>.+.] v ) A ' =.P ] h.k.E..X+XoXoXOXoXoX)./.Q.E.b.>.' m k 0 4 * 2 6 0 0 2 2 * 8 8 h h h ",
"| Y _ _ M n n n A B a a 6 4 7 k a p c ) ] >.3.] P b A P S ] ;.-.Z.E.).'.'.+XoX)./.J.G.F.,.' Z j k 4 4 k k a 3 7 i 4 - - l ! Q ! ",
"` _ P P A c a a 7 7 + + < * 2 4 Z p t c M _ j.,.>.P ' M ) { | -.h.V.Q.).).'.)./.Q.J.A.,._ m j a i - 4 j z j z ~ ~ { :.{ } } W W ",
"_ I M g c i 7 a 6 6 6 2 & , * 3 / ^ m s c N o.>.j.-.+._ ] ;.] -.h.b.E.R.!.!.E.J.L.k.s.] M b l l h m / =.=.{ >.>.j.j.f.,.,.>.$.{ ",
"H P n t e = 7 V *.a 4 q % % 3 8 ! :.=.M v n P o.-.,.+.+.;.o.o.@.h.c.G.v.T.J.C.c.h.s.+.` W ~ ' ) =./ ~ ! ~ { >.,.%.%.%.f.f.,.,.<.",
"_ o.P s u i 4 B Z a 2 0 % 3 3 3 m 6.1.' ) H H _ | @.+.s.s.-.,.s.k.c.v.G.G.b.Z.k.h.y.+.` } } ) M x 4 8 z z j j m H _ ,.f.f.&.,.<.",
"o.I P n A c i i B B 4 4 * q 8 4 =.7.3.[ P I _ P _ | -.-.h.h.h.c.v.v.C.v.v.V.c.h.,.o._ ) M Z c = * * & * 3 6 a l z b m ( ` ,.2.5.",
"o.-.o.] ) S u b a C * 4 5 0 5 *.6.3.[ S g P ] _ ` I ..O.a.c.h.v.v.V.C.G.C.c.h.f.{ ~ M m b z h 4 3 * % % 9 C 0 * 6 z W M ) $.<.2.",
"+.o..._ _ J H H M b j i i i z ! ~ Z j j s s n _ I o.o.+.@.s.h.v.b.T.V.C.Z.Z.g._ A M S j m / z * * + % 6 0 V *.q < - z ^ ) ` $.<.",
"@.+...| | _ _ _ H ) ~ A A m m m S m b c b c n P +.+.+.o.+.@.s.c.G.Q.Q.E.E.H.y.) M m m c Z / z * * + + 3 5 V :.:.V * - m W } ` <.",
"s.@.| | | |  .........` ] ` ) ( ) A P P P ) _ ] ` +.+._ ] o.e.h.T.).oX X[.J.$.A W m p i j ! V ; 0 q 6 2 9 *.7.7./ - ; j ! } ` 3.",
"b.h.@.o.| | | o.X.@.e.@.%.@.@.o.] ) P ) _ ) _ ` ` ] ` _ _ o.a.b.).+X0X1X>XP.+.~ ) S p p p h z * 3 8 3 * q :.7.:.Z i p j M } #.>.",
"Q.K.V.g.X. .| K | X.q.y.y.s.%.%...| _ _ _ _ ) _ _ ` _ _ _ ..s.G.oX0XyX0X2X_.#.~ ~ ) M m j j z i - - - k / ^ / Z j b ~ ~ } { #.<.",
"!.).).J.c.d.q.X.X.X.X.y.e.y.s.,.@.@.@.+.o.` ) ( ( ( ) _ ..a.c.Q.OXyXaXdXtX;X&.N ~ ) ) ) M c M m ~ ~ Z ~ ^ A m M A ~ [ { #.$.$.6.",
"E.Q./.E.E.Z.z.z.p.y.y.u.y.y.y.u.y.%.@.X..._ ( J I _ | ..s.g.E.oX0XaXkXaXaX6XN.H W W ) ) P ) ~ _ ` +.{ ' _ ] +.` +.+.$.$.>.$.$.5.",
"C.T.U.E.U.G.C.Z.Z.Z.p.z.Z.z.g.u.y.y.y.@...| _ _ +.+.+.-.g.v.W.OXdXlXaXaXaXtX(._ W M _ ` _ { ` +.@.%.%.<.<.$.>.$.>.<.,.&.>.&.&.B.",
"c.Z.v.Z.C.U.E.Z.U.U.J.Z.C.Z.Z.V.z.d.y.@.@.+.@.%.@.,.s.d.c.U.`.8XdXsXsXsXsXyXoX%.{ [ _ ` ` ] +.+.X.%.%.%.%.%.%.%.&.$.&.%.$.,.2.M.",
"z.x.C.C.C.U.E.E.Y.Y.E.Y.E.E.G.Z.J.V.c.k.d.s.s.s.s.h.h.c.T.T.`.{.eXkXsXsXsXyXoXg.>.+.+.$.%.$.+.+.%.%.%.%.%.%.%.%.&.%.,.,.,.<.5.D.",
"E.U.U.R.U.n.T.!.W./././.W.W.W.E.E.T.G.C.Z.c.g.V.c.b.v.G.W.!.`.{.7XpXkXfXsXtX>XV.N.f.<.s.f.f.%.%.y.%.y.%.y.%.d.f.s.f.f.j.f.M.B.M.",
",XE.Z.U.T.U.R.R.W./.`.`.).`././.E.E.E.E.E.Z.c.p.b.v.T.E.!.W.`.'.8XuXsXsXpXtX[.H.F.V.k.B.B.k.g.B.g.g.f.g.g.B.B.N.B.k.B.N.N.M.M.D.",
"6XU.l.v.U.Y.T.R.R.`.`.`.`.`.`.`.W.W.W.W.E.U.Z.Z.T.W.!.!.).!.W.'.@XuXpXsXpXqXoXG.G.V.C.V.H.Z.V.H.H.V.V.V.V.V.V.V.V.H.V.V.N.M.S.S.",
"6Xv.x.U.n.n.n.R.R.W.`.`.`.`.`.'.`./.W.`./.E.E.E.W.).'.`.~.`.`.`.8XuXiXiXpXqX).J.J.J.J.J.G.G.G.J.G.G.H.G.J.J.F.C.J.V.V.F.N.S.S.S.",
"0XC.c.C.v.m.m.Y.Y.W.`.`.`.`.`.`.`.`.W.)./././././.'.[.'.XX{.'.{.8X9XpXiXpX7X/.(.E.Q.J.P.E.E.E.E.E.J.E.G.E.E.E.G.J.V.H.V.F.A.S.L.",
"0Xc.l.x.x.v.U.U.R.W.`.`.W.`.`.'.'.`.W.W.W.Y.Y.(.'.[.[.oX4X8X@X8X5XiXpXiXpXuX)._.(.(.(.(.E././.(././.E.E.E./.E.E.J.J.C.H.F.S.S.S.",
"2Xz.p.z.i.x.v.n.U.Y.Y.^./././.`.W.U.R.m.x.v.v.v.`.`.OX8X8X7XuX9X9XiXiXfXfXuX8X;XoX).E./.E.)./.W.E.W.W.W.E././.(./.P.H.T.J.D.I.D.",
"2XB.l.z.x.x.x.m.U.Y.Y.Y.Y.R.Y.R.U.n.n.l.l.v.T.~.~.~.{.{.OX7XuXdXiXiXfXfXfX9X6X,XOX(.J.(.E.).W.)./.(.!./.W.W./.E.Q.(.K.E.K.L.D.I.",
"0XV.l.l.x.i.x.x.Z.U.U.U.Y.U.U.C.v.x.x.l.l.R.~.#X5X$X{.{.@X7XrXdXfXiXiXiXrXeX7X6X<X(.Z.d.c.T.T.W.Q.!.!./.!.Q.(./.(.E.K.K.|.P.7.:X",
"0XB.i.i.i.x.x.l.U.p.m.U.p.Z.x.x.i.i.l.a.l.R.XX$XeXeX5X@X8X5X9XrXiXiXiXrXeXeX7X6X<X<X.Xd.g.G.T.E.R.Q.!.!.!.!.W.(..XJ.J.L.K.F.8.jX",
"tXZ.u.u.i.i.x.x.i.i.p.x.x.x.c.z.U.z.i.r.l.R.~.$X#X5X#X$XwXwX#XeXeX9XeXrXrXeXwX0X<X0X0XG.z.c.c.c.J.E.E.E.Q.E.E.E.E.Z.P.P.P.I.-XjX",
"tXV.p.i.i.l.i.i.i.p.p.i.l.z.x.v.U.z.l.w.a.n.~.@X@X$X#X#X#X#X#XwX9X9XeXeXrXrXwX0XOX0XyX).Z.u.u.c.Z.Z.C.U.E.E.E.J.J.J.P.S.I.I.&X*X",
"6XZ.p.i.l.i.i.i.i.u.i.p.l.z.v.v.T.v.c.w.t.l.n.^.].].OX@X@X#X#X#X$X9XwX9XwXwX4X+X4X6X0XoXc.c.c.C.z.c.Z.C.C.Z.V.V.Z.H.V.V.I.:X3XjX",
",Xp.i.i.l.i.l.i.u.i.u.i.l.z.v.G.C.G.c.q.L r.m.n.^.R.~.XXXX#XwX#X$X9X9X$X@X@X@X+XoX4X<X).Z.C.Z.d.g.c.c.c.V.V.V.Z.H.B.H.Q.M./ E E ",
").Z.p.p.z.l.u.d.s.y.u.u.u.z.T.T.T.R.b.w. .| r.z.R.Y.n.Y.^.$X#X#X$X$X$X$X$XOXOXOX+XoX+XQ.C.J.E.z.p.y.g.g.g.B.B.B.B.B.k.}.=.+ % > ",
"/.c.g.p.p.u.y.s.@.o.X.y.u.c.b.T.T.!.K.h.| J Y  .l.v.n.m.m.R.].$X@X].].].XXOX+X!.!.!..XT.J.G.J.J.p.%.p.g.g.g.g.M.B.B.A.2.4.9.4.0.",
"J.z.p.p.y.y.q.X.| | | @.d.z.V.J.E.Q.F.s.J H H J | e.d.l.l.m.^.@X{.`.~.~.R.R.!.E.G.F.s.s.J.J.J.J.B.y.y.g.f.g.f.B.f.M.6.jX=X=X=XgX",
"C.z.l.p.y.y.X.X...@...@.g.V.c.E.Q.K.b.h.H n n M N H | @.u.x.m.n.`.Y.`.^.T.b.G.F.j...H ( H.P.F.V.J.g.y.&.d.g.u.f.B.6.8.*X*XhX-XjX",
"E.p.p.u.y.u.y.y...@...@.a.s.h.G.c.k.b.h.| F M b M M H _  .y.l.x.U.x.v.n.v.b.f.+.) n ) %.H.L.L.V.F.k.j.d.f.B.B.<.k.5.8.%X%X%X&X%X",
"C.c.z.i.u.y.y.y.@.@.@.@.X.a.d.c.h.b.G.b.-.F n n M H H H H I a.G.v.n.v.c.c.,.) n M n +.N.H.F.F.j.2.,.N.f.y.f.<.M.5.~   o # o : o ",
"C.c.c.u.q.e.X.q.s.s.s.s.s.h.b.n.T.!.).!.G.X.F v n F n M v n | f.h.b.b.s.-._ b m ] ] j.N.H.H.N.,.#.$.<.f.y.6.2.M.1.% . : : . : . ",
"c.z.c.i.q.q.q.y.X. .-.s.h.c.T.E.E.!.oX+X+XE.o.D v d d v b c c N U _ F n F n n ) +.,.F.L.P.H.M.,.$.` ..<.f.f.6.5.Q + X :   X . # ",
"c.x.l.u.e.r.u.d.e.J R K a.b.b.v.n.R.~.].~.+XQ.T I I F D v y v y g n s d n v F +.,.N.F.L.P.H.5.<.>.` ` 2.1.5.5.1.& $ O . . . : : ",
"c.c.z.d.u.r.u.u.h. .R d R I a.d.d.c.b.v.T.Q.G.g.O.O.I | J D D D F v P P H ] +.a.N.G.K.|.|.K.M.$.#.` ` 2.M.<.5.! $ O O . . . : : ",
"g.c.z.d.u.u.u.u.e.@.| F y y s d n _ @.e.w.y.d.y.X.e. .O.t. . . .T T X.o.O.s.s.k.c.F.K.|.|.}.M.,.` ` %.y.M.6.:.*   O     . : . . ",
"g.c.g.d.u.e.y.u.d.y.X.J d g r w = s >.,.Y @.V.q.e.y.e.X. .(  . . .X.O.| @.e.@.d.h.c.b.F.K.S.<.` ` &.B.f.2.D.Q O O O . . . . . . ",
"g.g.k.d.u.e.y.u.l.l.a.T G F f g e u S P H %.N.u.V.J.J.B.y.y.B.B.e.e...%.@...,._ o.-.-.-.s.,.+.` &.6.M.f.<.:.3 . $ . . . . . . . ",
"j.h.k.d.u.u.u.d.l.l.l.w.T T G f g u @ e c ( ` %.B.P.H.V.B.B.P.(.K.M.f.A.{ H >.s u g v H ` $.$.&.&.M.&.5.6.8 O . . . . . . . . . ",
"f.g.h.g.d.u.y.u.l.l.l.a.T Y G G F f u e b v y D &.M.j.<.&.f.H.H.H.f.$.>.m e b e r g n P ] $.$.,.6.M.&.6.#.& & $ . . . . . . . . ",
"j.s.s.g.d.u.r.u.d.h.c.l.r.T T G R U F g u u u r c H N n D ` &.....+.N c u @ @ a g f S ] ,.<.s.f.y.M.5.1.E 3 < $ . . . . . . . . ",
"s.s.s.h.h.d.d.a.e.d.l.x.l.a.T L G G F F g g u u g g g g g d f v m b i 7 = = r g f U I -.2.,.&.j.6.M.7.Q < 9 5 , . . X . . . . . ",
"s.,.s.j.h.h.d.a.w.w.a.d.l.h.w. .K K G F d d f g d d s g d g s u t t = @ e e u f S I ,.3.,.<.5.<.<.5.! 8 9 < 1 < < % . X . . . . ",
"3.s.s.h.s.a.r.r.w.w.K  .a.l.v.w.w.O.T Y G R F F R f F f v d g s y s r u f S U U I ] %.<.<.5.<.2.6.[ 3 < 5 , 1 5 9 1 , .   X . . ",
"2.,.-.s.a.d.l.r.e.O.O.K T a.a.a.e.w.w.O.T G G G U G F F F F U S D F F U I T I U ] %.%.&.f.f.&.5.:.- * < < 1 1 < 1 9 9 1 $ . X . ",
"-.+.o.X.r.r.r.t. .q.L  .L R w.a.w.w.q.O. . .T o.T T T K T T T T T T T T o.T ] ] +.,.<.&.&.6.6.1.q & $ 1 , < , , > 1 9 9 < $ .   ",
">X+X1XkXkXlXlXkXE.t.L T T L G  .q.X.O. . .O.O.O.w.T T T O.O.O.O.o.-.o.o.o.o.T ;.,.$.f.f.&.5.6.l $ < $ % 1 > , , > < < 1 5 1 >   ",
"cXcXzXcXcXcXxXlXpXOXr. .T K G R | | | | | | | T | T T O.O.O.O.O. .o.| | ] o.+.-.<.&.&.y.M.6./ & & < $ $ < > > < , > > > 1 9 < > ",
"cXxXxXxXxXlXlXlXlXdXXXr.T O.L K G J ( K | | J G J H G Y I I T o.T  .| ..+.+.+.+.#.M.B.M.D.[ * % $ $ < $ : > > > > > > > < 1 1 1 "
};
