/* XPM */
static char *_564268564043[] = {
/* columns rows colors chars-per-pixel */
"64 64 244 2 ",
"   c #695E5A",
".  c #655E58",
"X  c #5D664E",
"o  c #5D6654",
"O  c #5F7256",
"+  c #61674E",
"@  c #636554",
"#  c #6A635D",
"$  c #676A57",
"%  c #65755B",
"&  c #647957",
"*  c #74775B",
"=  c #757552",
"-  c #715D6A",
";  c #6C5E69",
":  c #5D6C6B",
">  c #5D6865",
",  c #5D7C69",
"<  c #5B6D73",
"1  c #586675",
"2  c #5C777B",
"3  c #636664",
"4  c #656A65",
"5  c #6B6C64",
"6  c #6C646C",
"7  c #646B6C",
"8  c #6B6C6B",
"9  c #656568",
"0  c #746D64",
"q  c #746D6C",
"w  c #7A6D6C",
"e  c #746569",
"r  c #637464",
"t  c #6B7464",
"y  c #6B7A65",
"u  c #64726C",
"i  c #6C746C",
"p  c #637B6C",
"a  c #6C7A6C",
"s  c #677961",
"d  c #737365",
"f  c #7A7466",
"g  c #747C65",
"h  c #73736C",
"j  c #7B756B",
"k  c #747B6B",
"l  c #7B7B6C",
"z  c #7E7966",
"x  c #6D6574",
"c  c #656D72",
"v  c #6C6D72",
"b  c #6C6D7B",
"n  c #696779",
"m  c #726574",
"M  c #746C74",
"N  c #7A6C72",
"B  c #746D7B",
"V  c #7B6C7B",
"C  c #796678",
"Z  c #667373",
"A  c #6C7374",
"S  c #6C7A74",
"D  c #6C727B",
"F  c #6D7A7B",
"G  c #647879",
"H  c #737373",
"J  c #7B7573",
"K  c #747B73",
"L  c #7B7C74",
"P  c #73737B",
"I  c #7A737C",
"U  c #737A7A",
"Y  c #7C7B7C",
"T  c #817C5C",
"R  c #867B6C",
"E  c #826B74",
"W  c #836C7A",
"Q  c #886E7B",
"!  c #837476",
"~  c #8C7275",
"^  c #837B73",
"/  c #83757B",
"(  c #837B7C",
")  c #8A7A7B",
"_  c #8A7877",
"`  c #806C6E",
"'  c #5B8068",
"]  c #7C836D",
"[  c #75836D",
"{  c #6D8375",
"}  c #748173",
"|  c #7C8273",
" . c #75837B",
".. c #7C837D",
"X. c #7A897A",
"o. c #749473",
"O. c #7A977A",
"+. c #71956D",
"@. c #DFB30F",
"#. c #E7B40B",
"$. c #F1B60D",
"%. c #EEAD19",
"&. c #F8A919",
"*. c #E5B618",
"=. c #F6B714",
"-. c #F6AC08",
";. c #FE9E31",
":. c #EDAC23",
">. c #E8AD29",
",. c #FDA423",
"<. c #F4AA24",
"1. c #F8A828",
"2. c #E7B328",
"3. c #ECAC38",
"4. c #F8A939",
"5. c #EAB633",
"6. c #F5B239",
"7. c #F2B22C",
"8. c #EDC109",
"9. c #F9EA3B",
"0. c #EDF339",
"q. c #F6F33A",
"w. c #EFEE35",
"e. c #DEED3A",
"r. c #84866D",
"t. c #828274",
"y. c #82837C",
"u. c #8A877B",
"i. c #9C857A",
"p. c #849675",
"a. c #83947D",
"s. c #8A937C",
"d. c #879873",
"f. c #FAA544",
"g. c #FAB142",
"h. c #FEDD41",
"j. c #EBEC43",
"k. c #FDE444",
"l. c #FBEC44",
"z. c #FAEB4C",
"x. c #E5F94E",
"c. c #E9F746",
"v. c #FDF344",
"b. c #FDF24C",
"n. c #F5F64A",
"m. c #FCEA54",
"M. c #E6F755",
"N. c #F9F752",
"B. c #6C6E81",
"V. c #676E81",
"C. c #746D84",
"Z. c #796D87",
"A. c #6B7182",
"S. c #747283",
"D. c #7B7483",
"F. c #767C82",
"G. c #7C7C83",
"H. c #7C758B",
"J. c #7C7C8B",
"K. c #74788C",
"L. c #7D7993",
"P. c #7B7995",
"I. c #8D6A8C",
"U. c #886D86",
"Y. c #91678D",
"T. c #847684",
"R. c #837B83",
"E. c #8A7B84",
"W. c #83768B",
"Q. c #847C8B",
"!. c #8C7C89",
"~. c #897686",
"^. c #847B92",
"/. c #8A7D92",
"(. c #81799A",
"). c #917C8F",
"_. c #7B8383",
"`. c #7C8B84",
"'. c #7B8489",
"]. c #7D8D8B",
"[. c #778582",
"{. c #7C9786",
"}. c #7C8795",
"|. c #7F9096",
" X c #7AA184",
".X c #838283",
"XX c #848C85",
"oX c #8D8C86",
"OX c #85848B",
"+X c #8B848C",
"@X c #848C8B",
"#X c #8C8C8C",
"$X c #898386",
"%X c #918D85",
"&X c #92858B",
"*X c #938B8C",
"=X c #9A8888",
"-X c #849282",
";X c #8C9283",
":X c #8D918C",
">X c #829787",
",X c #91918B",
"<X c #949185",
"1X c #8B8593",
"2X c #858B94",
"3X c #8C8C93",
"4X c #8D8B9B",
"5X c #868998",
"6X c #948693",
"7X c #938B93",
"8X c #9B849C",
"9X c #948B9B",
"0X c #9B8B9C",
"qX c #9A8796",
"wX c #8C9293",
"eX c #849195",
"rX c #919192",
"tX c #9C9395",
"yX c #A29394",
"uX c #A08A98",
"iX c #81A189",
"pX c #8D89A3",
"aX c #9985A1",
"sX c #FDF88B",
"dX c #FBF898",
"fX c #FFEFAB",
"gX c #FCF4A4",
"hX c #FDF4AC",
"jX c #F4FCAC",
"kX c #FCFDAC",
"lX c #F9FCA6",
"zX c #FDF4B3",
"xX c #F5FDB4",
"cX c #FDFCB3",
"vX c #F5FEBA",
"bX c #FDFCBB",
"nX c #FAF5B7",
"mX c #F2F8B1",
"MX c #FAFBC1",
"NX c #F5FBED",
"BX c #FCFCF5",
"VX c #FCF6FC",
"CX c #FDFCFC",
"ZX c #F7F9F4",
/* pixels */
" .F.F.G.d * * t h H h N B B B B J K J L L L } L eXeX5XeX-Xp.p.a.7 6 6 6 OX].@X@XR.Y ..y.0 q 0 0 A F D b U H K H 8 q N N T.H.W.~.",
"G.F.F.G.t * * * h h h H B B B B L J K J L K L L 2X5X5X@Xa.d.p.p.m 6 x 6 @X].|.@X_.Y ..y.0 e 0 0 A b D v U K K U N w w q T.W.W.W.",
"F.J.J.Y t * * * w h h N M B B B K J K L L L L L 5X5X5X>X-Xp.s.s.- ; 6 6 @X].{.].G..._.Y q e w w D D D v K H h K q q e N R.W.W.W.",
"D.F.G.Y h g d d H h h H H P b B J J J L L L L L |.|.|.|.{.-Xa.rXx 6 6 7 @X@X].@X.XY y.( h w w w D D D A U H K K H N j V I F.D.T.",
"D.D.D.Y R..X.X.XoXoXoXoXOXOXOXOXoXoXoXoXoXoXoX+X0XuX0XuXuXuXuX).A i i A :X:X:X:X*X*XqX*X,X,X,X:X< < Z < K S K K Y Y L Y P P A.U ",
"D.I I D.OX1X1XOX#XoXoXoX#XOX$XXX%XoX;X*XoXoX%XoX0XaX0X0XaXaXaXaXa p S i :X<X<X<XqX&X=X*XrX:XrXrX< < < < S [ K } Y ( ( Y A G G G ",
"D./ D.I 1XOXOX.XoXoXoXXX$X$XOXXXoX;XoX%XoX&X%XoX0X0X0XaXaXaXaXaXa p p a ;X%X,X<X*X=XqX*XrXwXrX*X< < < Z S S [ K Y ( ( ..A F G S ",
"H.D.I D.OXOXOX$X#XoXoXXX#XoXXXXXoXoXoXoXoXoXoX%XaX0XuX0XaXaX).aXH S a S ,X:X,X:X7X=X=X&XrXrXrX0X< < < < S K k K ( ( ( y.Z G S Z ",
"'._.G._.9 9 3 3 K H J h q q q q x.x.x.x.H I N P 7 t 7 $ K A A S oX<X;X@X8 b u u U F U P ^ R R R hXkXgXhX0.q.0.q._ ^ / ) t.r.r.X.",
"_._._._.> > > 9 H J J w N q q q x.M.M.x.C.P I S.4 4 7 8 Z A S Z wXwXwXeXa Z u Z P P P L ^ R R ^ hXzXzXhXq.q.0.q.) ( ) ) r.r.r.r.",
"G.'._._.1 9 > 7 J J j H w q N N x.x.M.c.C J J H 8 4 9 7 h K K i XX:X@X:Xu u u A U F F U ^ ^ ^ ^ gXhXhXfX0.w.w.w.) Y Q _ r.r.r.r.",
"_._.Y P 9 3 . > H J J N N q M q x.x.x.x.I C.B P 5 8 b 9 l A A S.:X:X<X<XZ 8 8 q D D U Y ^ ^ R ^ hXzXhXgXn.q.q.w.) T.) ) X.t.t.p.",
"L t.( y.t..Xy.XXy..X_.R.G.( R._.Y Z.I G.  = = # +X!.( %XlXlXkXdX4.4.4.f.~ !.u.y.U F F H K f f f P K U F.q B B B ! ! E N G G G p ",
"t.t.t.t.t.t.t.t._.Y y.y.G...Y .XY R.^ H.$ # # # !.$X&X!.kXhXkXkXf.4.4.f._ ~._ _ F P F H h w 0 f F.U K G.B.Z.Z.C.! ^ ~ / G G V.2 ",
"^ t.| ^ y.y.t.y.( _..X_._..X.X.XY Y L D.= # $ $ &X$X&X!.kXkXkXgX;.4.4.;.R ) ) _ F U F P j f f j Y U K J C Z.C C W J ! N { V.2 { ",
"^ ..t.| t.y...y..X( Y R..XR..XG.G.F.Y ( # #   5 +X!.$X).dXkXkXhXf.f.4.f.^ ) ) _ F A.F U H f f q U U P U C.V C.B / / / Y 2 2 G 2 ",
"^ ^ ) L 9X4X4X9XrXrX:XwXD A.D G u Z A Z % & % r b c b c A A A A % & & * a H h k *X9X*X3X#X2X:X2X@XXXXXoX#X1X1X6X6X6X0X7Xx n b B.",
"( ( ( Y 9X9X9X4XwXwXwXwXD A.A.A.u Z G u s & % % A c 7 D Z S.D A & & & & k H H k 7XaX9X9XoXoX-X@X{.a.a.XX2X1X4X1XqX=X*X6Xm B x x ",
"^ ( ( ( 9X9XpX9XwXwXwXwXD V.V.V.F c Z Z O % & % Z 7 u A D D F P & ' & & i H H i *X1X3X4XoX#X@X2Xa.-Xa.oX2X3X5X3X*X0X7X0Xx C n C.",
"( ^ ^ ( 3X4X9XwXeXwXwX3XD b D D 8 A A u t % * % n S.c 8 b A 7 i & & % y t h J j 9X9X9XpXoX3X#X3X@XXX@X@X#X+XOX+X6X0X6X1XC.n x n ",
"d t t t U v P A 1X1XOXOXJ K L j u.t.y.y.BXBXBXBXjXjXvXvXd f Y H t..X| |       . ZXNXZXNXvXvXxXxXS.S.S.I M H h q $ @ # $ l l | L ",
"t t t t i A A A /.1X1X.XL z z z t.u.u.) CXCXCXCXbXbXvXxXK f d d R..X.XR.        VXVXVXVXvXvXvXvXZ.Z.Z.C.N q q 0 + X o o t.| | [ ",
"t r t i v A H A 5X^.1XOX^ z z z i.t.t.u.BXCXCXBXxXvXbXjXY 0 d J .X.X.Xy.        ZXNXNXVXcXvXMXvXZ.Z.Z.C.N q 0 q o o $ o | K | | ",
"i t t i A H P v OXOX1X.XL j j ^ ) u.u.t.BXBXCXBXxXxXvXlXH f h A y.y._.(         VXNXVXVXxXxXvXxXD.Z.Z.S.H t d h @ $ + + | r.] | ",
"7XpXpX4X7X:X,X3XH A H M CXCXCXVXdXdXdXfXz.m.z.m.h.k.k.h.2.>.>.2.W.W.(.L.h g a a N.v.v.b.5.6.6.5._.@XOX`. X X XiX3X3X*X#X7 3 3 $ ",
"4XpXpXpXwX,X,XrXA H U H VXVXCXVXgXgXgXfXz.m.m.m.h.k.k.h.2.%.:.%.(.(.(.L.k g k [ v.q.q.b.5.6.6.5..XOX$X..iX XO.{.3X7X6X#X9 3 3 4 ",
"pXpXpXpXrX,X,XwXH H H U VXCXCXCXgXgXgXgXM.m.z.z.9.k.l.h.2.>.:.2.(.^.P.L.k g k y v.v.v.m.2.5.3.g..XOX.X_.iX X X X#X7X6X#X7 3 3 4 ",
"9X4X4X9X#X:X*X*Xi h H 8 CXCXCXCXfXgXgXdXm.m.z.l.k.k.k.h.2.>.>.>.(.J.(.L.K g K [ b.b.b.b.5.5.5.5.`.].].].{. X{.{.7X7X7X+X8 3 3 3 ",
"Y Y Y Y Y Y Y U t.| | XX8 b B b 4 t a F t H P P h h k L v B B P C.b C.B.5 4 7 4 5 4 5 8 h h J h V W W W E ` ` E R.( R.!.I Y Y ..",
"t.^ | ^ L Y Y J | r.r.| U b B.B.h h k U q H H H h f f K v v D b D A D B.8 6 v 6 8 5 5 5 k i f t P I S.V N ` E E R.E.T.!.Y Y Y Y ",
"l t.| | L Y P U t.] r.| b B.B.b k h y k i i i i K h h H P D A.P b A b b 8 9 x 9 7 8 A 4 H t a k V I V / C E E E W.) T.( Y Y Y Y ",
"( | ^ L Y H Y L | r.] y.8 b D v H i i k v U A i k k l h H b M V V.D D b 8 8 6 5 5 5 5 4 h k h h J V B W C E E N ~.W.~.T.( Y Y ( ",
".XR.!.W.kXcXnXcXw.0.w.j.: 1 : < yX=XyXtX9 7 v v ^ ( / ( / ) ~.W.BXBXZXCXkXnXnXnX#X6X+X3XoX#X%X#X4XeX5X4X9XrXwXrX3X4X4XOXtX%X%X;X",
"+XQ.W./.hXbXnXnXj.j.j.j.1 1 > 1 yXyXyXyX0 v v 6 J ( ( J ).U.) !.BXZXBXVXkXbXbXcX1X*XqX#X3X2X5X#XpXpXpX4XwXrXrXrX6X1X7XOX*X%X%XoX",
"/ ~.E.E.kXzXzXcXw.e.w.0.1 1 1 1 tXyXqXyX6 7 7 v ~.( ^ ( _ !.) ~ CXCXZXVXbXnXnXcX6X6X8X1X,X;XeX:XpXpXpXeX3XrXrXrX3X1X5X3X*X%X*X<X",
"/.Q.R.E.bXcXkXkXj.0.0.e.n 1 1 : tXyXtXtXv 8 7 v Y L J H.) ~.W.!.CXCXCXZXbXnXcXkX@X3X1X*X2XXXXX%X4X4X4X4X7XrXrX,X3X1X3X#X*X%X*X*X",
"l j L I $ 0 8 v t.l L t.9 0 q m i 7 8 v D G  .U B B.b H jXjXlXlX%.%.%.<.&.,.1.4.=.=.8.=.T R * g U P I v 8 5 5 5 3X3XwX3X( ( ) ( ",
"( L U G.4 8 i 4 K t.| Y 0 6 6 e a 7 A 7 [.{  .G c V.A.n jXjXjXvX%.%.:.<.<.,.,.&.*.8.8.8.* f T * I P I H q d 0 % :X3XwX3X( / ( ( ",
"j L L d 5 4 % r r.T ] l e 0 7 8 c 7 A c F G { F V.b b A.lXjXjXjX:.:.:.<.1.,.,.,.=.2.#.=.* * = * M N I H 5 t 0 0 :X@XwX3X( ( ~.~.",
"/ J J t.7 8 5 5 } l  .] - 0 x e c b 7 c F  .S F V.D D V.lXxXjXlX:.<.<.&.1.1.,.,.=.8.8.$.g z * g I I I N q $ 5 t :X:XwX7X/ / E.( ",
" .X. .X.K.J.H.J.=Xi.i.=Xw B M H 9.v.9.l.<X5X#X2X>Xd.p.s.g L f f 8 r r Z P V B B $X1X!.!.3XoX#X#XO.{.>Xa./.!././.} } } .... ._._.",
"[.X.X.X.P.J.L.H.i.i.i.=XN M b M 9.v.l.q.3X#X#X*X-Xa.a.;Xh K H J r r , u P B I S./.6X&X+X5X3X3X3XO.O. XO.Q.E.!.Q.} k K } ....[._.",
" .X.[.X.P.H.^.L.i.i.i.i.N M M M v.l.l.q.4XeX3X5Xp.d.d.p.k k k k r r : u P V B P 6X).) +X7X9X3X#Xp.{.{.a./.!.!.^.} } |  . .......",
"X.X.X.| (.H.H.H.=X=X&X&XM H v v l.q.q.w.7X2X@X>Xs.s.s.s.k h d d u u r u P V C.B !.$X3X/.*X1X+XrXO.{.>Xd.P.!.!.!.K K } ..K  .[...",
"X X o $ Q.Q.OX/.W.~.!.!.G.`.`.].5 6 x h T..XQ.W.S.S.D.T.Y R.R..XXX`.`.OX7XqX8X9X2X5X}.#XdXdXsXsX7.<.>.3.<X*X,X,XwX3X@X].u 7 > > ",
"O O o + ^.Q.Q.J.^.^.^.J.'.[.[.[.7 5 5 7 ( Y G.) H.H.H.H.G.G.( G.@X-XXX#XqX8X8X8X'.}.}.OXsXsXsXdX7.1.1.1.:X#X3X%X2X2X3X@X7 : > : ",
"X X o + ^.Q.Q./.Q.^.^.J.`.[.[.[.8 0 8 3 Q._.'.J./ H.D.D.( ( L ( XX{.`.OX7X8X).8X2X}.}.1XsXsXsXsX3.1.1.1.3X3X3X*X5X3X3XeX: : : > ",
"X X o + ^.Q./.^.Q.Q.^.Q..X[.[.'.u 5 v r H.( J.R.D.H.D.D.G.Y G.J.@X@XXX@X9X8XaXaX5X}.].1XdXdXsXdX1.<.>.1.:X%X:XoX2X3X3X@X> O > > ",
"Y _.G.G.v m m B B N q h A a a s J J S.k C 0 N q I / J ( M I b D nXbXxXbXZXZXNXNXnXnXnXmXN.n.n.n.m.z.z.N.,.,.,.,.Y.I.Y.I.D.G.T.R.",
"G.F.G.G.m m m m 8 M N 5 K y s [ H f K J w w B q / ( Y ( B B B B bXkXcXcXZXZXZXNXzXMXnXzXn.n.q.N.z.z.l.j.&.<.,.&.Y.U.Y.I.D.G.T.I ",
"G.G._.G.n m m B H q q i t y y s Y j H I 0 h w 0 / / ! / B B B B kXcXvXkXZXNXZXBXMXfXkXnXn.M.N.c.z.z.b.z.&.,.,.,.U.U.I.I.G.Y ( G.",
"G._.G.U M m x x w q N B k K A U a S S.! 7 0 N V Y / Y G.B B B B cXbXxXvXZXZXNXZXmXmXcXzXx.c.n.n.n.z.z.z.1.,.,.,.Y.Y.Y.Y.T.T.W.T.",
"....`..X#X7X6XrXV W E ` jXjXdXdX%.#.#.@.) ) ( L Y Y Y G.b b B v h N M w &.-.=.&.f.f.7.g.R w t k ! J J ..Y _.[.U s.s.s.s.o.+.+.o.",
".XX.y..X*X#X#X#XW Q Q C cXxXxXcX@.@.@.#.Q./ ( W.F.[...U A b n b C N 0 x &.&.-.-.3.4.6.3.e * d f Y J j U G._.[.G.%X;X%X;Xo.o.o.o.",
"X...`...:X*X*X3XQ E E U.lXcXxXjX*.*.*.$._.( ^ ( G. .Y G.b b b b 0 C.N q &.-.-.&.6.7.3.g.s k A d J ^ ( ( G.J.F..Xs.;X<Xu.o.o.o.o.",
"..`.`...3X3X3X7XE E ! C kXjXkXkX@.@.@.%.} T.( R.U _._.G.b B m B 0 8 m H -.-.=.&.4.4.6.f.t h f h L L J J  ._.F._.s.s.<Xu.o.+.o.o.",
"l J J J K  . .U { } [ { I Z.S.V I I I S.S.S.C.C.r t a 5 H A A H _.J.'.F._...Y G.].].].@X@X*X*X#XG.G.H.G.A H H D K [ [ L ..'.'.G.",
"J ^ j L } { { { } ] [ } I A.A.S.P D.D.S.S.S.C.C.y t h u k i A H '.J.P.'.G.( ( ..{.].`.].#X*X*X#XD.G.H.D.q h M M g g g |  .'.'.[.",
"j j ^ L  .{  . .{ [ { { S.Z.Z.Z.B S.S.B S.A.S.S.t % t t i H H A J.L.'.J.G.y.Y ..{.].`.@X#X7X*X*XH.J.H.F.A H H H [ [ [ }  ._.'._.",
"J J J L U U U U { } [ U P P S.I D.D./ B S.S.P C.h d h h t u i i G.'.'.F.G.( R.R.XX].@X@XoX#X*X3XI G.G.G.M H h H L L l L _.G.G.G.",
"Y Y I I I N M m N J J h p p , p - ; - m $X*X7X6XoXXX%XoXt.Y ..| L ....Y R.R.R.G.( Y ( Y K H A S L ^ L L 8 M v v F.K.F.G./ Q _ / ",
"I Y Y P C C C C N N N h p , , ' - - - 6 &X*X*X%X*X%X<X;X| l | | } [ [ | ( R.T.R./ ) ) Y H Z Z A l l l L 8 v v v K.K.K.D.) ~ ~ ~ ",
"I P Y I C C C C J H N J p ' y p - - - ; *X*X*X%X%XoXoX%X| | t.l | } } } ( W.T.T.! _ _ Y A G Z F l l l l q v v H J.P.K.J.U.~ ~ ~ ",
"J I U I V C n B N H V I ' ' ' ' - - - - *X*X*X*X*XoXoX<Xl | | [ ..} | L R.R.T.( ( ) / ( H S Z H L L l L v v 8 5 D.K.K.G.Q ~ ~ Q "
};
