/* XPM */
static char *_564268580652[] = {
/* columns rows colors chars-per-pixel */
"64 64 60 1 ",
"  c #403F3D",
". c #454442",
"X c #494745",
"o c #4B4947",
"O c #4E4B49",
"+ c #514D4B",
"@ c #54514E",
"# c #555351",
"$ c #595553",
"% c #5C5956",
"& c #5D5B59",
"* c #615D5A",
"= c #64615E",
"- c #69615F",
"; c #615F60",
": c #666463",
"> c #6A6664",
", c #6C6966",
"< c #6E6B69",
"1 c #706B67",
"2 c #726E6B",
"3 c #74716E",
"4 c #736F70",
"5 c #757371",
"6 c #7A7674",
"7 c #7B7976",
"8 c #7D7B7A",
"9 c #827D7C",
"0 c #7E807D",
"q c #84817E",
"w c #817F80",
"e c #858381",
"r c #8A8684",
"t c #8C8986",
"y c #898788",
"u c #8D8B89",
"i c #908886",
"p c #928D8B",
"a c #8E908D",
"s c #93918E",
"d c #918F90",
"f c #959492",
"g c #9A9694",
"h c #9B9996",
"j c #9D9A9A",
"k c #A19997",
"l c #A39E9C",
"z c #A5A19E",
"x c #A19FA0",
"c c #A6A3A2",
"v c #A9A5A3",
"b c #ACA8A7",
"n c #A9A7A8",
"m c #AEAAA9",
"M c #B1ADAB",
"N c #B4B1AE",
"B c #B6B4B2",
"V c #B9B7B4",
"C c #BAB9B5",
"Z c #BDBCB9",
/* pixels */
"9999$*$*kzzlppss1q111111000qxxnxdyayyyyy#&&#ayaayyuu99996688+@##",
"9999$$$$kzllppsp93q911=000q0xxxxyyyyyyya#&##ayyyuytt99998758@##@",
"9999$$$$cczzsspp1q101111q000nnxxyyaya0y0#&&#aaaatptu99997w70##@#",
"9999-$$$zkxlppss300301110q00xxxxyyaa0yaa#&##yyyytutew9797875##@#",
"+@$*@***qzkvqqkq$$$%2330uuyy<:<<000<&##o#&&#00809899bbMm<:,45005",
"$$$$$**$vzqqqqqq%$%%0333audd;;::0000####&##&87779897Mbmn<:::0707",
"$@@$****kqkkkqqk$$@@1053aayy,,::0000##O##&#%78887998bnbm:<<:0550",
"$$$$$**$kvkzqqqq%%%+0,32yddy<;;:0000#O##&#%&78879988mmnb:<::0050",
"qkqk66qqqkzqqqzq$$$@6650::,:e00e00<00050:<<<8788MMMmhjgj;;&;yaaa",
"kqkqqqqqkqqkqqqq$$$$3050,:,:e0ew00000000<:<:8778mMMMhggg&&&;aaaa",
"qqqkq6qqqkqqqqqq$$$$6555<:,:e00w50000000<4<<8807MMMMgggg;;&;uaay",
"qkqqqqqqzqzzqqqz$$$$0606;::,8eee00000050::<:7770MMMmjjjj&&&;aaaa",
"1116qqkqqqqqq$$@#$$%0eeey0000088aaaa00000505yyyy8767::,:ooooyyyy",
"1111qqqqqqqq%%$%%%$%eryy00008008afjf00505555yyyy7787,,,,ooooauaa",
"1111qqqqqqqq$@$$%%$&eyeeq0000700aaff55555555yy0y7666,,,,ooXXaytt",
"1111qkqqqzqq$$$$%$$&0yyeq8007000jffj00505005yyyy8767:,,:oOOXttta",
"MMMM11660-01qqqqqq1qqqqq0880fhhf4444+##+6999kwii<44>wwwwww999wiw",
"MMMM66611--1qqqqqqq1qqqq0080fhff44w4###$9946wkwi4<4<wwwk99999wwi",
"MMMM1666100=qqqq001qhqzq0700fhgh4444++++9669kkki<,<,ww999999wwkw",
"MMMM1661=0=0qqqq01q1qqhq0000fhgg4444$#$$99iwwwwi4444ww999999kwkw",
"zzzk--$$1111qqqq2111qfqq333<0000;;#;++++99999999949-w999wwwwkkkv",
"vzvz-$%%11110qqq2010hqqh33530000;###$+$+999966469w949999wwwwkvvk",
"zzkk%%%%1111qqqq3301qahq23320q00;#;#$+++9999966944999999wwwwkvkk",
"zzkk-%$%111=qqqq3300qfqa2552q700##;#$+$$99994966994999999wwwvkkv",
"1111%-%%7q7qssshhjjl&&&&<4<53030w4w4wwww644699996666kiii9999-++$",
"1111%%%%q77issqkljjj&&#&4<<4300<w4w4ywyw446699999w66wwii9999+++$",
"1111-%%%7qqqksskjjjj&&&;<45<0<<04ww4wwww664699996699iiii9999+$$+",
"1111-%--77q7qssqjjhh&&##<44<0530w44w0yww4669999699wwiwwi9ww9+++$",
"----1166iiqkkkkk3447@##&0050BCCCBBZB;#;&wwwwkwwkiiwiiwwi$++$9w99",
"--%-16q1qiqiksss5345@###0005CCCBBBBB;;;#kwkwwkwiiikiwiiw+$-+w999",
"$%%$6676kkqikksk4445####0500CBBCVVCV&;&&kwwiiiiiiiwiwwww$$$+w999",
"-$--6666iqkikssk4444####0005ZVBCBVVn;&&&wwkwiiiwkiwkwwww$$$$9999",
"9999czcc422-9999$$$+q999kqqk1111###@+O+O77q7*%*%+$$+$$$$+$++iiii",
"9999zzcc22299999@$%@996qqqqq111-####+O+Oq777-*-%@$@$$$$$+$+$iiik",
"9999zzck429-9999%$@$9qq9qkqs1119####+O+O7777%$%%@$$+$$$$++++ikii",
"999wkkkk42--9999$@+$99qqqqqq111q####+O++7qq7-%%*@$@$$$+$+++%iiii",
"99119-91@$$$9-999rq9q336q113qqqq9999666377qqqshs6767iqqi6ii1iiii",
"99999919@@$$99999qr96196q131qkkq99996639qqqqhhss6667qq7iq7iqiiii",
"19992244$$$+9999ee9q99q313q1qqqq999939927qqqssss7767qq7qi61iiiii",
"9991929w@$$+999we99r193q331-qqkq99999339qqqqkssh6667qqiqi7iiiiki",
"-122iiit9-999wkwkkjjgjgf1133qqkqqqqqqqqq-%$%qqqq1111qiiqkkkkzkzk",
"9121iiiq9999wwwklljlfggf1111sqqqqqqqqqqk-%$%qqqq1111qi7ikkkkzkzk",
"-111ptip9-99wwwwghhkfggg1313qsqqqvkqqqqq%%$%qqqq1111iiiiqkkkzzzk",
"1911pitt9999wkkwjljxfggg111qqqqkqqqqqqqq$$@$sqqq1111qqqizkkkkkkk",
"1126MNNNNNNNpwww**$$OOXXkqssqqqq9--%%%**++++qqqq71117i7i6791111-",
"2111MNNNNNVVwwww*;**OOXOqqqqqq0q%%%%$-%%ooo+qqzq1717i7i76166----",
"1112NVCNNMNZwwww$***OOOOqkqqqqqq-%%%%*%*+o+ozqqk11177i7i6167-11-",
"1121NNNNNVVZwwww***$OOXOqkqq9qqq%%-$%%%%o+ooqzzq6611i7ii7661----",
"qqppvvvv=,>:eqqeiwwrwirwnxvv=,==utay05000000y00ykkksqqqq11%*qqqq",
"ipsqbvvb==>=qqqqwiiirrurnvvv-,,-utyy05050500yyyyksssqqqq%*-%qqqq",
"qsqqbbzz====eeeeiwwwwwrwvllv----utyy000005000yy0hhzkqqqq=%=%qqqq",
"qpqgzbbb-1>>898qiwwwpiirvvvv---1utay050000000y00shssqqqq=%%=qqqq",
"Mbzk111>7777reee2<<49wewMMMM1121uuut<<<<fhga0<<<oooo3703qqqqq999",
"lzzb-11199979999<,<<rrtiMMMM2213utuu::<:fghh4000..  7733qqqqq9-9",
"zzzz111=79999w9e,,1,rwewMMMM1121uupp<<<<hjhh5<<<.oo.717qkq9q-999",
"zzzz11,196799e992,21rrrwMMMM3233ituu:,<:hhfh<000o .o1001kq99999-",
"32393263xbbxiirp3333iiuu1,--+++O88804444afja;;&&0yyy:>>>qq99kqkq",
"99233622nnbvpipr3333ipuu,111+oOO8888<433jaaf&;&&ye0w:,>;9999kkkk",
"19633326xxvxprur3122uppu-11-+o++808044<3fffj#&&&0yyw::><q99qikii",
"32626322mbmbrpru6353tttr1,1-@O++87775533fffa;&;&ery0<:;>999qiwkk",
"$+$$rrpr6696+O+O9696q9q906qqqppsqq00yyay777000y07770isspwww99--9",
"$+$+iiirw9ww+OOO99q999990366tppq7770yaaa7775u00y0575spppwwww9---",
"+@$+pwiw9996OO+O999q99q9q66qippu0007yaya770700007705piwkwwww1119",
"@$$+iiiw96wwO++O999q69q9966qutiu7007aaya87700e007073kiik9www21--"
};
