/* XPM */
static char *_564268587163[] = {
/* columns rows colors chars-per-pixel */
"64 64 242 2 ",
"   c #5E5D53",
".  c #5F5E59",
"X  c #6C5E4E",
"o  c #6D5E56",
"O  c #665E59",
"+  c #745E53",
"@  c #725C4F",
"#  c #5C675F",
"$  c #65635C",
"%  c #6C635C",
"&  c #6B6358",
"*  c #766155",
"=  c #76675B",
"-  c #6E755E",
";  c #7A745C",
":  c #70614E",
">  c #5D5F64",
",  c #695E62",
"<  c #655E62",
"1  c #5B6464",
"2  c #5B636A",
"3  c #5C6766",
"4  c #5D6D76",
"5  c #5D7471",
"6  c #646464",
"7  c #6B6563",
"8  c #626A65",
"9  c #6C6A65",
"0  c #64646B",
"q  c #6B656A",
"w  c #656D6C",
"e  c #6C6D6C",
"r  c #736C64",
"t  c #7A6C64",
"y  c #736C6C",
"u  c #7A6E6C",
"i  c #746666",
"p  c #63726B",
"a  c #6C736D",
"s  c #6D7364",
"d  c #737365",
"f  c #7C7265",
"g  c #74736D",
"h  c #7B746C",
"j  c #74796D",
"k  c #7C7A6C",
"l  c #797A64",
"z  c #636471",
"x  c #656E72",
"c  c #6C6D72",
"v  c #636F79",
"b  c #6D6E78",
"n  c #736E72",
"m  c #796F71",
"M  c #746770",
"N  c #657475",
"B  c #6C7374",
"V  c #6E7A75",
"C  c #65757B",
"Z  c #6C747B",
"A  c #67797A",
"S  c #6C7A7C",
"D  c #667977",
"F  c #747373",
"G  c #7B7573",
"H  c #747A75",
"J  c #7C7A74",
"K  c #75757B",
"L  c #7A757A",
"P  c #747B7B",
"I  c #7B7C7B",
"U  c #81735E",
"Y  c #836A63",
"T  c #876A68",
"R  c #83746C",
"E  c #8B766C",
"W  c #837A6D",
"Q  c #8C7A6C",
"!  c #837865",
"~  c #90766A",
"^  c #827574",
"/  c #897572",
"(  c #837B74",
")  c #8B7B73",
"_  c #847D7B",
"`  c #8A7C7B",
"'  c #857679",
"]  c #947E7A",
"[  c #826E70",
"{  c #75817C",
"}  c #7D827D",
"|  c #7A8579",
" . c #6E817D",
".. c #848175",
"X. c #8A8275",
"o. c #83827D",
"O. c #8B837D",
"+. c #8A897B",
"@. c #86887D",
"#. c #9D8B75",
"$. c #92847C",
"%. c #9A877D",
"&. c #93897E",
"*. c #9B8B7C",
"=. c #9B8D76",
"-. c #AA876D",
";. c #A58573",
":. c #A58B76",
">. c #A5867B",
",. c #A38C7B",
"<. c #AA8878",
"1. c #B88C73",
"2. c #AF947E",
"3. c #BC9779",
"4. c #B1896F",
"5. c #C48D74",
"6. c #C59574",
"7. c #C49678",
"8. c #C59977",
"9. c #667984",
"0. c #6B7A83",
"q. c #6D7C89",
"w. c #697984",
"e. c #737681",
"r. c #7D7682",
"t. c #747D82",
"y. c #7B7D82",
"u. c #7B7D8C",
"i. c #7C788A",
"p. c #7B7C92",
"a. c #777B96",
"s. c #5E7984",
"d. c #817B83",
"f. c #8A7C81",
"g. c #847C8A",
"h. c #867C8C",
"j. c #907B80",
"k. c #6E8183",
"l. c #748283",
"z. c #7C8284",
"x. c #7E8882",
"c. c #74828A",
"v. c #7C838B",
"b. c #7C8A8B",
"n. c #768988",
"m. c #7C8490",
"M. c #7A8694",
"N. c #7B929D",
"B. c #7894A2",
"V. c #848484",
"C. c #8B8582",
"Z. c #848986",
"A. c #8D8A85",
"S. c #828489",
"D. c #8B858B",
"F. c #848C8C",
"G. c #8C8C8B",
"H. c #948683",
"J. c #9C8783",
"K. c #948C84",
"L. c #9A8B84",
"P. c #90868C",
"I. c #938C8B",
"U. c #9A8C8B",
"Y. c #86928C",
"T. c #8B918C",
"R. c #8D9086",
"E. c #929185",
"W. c #91918B",
"Q. c #989185",
"!. c #878E92",
"~. c #8B8D93",
"^. c #8D8E9A",
"/. c #928D92",
"(. c #958D99",
"). c #859292",
"_. c #8B9293",
"`. c #8C939B",
"'. c #8E989A",
"]. c #86949A",
"[. c #929293",
"{. c #95939B",
"}. c #97969A",
"|. c #A48C83",
" X c #A38E8A",
".X c #AB8B84",
"XX c #AC9383",
"oX c #AD998B",
"OX c #A89386",
"+X c #B19583",
"@X c #B69A87",
"#X c #AB9B93",
"$X c #A39994",
"%X c #B79791",
"&X c #B8A38D",
"*X c #9494A2",
"=X c #988FA2",
"-X c #BFAEA4",
";X c #C39D84",
":X c #C5998C",
">X c #CB9C85",
",X c #C39C91",
"<X c #C29593",
"1X c #CBA68D",
"2X c #CAA489",
"3X c #D2A68C",
"4X c #D4AB8E",
"5X c #DBA989",
"6X c #CCA792",
"7X c #C4AA95",
"8X c #CCA994",
"9X c #C5AA9C",
"0X c #CCAD9B",
"qX c #C6A79A",
"wX c #D4AC92",
"eX c #D7A998",
"rX c #D5B195",
"tX c #D8B49A",
"yX c #C8B19B",
"uX c #E8BA9C",
"iX c #C4ABA2",
"pX c #CDABA4",
"aX c #D6AEA4",
"sX c #CCB3A4",
"dX c #C8B2A7",
"fX c #D4B3A4",
"gX c #D3B3AB",
"hX c #DBBAA7",
"jX c #D8BEB2",
"kX c #CBBFB3",
"lX c #E3BBA5",
"zX c #E5BDB3",
"xX c #DFC39E",
"cX c #E1C39D",
"vX c #DEC3A6",
"bX c #DDC2B4",
"nX c #D4C3B5",
"mX c #CFC1B4",
"MX c #E2C4A3",
"NX c #E5C3AC",
"BX c #E8C2AB",
"VX c #E6C3B1",
/* pixels */
"d.r.g.r.u g g y u h f g G F F K A A A V { I J | H.H.H.H.A.T.Y.R.< 6 < > _.Y.).).V.y.r.S.e b c b w.C C Z S t.P Z y m y i _ J J ( ",
"g.i.g.i.F g h g t R t g G F F F A S A S P } I J H.H.H.H.I.R.R.R.0 < < 6 ).).).).z.y.z.v.c b b b N N D Z B S K K m M y M _ I J J ",
"h.r.i.r.F 9 s g t h f h G F F g A S A S { I I I H.H.H.H.I.R.R.G.> > > 2 ).).).N.y.v.y.v.x b c b 0.0.e.e.e.e.e.K M M i y I _ I ..",
"r.d.d.r.G g g g h g g y F F K F Z S Z e.I _ I I H.H.I.D.G._.T.G.0 2 6 0 !.Y.Y.Y.y.z.y.y.c n c c C 5 D N S S 0.P y y y y J I I I ",
"[ ^ ; ..| ..} I z.Z.Z.S.~.^.~._.D.D.F.D.P.(.P.(.~.~.D.~.^.!.`.^.F G G F G.G.G.G.G.G.G.I.A.I.A.K.+ * * * E E ~ E G J G I G L K I ",
"W ! ..; ..o.o.o.b.b.b.F.].`.`.`.P.P.D.D.U.U.(.P.!.~.~.!.`.].].`.I J ( G A.Z.A.A.A.A.H.G.A.H.H.H.: X @ o ! Q Q ! ' _ _ _ G K F K ",
"! ..; | ..o.| | b.b.b.b.!.`.!.~.P.P.P.P.(.P.P.(.!.^.~.^.].`.].`.F G G J C.Z.A.A.A.G.K.A.K.A.K.&.* * * + Q / ) E J ( J I K K K K ",
"k ....; | } I | b.b.b.b.^.`.~.~.P.P.P.h./.(./.P.~.D.~.~.^.`.`.^.P F L I Z.G.G.G.D.G.G.A.A.K.+.K.+ + * @ ~ E E E ( J G _ F I K e.",
"| { | | > > 2 2 u.q.k.{ 9 = = & :X:X:X,XY Y t Y e a w e G R G G &.&.E.+.u i m u V.z.z.o.| ( | ( gXhXfXgXXXXXXXXXo.o...S.K e.e.e.",
"| | | l.2 4 2 2 t.q.l.{ r = = - :X:X:X,XY Y i T a e B c G G m G E.E.E.K.G m m u d.I I o.I ..( ( fXgXfXsXXXXXOXXXo.} } Z.K K e.t.",
" .| { x.2 2 2 2 l.k.l.{ = = = = ,X,X,X,XY Y T Y w e B e L G m L E.&.&.&.u i i y o.I o...J ( ....fXfXgXfX@X+X+X+XZ.Z.o.S.I e.e.e.",
"n.x.{ S 2 2 > 2 { t. .P s r = r <X<X<X%XT T T T g a e 7 ( R R R E.E.E.&.G u m u V.z.V.z.} J } I gXjXgXpX%X+XXXXXI ..} } e.e.r.e.",
"I F I I (.{.{.~.e.0.t.P H H H H o.} o.o.1 1 1 # ( ( ..X.&X&X9X7XK.*.Q.Q._ ' _ ` B B F B x w w w y y y g u g G J F F F F y.y.u.z.",
"I L L L {.(.{.(.P K 0.K l. .{  .y.I I I 1 1 0 8 ....X.X.7X2X6X1XQ.E.Q.Q.` V.f.o.Z Z Z Z x x x 4 n b e F F K F F a a a B V.g.V.d.",
"L L d.L (.(.(.{.P e.e.S {  . .V v.y.y.I w 2 8 6 ....X.~ 7X2X1X1XQ.E.L.L.( _ _ _ K B Z Z x x x x n n y m G ^ ^ G K B B g z.g.z.d.",
"r.r.L L {.{./.[.P P P V | H H P y.y.V.I 0 6 6 6 _ ..X.Q 7X1X6X6XQ.L.E.Q._ C.f._ F Z K B x w x w c g e y J F G h B g g B S.v.d.S.",
"a.a.a.i.^.G.G./.L.K.K.K.( J J G w B p 8 V x w a K N n L C 9.e.C u F m g J g g F I.I.W.I.I.I.I./.{.'.'.{.S.M.S.S.Z.D.V.C.7 9 7 9 ",
"p.p.a.i.~.I.A.G.Q.&.L.E.h h G G a p p p a F c w F B K L C C 0.A g m n m g j F j L.L.L.K.U.U.I.U.'.'.'.`.b.m.M.m.S.Z.V.C.6 6 $ $ ",
"p.p.p.p.^./.~.~.&.K.K.K.( k J J a p a V e e n e n F m n 0.9.S A F G F F g j g F I.K.I.I.I.[.I./.'.'.'.'.M.m.b.!.V.D.C.V.9 9 9 8 ",
"p.p.i.h.~.~.~.G.Q.K.K.H.( h h h p p p 8 a a 9 a K b K r.C s.9.s.e n n F g g g g U.I.U.U.H.I.I.I.'.}.'._.S.v.u.z.D.D.V.V.9 9 6 $ ",
"g g a j d - - l h h J ( _ ` C.f.] f.j.] jXVXzXzXeXeXeXeXU R U f d.f.y.J $       vXNXhXjX0X8XqX8X9 9 r a I I y.{ M y y F g J J H ",
"d l d d - - - - J G G G _ f.d.d.' f.` / VXNXvXNXaXtXeXaX= t t t K e.e.K       $ NXVXBXBX6X6X6X8Xt ; - r J I I H y M y y F J J F ",
"g g g j s s d a h G J G f.d.g.f...O.O.] VXlXlXVXeXeXeXtXf h f d r.y.d.I       O jXbXbXVXqXqX9X7Xr = s - I I I I M M M y G J J H ",
"l l d j - l - s k h J G ` ' f.f.X._ ` ] jXBXVXzXeXeXeXeXf r t d y.y.y.I         NXNXbXVX8X8X8X8X- r r 9 I P P I M M y y G J G j ",
"~.)._.).Y.Y.Y.Y.J ( J ( nXbXjXbXeX3X1X3X5.5.6.1.>X>X8.>X#.*.:.#.i.y.z.I C.C.O.O.XXoXoX@XXXXXXX2.%.$.&.H.A.A.A.G.C.C.V.A.9 9 e w ",
"Y.Y.Y.Y.T.Y.T.T.k ..( W nXnXhXbX3X6X1XeX5.5.5.6.>X&X2X>X#.*.>.#.y.t.t.I D.H.A.+.oXoXoXXXXXXXXXXX%.%.%.J.E.I.I.K.C.Z.V.A.w 9 e 9 ",
"Y.Y.Y.Y.Y.Y.Y.Y.( J W h bXbXjXbX1XwX1X3X5.5.5.5.;X8.>X;X=.*.*.*.e.e.I I D.H.H.O.oXoXoXoXXXXXXXXX$.*.%.&.&.E.I.I.Z.G.S.A.w q q w ",
"_._._.T._.T.R.G.( ..( ` kXmXmXmX3X3X3X3X7.7.7.7.>X>X;X;X-.;.-.#.d.z.z._ V.O.f.O.+X+XXX+X+XXX2.2.&.&.&.K.K.A.A.K.S.Z.G.S.e 9 e y ",
"I P K r.d.S.D.g.H J J F J k l j G m F L b B B Z 5 4 N N F ^ ^ ' B c a e 7 , 7 7 C Z Z Z Z N Z N h G G G F B g c S.x.z.z.L K P K ",
"r.r.r.d.h.h.h.D.P P l.z.e d j j G m m F V S A S N x N w R T E T g F F c , O , O B F n B c c c N F L G n y N e c x.z.z.z.I I I I ",
"d.r.r.d.h.h.h.g.I P P P g j j a G u G F S A C 0.w x x w W R k W y B B m , , , , n B B B B N x B K L L n B e a e z.b.z.z.I r.K K ",
"r.I L d.h.D.D.g.J P I H l s g j g G m m K Z Z e.5 3 5 x ^ T h / g a e u , , , , b B Z B B c N B m m L G F e y g l.n.b.z.y.K K I ",
"/ J J W dXaXfXfX+X@X@XoX& $   $ ~.~.~./.F F F F H J | j ` ( W ) BXMXcXMX9XiXiX&XL.H.J.K.I.Y.E.R.R.F.G.Y._._.[.^.R././.[.X.+.+.C.",
"J } J W jXaXaXfX@X2.2.oX& $ $ $ I.I.I.I.F J F G | J l H ` ` _ ( MXMXxXvXyXiXdXiXI.H.H.K.I.R.T.T.Y.Y.F._.^._.^.^.[.[./.[.@...+.X.",
"G H H t jXaXaXfX@X+XoX&XX $ $ & I./.I.I.F F g G H k J | G ' | ^ hXcXMXvXiXiXiXiXI.H.H.I.G.Y.G.A.F.F.F.).`._.`.^.~.~./.[...+.+.+.",
"( J J ' dXgXgXgXoXoXoXoX& $ $ $ G.I.I.G.I H K K | J H j ] ) W X.BXcXMXvXyXiX9X7XJ.%.*.L.A.R.W.W._.Y.~._.~._._._././.[.W.o.@.@.@.",
"..) X.W E R R R d r = d y F j g F K n K x x x b j g H j dXsXyXfX-.-.4.4.1.3.3.@X2.,.,.*.h 9 r r y B e y 9 9 9 9 W.W.W.T.| y.I I ",
"X.) $.$.t t [ t s e 9 9 H H V H x n c b v b b v V P V g gXtXtXtX1.-.4.4.3.3.3.3.:.:.:.,.t r t t m g F y 9 9 7 7 E.E.I.R.I y.t.y.",
"X.Q ) ) u u ^ u e g g y g V g g n b b c N v v N j H  .l fXrX0XfX-.-.-.4.3.3.6.3.:.2.,.,.= t r i c c y y 9 9 7 9 W.E.E.W.d.y.z.z.",
"..X.) ( W u [ [ e 9 7 d g H H d n m n c b v b N H g V { sXtXfXsX-.4.-.-.3.3.3.3.:.:.,.,.r y g y n F F c 9 9 9 9 /.W.W.R.z.y.{ P ",
"0.0.q.w.p.y.S.u.R.R.~.W.f ! R R $X#XoX#XG.F.F.G.'.].'.'.9 % i r 0 z 0 0 e e e w D.Z.Z.Z.}.*X}.[.^.^.^.!.b.n.x.z.z.n.n.c.c.c.a.M.",
"9.9.9.9.c.u.v.u.A.I.I.K.f U U ! #X%XoX#XG.S.S.G.'.).Y.[.e r i % z 0 z z x c w e D.V.Z.Z.{.=X=X}.^.~.~.G.z.| x.z.l.{ k.c.v.p.M.q.",
"q.q.q.q.v.v.v.u.I././.K.f U ; U oX%X#X#XG.F.~.~._._.'.[.9 9 i r z z 0 z x x N w F.Y.F.F.*X*X*X*X(.^.(.^.S.v.z.b.z.n.c.n.c.p.M.a.",
"9.9.s.9.v.z.g.v.H.I.K.K.W f f ! #X#X#X$XI.G.V.D._.[.[.R.y 7 r 9 z z , q w w e e x.x.x.} }.}.}.}.~.^.^.!.b.n.n.b.t.t.l.z.e.y.v.y.",
"v 4 v v e.I r.I _ ( _ o.J _ _ I c c n G I V.C.C.I F H I _ o.V.../.P.P.P.I./.G.I.H.H.H.%.iXqX9X9X>.;.>.>.*.%.%.%.A.G.G.V.9 , , $ ",
"4 4 4 z I G L L G ( j ( y.z.y.y.B B B F o...O...G J g J _ O._ I U.U.J.I.I.G.G.K.$.O.$.$.9X8X8X8X;.;.;.#.*.E.Q.Q.C.Z.C.+.% o o O ",
"v 4 v v I I ' I ( ( ( J d.z.I { K B K b V.O.O.V.h ( J J _ _ _ Z.I.U.U.I.G.G.G.~.A.A.A.O.9X7X9X7X;.;.>.*.*.K.I.I.A.A.G.A.o o o o ",
"s.4 4 v P L _ I ' ) ( ( _ I I | F n b n o.O.o.f.h ( h G o.o...o.I.H.P.I.G.G.Y.I.O.&.H.] iX7X0XpX;.-.;.:.*.L.Q.K.D.A.A.H., o o % ",
"t.l.y.z.y g t d i r t t g F F h r w a y 9 r d w G G ( I c w x x rXrX5XtXtXuXlXuX4X4X4X4X6.6.6.3.:X8.8.2X,. X.X<.g y r y V.o.} ..",
"i.y.z.d.e 9 y r r t = t F K F g B c B B r r t e ^ W ^ G a e b B rXwXrXtXtXhXlXlX4X3X4X4X8.8.6.6.;X@X8.@X|.U. XQ.u y i r o.V.V...",
"y.y.z.I y g y g r t t t n K F K e x N a 9 r t r ( ^ ( G e w c c rXrXrXrXlXhXhXhXwX4X4X4X8.8.8.8.8.8.8.8.,.,.|.,.y 9 i y _ Z.o.Z.",
"V.y.y.I g g e s = d r r G G u G g e a j g r g e G J L K B e N x wXwX4X4XuXuXuXuX5X5X5X5X8.6.6.6.8.@X8.@X2..XOX.Xu u u F y.z.l.z.",
"K G P _ G._.[.[.h h h W iXdXdXdX*.*.*.E.C.C.C.V.K K K e.Z Z P Z J H F G U. X X XJ.|.J.J.h j J J | j G G G ^ _ G /.[.G.^.].].N.N.",
"I J G I G.T.T.Y.h g u t dXyX0X0X,.:.,.*.+.V.Z.S.e.e.e.e.e.S 0.0.g j g d  X.X.X.X>.>.] |.R l f f H H V F _ ' ' ^ {.{.{.*XN.N.N.N.",
"G G G J _.[.'._.y G G h sX0X0XsX=.:.#.*.A.C.Z.C.t.e.e.e.Z 0.S Z F g H g OX.X.X|..X<..X>.W g h h h g j h ) E / / (./._.'.N.B.B.B.",
"G J J K T._.).).h h g h dXsXiXdXQ.*.*.L.A.V.C.C.e.K e.e.S S S Z G K H f  X.X|.|.>.] .X|.h g G G g H H F ( ^ ' _ [.[.[.{.N.B.B.B.",
") ) E Q I { { I S.b.z.S.q n i e H V H P B K K Z u m L y h d h F P t.q.y.I _ d.z.R.I.I./.G.F.~.D.d.z.z.o.G G W j r r t e I P e.I ",
"Q ~ ~ ( } { { | S.z.v.S.q y i q H H S H B B B B m n n y h t t u t.q.q.t.d.o.o.d.I.G.I./.F.).!.~.z.l.| { J h ^ h r r i g P P z.e.",
"E ~ ~ Q J { { { V.b.z.V.q M c y H V H H F F F B n n n n h h h f q.q.q.q.y._ _ o.I.I.I.I.F.F.).!.z.{ l.} ^ G G G i r i 9 P H P P ",
"Q ) ) ( } { l.{ S.S.V.y.e M q q { P H F F g F y L m m m u g g g y.t.y.y.V.} _ I I./.[.T.G.Z.G.F.I I I I J G G G y y g y I J I I ",
"B n K n B a a a e e c F n L L L 8 1 8 w _ C.A.A.U.U.J.P.o.y.l.y.( ( ^ _ I y.z.I P P { P n m F m G G G L g B B D H P P H o._ _ _ ",
"Z Z Z Z D j V a n F e B F L n F p 8 8 8 C.C.$.O.J.|.|.U.y.0.c.t.E E Q ( I I l.I l.l.l.I F u u u G m m F B N D D { S { H o.` ` ` ",
"K b C b B a a B e y e n m L L K 8 3 8 6 A.O.&.O.U.J.J.U.y.c.c.l./ E E ) I I z.P z.{ l.P F y u y G u G F N D S Z 0.S { H _ ) ) ( ",
"m b Z K a a V C y a y c L L L K w 3 8 6 +.$.$.` (.J.U.U.t.t.z.I ' / ) ( } l.I | e.t.l.P m m u y F G m F D A Z N t.{ P P V._ ` .."
};
