/* XPM */
static char *_564263612683[] = {
/* columns rows colors chars-per-pixel */
"64 64 248 2 ",
"   c #0B0206",
".  c #0D0308",
"X  c #0A080C",
"o  c #12080C",
"O  c #1B0D12",
"+  c #120E12",
"@  c #1A1419",
"#  c #0E0B10",
"$  c #230C13",
"%  c #280A15",
"&  c #360A17",
"*  c #29141A",
"=  c #34151B",
"-  c #39151B",
";  c #20050F",
":  c #251A22",
">  c #3C1B22",
",  c #351923",
"<  c #29232A",
"1  c #38262C",
"2  c #362A33",
"3  c #1C1620",
"4  c #430C1D",
"5  c #4B0D25",
"6  c #431C23",
"7  c #4B1626",
"8  c #54132A",
"9  c #581A2C",
"0  c #591833",
"q  c #500F2A",
"w  c #6B1F34",
"e  c #43232B",
"r  c #4C242B",
"t  c #472728",
"y  c #512B2C",
"u  c #56262D",
"i  c #58322D",
"p  c #472B33",
"a  c #542D33",
"s  c #5B2C33",
"d  c #5A2534",
"f  c #4B3538",
"g  c #5B3433",
"h  c #5D3B34",
"j  c #573838",
"k  c #632C34",
"l  c #692836",
"z  c #752939",
"x  c #633436",
"c  c #653539",
"v  c #6B343A",
"b  c #633C3A",
"n  c #6C3C3B",
"m  c #673A35",
"M  c #733D3C",
"N  c #77373C",
"B  c #612C2F",
"V  c #5C4239",
"C  c #6B4136",
"Z  c #65433C",
"A  c #6C433B",
"S  c #684638",
"D  c #73443C",
"F  c #744A3D",
"G  c #7A4B3E",
"H  c #78443B",
"J  c #79513F",
"K  c #493941",
"L  c #513B42",
"P  c #783844",
"I  c #6A3542",
"U  c #584745",
"Y  c #6C4441",
"T  c #6D4B43",
"R  c #694C48",
"E  c #734542",
"W  c #7B4642",
"Q  c #744B43",
"!  c #7B4C43",
"~  c #7D4D49",
"^  c #754B4A",
"/  c #69544B",
"(  c #7D5244",
")  c #73554B",
"_  c #7C534A",
"`  c #7C5B4C",
"'  c #775748",
"]  c #7C5C53",
"[  c #785854",
"{  c #6B5A53",
"}  c #7E6358",
"|  c #873944",
" . c #943B4B",
".. c #814542",
"X. c #824D45",
"o. c #834D49",
"O. c #894549",
"+. c #93474C",
"@. c #835345",
"#. c #845A46",
"$. c #84544A",
"%. c #8A554C",
"&. c #855A4B",
"*. c #8B5B4C",
"=. c #895746",
"-. c #925C4D",
";. c #98584D",
":. c #954953",
">. c #8C5D52",
",. c #875853",
"<. c #935D53",
"1. c #965855",
"2. c #864654",
"3. c #A6535D",
"4. c #8C634D",
"5. c #88654D",
"6. c #92634E",
"7. c #94684E",
"8. c #8D6352",
"9. c #8C6C5C",
"0. c #886657",
"q. c #936454",
"w. c #9B6455",
"e. c #946B54",
"r. c #9A6C55",
"t. c #9B655B",
"y. c #956B5A",
"u. c #9C6B5C",
"i. c #956359",
"p. c #94715D",
"a. c #9D735B",
"s. c #9A7456",
"d. c #87735B",
"f. c #A16C5D",
"g. c #A1655D",
"h. c #A1755C",
"j. c #A27A5D",
"k. c #AA5A64",
"l. c #8B6B63",
"z. c #9C6C62",
"x. c #976A61",
"c. c #9D7363",
"v. c #987767",
"b. c #9B7C75",
"n. c #8E706A",
"m. c #A36C63",
"M. c #AA6C65",
"N. c #A76967",
"B. c #B26B6B",
"V. c #A37364",
"C. c #A37C64",
"Z. c #A57569",
"A. c #AB746B",
"S. c #A47C6C",
"D. c #AB7A6E",
"F. c #A97366",
"G. c #AE7471",
"H. c #AC7B73",
"J. c #A97C76",
"K. c #B37573",
"L. c #B27A74",
"P. c #B57C7A",
"I. c #B97D7E",
"U. c #B87477",
"Y. c #B46F74",
"T. c #975C64",
"R. c #C1777D",
"E. c #A7836A",
"W. c #A48273",
"Q. c #AA8374",
"!. c #AD847A",
"~. c #AB8976",
"^. c #B2837C",
"/. c #B28A7C",
"(. c #B9827D",
"). c #A1957E",
"_. c #96826B",
"`. c #BB7D82",
"'. c #C47A86",
"]. c #AB8A84",
"[. c #B58584",
"{. c #BC8383",
"}. c #B48B83",
"|. c #BE8589",
" X c #BC8B8C",
".X c #B88D86",
"XX c #BB928C",
"oX c #B79087",
"OX c #BE8F92",
"+X c #BC9493",
"@X c #B69597",
"#X c #AB8C90",
"$X c #BB9DA3",
"%X c #BFA0AB",
"&X c #C3848B",
"*X c #C28A8D",
"=X c #C48489",
"-X c #C48C92",
";X c #CA8B94",
":X c #CC8E99",
">X c #CB8591",
",X c #D28C9B",
"<X c #C49295",
"1X c #C29996",
"2X c #CB939C",
"3X c #C59A9B",
"4X c #C99B9C",
"5X c #C69298",
"6X c #D1919D",
"7X c #C2908F",
"8X c #CD9BA3",
"9X c #C89AA2",
"0X c #D395A3",
"qX c #D19BA5",
"wX c #D49CAB",
"eX c #DA98AA",
"rX c #DB9EB2",
"tX c #D69EB0",
"yX c #D88EA2",
"uX c #E39CB4",
"iX c #C9A3A9",
"pX c #D3A1AC",
"aX c #D7A0AC",
"sX c #CBAAB6",
"dX c #DBA2B4",
"fX c #D9A9B8",
"gX c #D7B1BE",
"hX c #E3A3BA",
"jX c #E3A7BB",
"kX c #D9B6C5",
"lX c #E5ACC2",
"zX c #E8ABC5",
"xX c #E5B2C4",
"cX c #EAB4CA",
"vX c #E2BBCC",
"bX c #ECBBCD",
"nX c #E8B5C7",
"mX c #EDBCD1",
"MX c #E7BED3",
"NX c #F1BED2",
"BX c #ECC3D4",
"VX c #EAC6D7",
"CX c #F2C2D6",
"ZX c #F1C5D9",
"AX c #F1CBDD",
"SX c #ECC6D4",
"DX c #F1CDE1",
"FX c #F4D6E5",
/* pixels */
"p.5.T h h i i h Z C A G ( $.-.q.w.f.z.V.V.C.Z.Z.L.G.A.H.A.H.A.Z.Z.A.V.f.q.%.~ ~ ~ _ ( _ &.8.y.u.c.c.v.V.z.x.y.>.$.$.Q S C Z y > ",
"*.Q V i y y i V S F ( #.5.*.6.q.w.w.t.f.f.V.m.F.L.L.K.A.A.D.Z.m.m.m.t.<.%.~ E W ! ! Y Y Y E ' ` &.0.0.8.8.8.>.>.%._ ( E S S V t ",
"A h g g i h C F ( ( #.#.$.&.*.*.6.q.i.w.t.u.u.m.A.L.A.D.A.F.M.f.f.g.<.%.%.$.X.o.X.! Q Y Y Y I Y R R Y T Q ^ ~ _ ~ _ Q G F S S i ",
"j h Z F F F J @.( J J G Q ! @.&.$.*.6.q.w.w.t.m.M.A.A.D.F.A.F.h.r.<.-.%.%.*.%.*.*.$.$.@.@.~ T Y Z I h h b Y Y ^ ^ Q E A C C S V ",
"A Q ` @.J @.J J J F J F Y A Q ! X.@.*.*.6.6.w.f.m.Z.F.Z.Z.V.h.h.6.-.%.=.%.-.-.*.-.*.#.&.*.*.&.&._ Q Y Z b Y E Q E Y n c i i m h ",
"( #.( ( G G F D C C C S n m C A F G ! =.=.-.;.w.f.F.F.F.V.m.f.r.6.;.%.=.%.=.=.=.=.=.=.=.*.*.4.*.&.&._ ! ^ Q Q Q Q Y b g i u i V ",
"( ( ( D C x i t 6 6 - 6 t y i b m A D G @.%.;.g.g.h.F.F.f.f.r.w.;.-.=.=.=.@.=.=.@.@.@.@.=.=.*.*.*.*.&.&.$.&.$._ Q E b b u u y i ",
"Q F C g r 6 - & & = & & & = 6 t i g g m H X.%.6.g.f.V.h.f.r.r.6.6.=.=.=.@.@.@.@.G G G D D C D ( _ @.=.$.*.=.*.*.&.&.( D b u r i ",
"F C i 6 - > > > - - - - = - = - 6 r r a h I _ *.t.h.V.h.r.r.7.-.=.=.J G G G D C m B i r 7 6 6 6 u a g D G J =.=.*.*.*.&._ n a g ",
"C i t t t > 1 1 * * O @ O O * * , = > 7 a h _ e.u.V.V.u.t.q.6.*.=.J F H n n x i u u 7 6 & > & & & & - 6 y m D ! =.=.*.*.=.! A b ",
"C i 6 = * > 2 2 1 + + X + + + + * * = - e y T e.C.Q.D.V.u.e.$._ Q A C Z h g a u u r 6 6 6 > > > > > > > - 6 r s n W @.@.@.@.W D ",
"i 6 * $ * V U U 2 + + X X X + + O O O $ > t F s.D./.}.J.S.x.,.^ Y h h j j a r u r 6 6 7 e p e 2 , , * = = > 6 6 r i m ! @.@.( ! ",
"i t t > , f U U < 3 @ # X X X X o o o $ t f J _.~.XX+X.X!.S.8.^ j f f a p e 6 e 4 - , 6 p U U U : @ O O O O * = e r t g A J J G ",
"#.J V V t p f K 2 3 : : @ X X + O @ 1 a j Z 5.W.oX+X9X+X X^.z.,.I p e e e > * % ; ; , 1 L / { K : @ X X X # + O * = - t i m F G ",
"_.7.J S V j f V V < 2 2 2 2 1 f f V R R / ` v.oX+XiXiXiX4X+X^.f.] L p > , , , % % O ; , f { { K < : + X X @ @ @ * $ $ * - t h C ",
"E._.5.` ` ' / ) / { / ' ` ' ' ' ) ) / [ } p.~.3XiXgXkXkXfXiX*X~.v.,.^ j f p a f y e > e L / { U < < < : @ : @ O : $ % % % = > y ",
"~.E.s.5.5.5.7.7.7.9.5.5.0.` [ ) [ ] 0.d.v.Q.+XsXvXSXSXFXSXfX4X{.J.n.l.0.[ / U R R / R R ^ { [ { K 2 < < : : : , , = , = , , > 7 ",
"/.E.E.d.5.5.5.` &.&.( ) ^ ) } 0.9.d.v.v.W..X4XkXSXFXFXFXSXgXaX<X}.`.J.S.b.n.,.{ [ [ ,.l.n.p.n.l.} { U U L L L f a p a j p j I Y ",
"/./.).~.v.5.` ' ) ) ) ` 0.d.v.v.W.W.W.W./.XXpXgXAXFXFXFXSXgXaX4X5X}.].]..X].W.v.l.l.] } ,.9.n.n.v.l.n.l.d.[ [ [ [ [ _ ) ] 0.d.x.",
"1X1X1X/./.E.E._.v.v.v.W.J.W.W.].!.!.~.W.}.1XaXgXSXFXFXAXnXfXaXaX8XOX X XXX@X+X#X].b.n.l.,.] [ } i.x.l.l.x.l.y.9.>.l.9.x.v.W._.W.",
"7X1X1X1X+XXXoXoX].].].].]..X}.}.}.!.Q.D.oX1XpXgXBXBXbXCXjXaXaXaXqX:X XOX+X+X9XiX$X#X#X].b.n.} { [ ^ [ [ [ 2.[ [ 0.p._.W.~.].].].",
"7X1X4X3X1X1X1X+X+X+X+X+X+X X[.^.^.Q.Z.D.oX4XpXnXbXbXjXjXfXaXaXaXqX2X-X X*X+X3XiXiXsX$X$X#X#X`.`.b.n.} { [ } l.b.W.].@X@X$XiX@XXX",
"*X4X4X4X4X4XiX4X3X9X3X3X1X XL.K.H.D.h.C.oX1XpXnXCXnXxXfXaXpX6X4X2X2X-X X|. X+X9XtXkXkXkXkX%X$X$X@X@X#X#X$X@X$X%XsXsXsXgXgXkXsXiX",
"*X7X4X4XqX8XpXpX8XpXqX8X5X{.K.A.D.Z.r.j.oX4XaXSXCXbXjXdX4X6X<X5X5X*X*X{.`.{. X2XqXsXkXkXvXkXkXkXkXsXsXkXkXkXkXkXvXvXMXVXBXBXcXkX",
"|.7X<X;X2X4XaXaXaXiXpX4X<X{.H.A.D.V.e.V./.4XjXbXNXjXjXjXpX7X=X*X*X{.{.{.{.{.|.-X2XpXgXkXMXbXvXBXvXvXvXMXvXMXMXMXVXDXDXFXDXBXMXxX",
"{.*X7X7X2X6XqXqXpXpX8X5X*XI.L.D.F.u.q.V..X4XjXbXbXbXjXaX6X;X=X{.=X{.{.{.{.{.|.*X:X8XtXgXnXvXBXBXAXAXVXVXVXVXDXZXDXFXFXFXDXZXMXcX",
"(.*X;X<X<X2X8XqX8X9X5X*X{.L.D.D.V.w.q.Z.*XqXjXNXbXCXbXaX6X=X=X{.(.`.I.(.(.|.|.|.&X-X2XpXlXnXvXBXVXZXZXZXDXVXDXDXDXDXDXDXDXMXmXcX",
"(.=X;X;X;X5X2X2X2X<X-X{.^.L.D.Z.u.q.i.H.=XeXbXNXCXCXjXaX4X;X=X=X(.P.P.P.I.I.{.(.{.|.-X5X8XfXnXbXmXBXZXZXVXZXZXZXVXMXZXmXmXmXcXcX",
"(.=X*X*X<X<X<X*X-X|.{.^.L.A.F.m.i.*.z.U.;XaXbXNXCXbXjXjX6X6X=XR.I.K.K.K.G.P.P.L.L.'.=X-X2XwXfXlXxXcXcXmXMXmXmXzXzXhXlXzXzXzXzXzX",
"(.(.|.7X*X;X7X X|.[.P.P.A.m.g.<.>.<.B.I.;XhXCXZXCXCXjXjX6X6X;X=XR.U.Y.B.A.A.G.K.K.U.(.|.-X9X8XdXfXlXxXzXzXkXzXzXhXuXuXhXzXhXlXrX",
"I.(.=X=X*X7X|.{.(.P.G.A.f.t.;.%.~ <.A.I.:XzXCXAXSXCXjXjXeX6X6X;X=X'.B.B.N.N.M.M.B.A.K.P.`.-X5X8XtXtXfXlXlXlXlXhXhXrXlXhXhXrXrXrX",
"L.(.(.=X|.|.(.{.P.H.A.V.t.<.%.W ~ t.G.I.0XcXCXZXCXCXbXuXeX6X6X;X>X=XY.B.g.g.g.f.g.M.A.K.I.|. X5X9XwXtXtXhXrXrXrXrXhXrXrXrXrXrXtX",
"L.L.L.(.I.{.(.(.L.H.A.m.g.q.o.o.<.t.M.U.6XcXbXCXNXNXjXuX0X0X,X>X>X>X'.R.M.;.1.1.g.g.M.G.L.I.{.*X5X2X9X0XwXwXwXtXrXrXwXyXtXtXtXtX",
"F.D.L.D.H.H.G.H.H.A.Z.V.m.f.w.f.m.t.g.U.,XaXrXhXzXzXhXeX0X6X6X,XyXyXyX>XU.g.;.;.1.g.M.A.L.L.P.{.|.-X:X2X0X0XyX2X0XeXwXwXtXtXwXwX",
"f.F.A.L.D.H.D.A.Z.Z.V.V.V.C.F.F.t.t.M.U.*X6X6XeXuXuXhXeX0XqXwXdXhXuXuXyX>XG.1.<.<.w.g.M.F.A.K.L.{.`.|.&X:X:X:X:X:X0XtXtXwXtXwXwX",
"g.f.V.F.F.F.V.V.u.w.q.q.r.C.h.f.i.i.f.K.(.=X,X6XeXeXeX0X2XqXpXdXhXhXuXeX;X|.N.Z.g.g.w.g.g.M.F.K.P.`.`.`.`.&X;X:X:X9X9X9X9XwX0X9X",
"w.w.f.f.t.f.r.w.<.%.@.*.h.D.h.<.>.w.m.A.U.(.=X;X,X6X6X,X-X:X2X2XyXeXeXyX'.'.G.m.m.w.w.w.w.g.g.N.Z.G.P.`.`.`. X-X'.9X:X9X:X2X2X9X",
"6.7.7.w.w.w.-.%.@.! #.u.E.E.F.%.W %.w.m.M.A.U.(.>X;X>XI.L.P.I.(.=X=X>XR.'.U.M.m.t.t.q.-.-.;.<.w.m.A.G.G.K.P.`.`.OXOX'.#X`.:XOX'.",
"=.;.6.6.;.-.@.G G @.r.C.A.A.Z.:.v M $.q.g.h.D.L.(.{.L.M.N.z.<.<.w.M.M.B.B.B.N.Z.D.V.t.<.%.@.%.;.1.m.m.M.J.G.G.U.`.`.`.`.`.`.'.@X",
"=.=.=.=.=.X.G G F -.h.F.A.A.f.%.v d n o.;.w.f.F.A.F.t.<.%.c 7 6 9 H +.;.;.1.z.!.[.H.m.w.-.X.X.%.<.w.t.z.N.A.A.G.`.Y.`.`.`.`.`.`.",
"X.! G G ..G H H H 4.f.h.F.F.t.%.I d d M ! $.%.;.<.-.o.H k 9 4 & 4 B z H O.%.Z.OX+X`.m.,.%.$.X.$.%.%.<.i.t.m.m.N.x.N.G.G.G.P.P.P.",
"( G G G G H C m F 6.r.u.V.F.t.%.W n b c n W ! ! W X.W v s u 7 7 4 7 9 w P x.|.5X XK.g.1.:.o.X.! o.o.%.;.<.t.t.z.z.x.N.G.N.G.G.G.",
"@.! J G G C m C &.q.y.r.h.h.t.>.$.~ Y A n M H W H W H n v x s 9 9 u B H z.[.5X:X XP.N.x.1.o.o.! ! ~ o.$.%.<.1.t.T.x.x.z.z.N.z.z.",
"( ( @.J G C C H 5.e.y.u.m.V.u.8.>.$._ ^ E m v M M H M n c b x x c I o.u.[. XOX X X|.P.N.x.,.o.~ ! ! X.X.o.,.<.<.1.<.<.1.1.1.T.T.",
"J #.J #.G C C F #.7.e.u.u.c.u.i.>.,.$.~ Q n v c c c c c c g b I ~ 0.z.J.[.|.-X-XOX XP.A.x.1.%.~ ! W W Q X.o.%.,.>.<.<.%.<.<.<.<.",
"#.#.#.#.#.G F F J #.4.e.u.x.u.y.q.8.8.$.~ Y n v c k x s s c n ~ i.v.J.[.[.[.OXOXOXOX[.J.z.<.>.2.~ W E E ! @.$.%.>.>.%.$.$.,.%.,.",
"#.#.5.7.7.7.#.J C C ` 8.e.y.e.r.y.e.q.&.! Q n v c d u d d n ~ >.z.J.W.].[.#X X+XOXOX[.J.A.x.<.,.o.^ E Y E ! @.%.%.%.%.%.$.%.o.$.",
"#.5.7.7.s.s.s.7.F i y Y _ 5.q.q.y.e.8.&.$.W M v s d 0 u h ~ >.x.Z.J.!.[. X X X XOX X#XP.J.x.x.,.%.~ ~ ! E W @.%.%.%.%.$.$.$.$.$.",
"J 5.4.7.j.E.E.j.s.J i i i C J #.*.&.&.$.X.W H v B B B B I >.t.V.S.J.!.[.[..X|.}.[.[.!.J.Z.z.<.,.o._ _ @.( F Q @.%.*.*.=.$.$.*.$.",
"` 5.7.s.j.~.oXE.s.7.J i 6 4 t i B x n n v v B z l B k z W %.q.z.Z.H.H.J.J.^.J.J.Z.S.Z.z.y.>.,.o.~ ~ ! _ ( ! F X.$.&.*.%.&.$.>.>.",
"5.` 5.7.j.E.~.E.j.s.s.J B 5 4 4 4 7 0 9 9 9 9 9 9 B l k l v P 2.*.i.t.u.m.z.x.t.i.q.<.,.~ W M g a u a h C F G =.=.*.*.*.$.>.>.>.",
"` J 5.7.j.E.~.).E.E.s.7.H B 9 4 5 5 7 8 9 9 9 9 8 8 q 8 8 0 0 w l l v z v v v v v m c d u 6 & ; % & = r h F ( #.4.*.*.*.%.>.q.8.",
"5.` ` s.s._.E.E./.E.j.7.@.v l w w 0 8 q 5 7 q 7 q 8 8 q 8 0 0 0 0 0 0 0 0 0 0 0 5 4 & & & & % & - 6 t h J #.5.*.q.7.*.$.&.>.>.q.",
"_.` ` } 7.7.s.E.~.Q.C.u.6.H v l l z z l c d 0 8 5 q q q q 8 0 0 0 0 0 0 d l 0 q 8 5 4 4 4 7 7 u g Z Q 5.4.e.y.r.w.w.*.*.>.>.8.q.",
").} ' ` 5.s.s.s.E.E.C.h.7.*.H z l w z P | ~ ..P N I I I P  .2.2.T.T.Y.J.G.T.2.| P I l l c v E Q $.0.s.p.a.a.C.V.a.q.*.>.>.>.i.8.",
"_.V S ' ` 7.s.s.E.E.j.s.s.4.@.v w w w z P O.%.;.1.1.:.1.k.Y.`.`.'.'.`.B.k.:.:.O.| O.o.O.%.>.9.y.c.v.E.v.W.E.E.S.f.e.q.8.>.8.q.y.",
"@ * f S ' 5.s.s.E.E.E.s.r.7.6.H m l w w z N |  .+.+.+.:.3.k.k.3.3. .:. .:. .+.+.:.<.q.q.x.V.C.E.Q.W.W.Q.Q.Q.Q.v.c.r.i.q.8.q.q.q.",
"o + * V J ` 5.s.s.E.E.j.s.7.6.#.W v l w w z z N |  .O.| :. . . . . . . . .+.+.1.1.r.V.S.E.Q.Q.^.Q.!.!.!.~.~.D.Z.u.t.q.8.8.q.q.y.",
"o o o * V S 5.s.s.E.s.s.a.s.7.5.@.! M v l w z z N N | |  .| | |  .| | O.+.<.t.V.V.S.S.E.!.!././.^././././.~.S.c.r.e.8.<.8.q.q.y.",
"    X X * V J 5.s.E.E.s.h.a.s.7.4.&.G G N v N N N N | N N | ..| | |  .:.w.f.Z.S.D.S.Q./.}./.}.}.}.^.^.}./.!.E.u.i.q.8.>.8.8.8.q.",
"o       o 1 S 5.s.s.a.E.C.a.a.e.e.4.&.@.X.G W G ..........W ....X.%.<.r.h.C.D.Q.~.~./.oX.X.XoXoX.X{.}.}.!.W.V.q.>.8.&.8.8.8.8.4.",
"          O t F 5.s.E.E.C.C.C.a.e.4.4.*.=.@.@.@.X.X.X.@.@.@.$.*.-.<.r.r.z.S.Q.Q././.oXoXXXXX+XXXXXXXXX}.Q.Z.y.8.8.&.8.8.*.4.&.&.",
"      X . . O f ' 7.a.E.C.C.C.C.a.s.r.0.4.*.=.@.@.@.@.@.@._ $.*.6.6.r.r.Z.E.Q.^.oX7X1X1X3X3X4X4X9X1XXX/.Q.c.y.8.&.>.*.&.*.&.$._ ",
"            o * V 5.s.c.C.E.S.C.C.j.h.u.r.8.q.4.$.$.%.@.$.&.>.e.r.u.v.S.Q.^.}..XXX1X4XiX4X3X4XiXiX1XoX^.S.y.q.8.&.&.&.&.&.&.$.( "
};
