/* XPM */
static char *_9a1edb21f674a48af3ed03247f62637[] = {
/* columns rows colors chars-per-pixel */
"64 64 222 2 ",
"   c #030202",
".  c #040D02",
"X  c #03020A",
"o  c #0C0B0B",
"O  c #070A09",
"+  c #0A1403",
"@  c #0D1C0A",
"#  c #0D170A",
"$  c #131A09",
"%  c #0C0C11",
"&  c #141414",
"*  c #1A1B1B",
"=  c #171913",
"-  c #180E0D",
";  c #211A0A",
":  c #291409",
">  c #37170C",
",  c #3A1A13",
"<  c #2B120C",
"1  c #13230C",
"2  c #142A0E",
"3  c #1A2D0E",
"4  c #1B270F",
"5  c #1C330D",
"6  c #152211",
"7  c #1B2414",
"8  c #1B2B13",
"9  c #1C2918",
"0  c #1D3213",
"q  c #1E3219",
"w  c #0F2109",
"e  c #2D210E",
"r  c #20350D",
"t  c #233D0E",
"y  c #212914",
"u  c #212C1B",
"i  c #2E2B1C",
"p  c #392615",
"a  c #233414",
"s  c #253C14",
"d  c #293D16",
"f  c #24351B",
"g  c #273B19",
"h  c #2B3C1C",
"j  c #2B3515",
"k  c #333A19",
"l  c #171C20",
"z  c #211F20",
"x  c #1C2722",
"c  c #1D322D",
"v  c #222923",
"b  c #232C2D",
"n  c #252627",
"m  c #263222",
"M  c #2C3423",
"N  c #2A3B23",
"B  c #29342B",
"V  c #31382B",
"C  c #2D3433",
"Z  c #373736",
"A  c #4C1A0D",
"S  c #461A0F",
"D  c #511A0E",
"F  c #4C1D12",
"G  c #401A11",
"H  c #492815",
"J  c #572C15",
"K  c #5B2D15",
"L  c #572917",
"P  c #5B3015",
"I  c #573117",
"U  c #532B13",
"Y  c #63321B",
"T  c #693316",
"R  c #773A18",
"E  c #511F22",
"W  c #503424",
"Q  c #693520",
"!  c #6B3221",
"~  c #314D0D",
"^  c #254113",
"/  c #2B4414",
"(  c #2D4B15",
")  c #2B441D",
"_  c #2E4A1C",
"`  c #334D14",
"'  c #32471C",
"]  c #334C1C",
"[  c #335414",
"{  c #3A5715",
"}  c #395D15",
"|  c #35521B",
" . c #3A551B",
".. c #3B5B1B",
"X. c #365A1A",
"o. c #34580E",
"O. c #3D6514",
"+. c #3F6913",
"@. c #3D621D",
"#. c #3E6C13",
"$. c #2D4722",
"%. c #324525",
"&. c #344D23",
"*. c #3A4E20",
"=. c #394F28",
"-. c #355323",
";. c #3B5322",
":. c #3D5A22",
">. c #385729",
",. c #374237",
"<. c #415D1B",
"1. c #7B4018",
"2. c #43690E",
"3. c #467F04",
"4. c #4A7F04",
"5. c #43730E",
"6. c #467C0C",
"7. c #4B7E0B",
"8. c #4A760C",
"9. c #426514",
"0. c #436C14",
"q. c #42651C",
"w. c #446C1C",
"e. c #4A6C1C",
"r. c #48661D",
"t. c #457313",
"y. c #4B7514",
"u. c #477D12",
"i. c #4C7C13",
"p. c #46731A",
"a. c #4A741B",
"s. c #4C7B19",
"d. c #507F15",
"f. c #517C1D",
"g. c #52741C",
"h. c #425D27",
"j. c #435036",
"k. c #7C4527",
"l. c #446322",
"z. c #4A6D25",
"x. c #486528",
"c. c #4D7A22",
"v. c #4A7520",
"b. c #537B21",
"n. c #3A4548",
"m. c #445546",
"M. c #595B56",
"N. c #565A53",
"B. c #494C4F",
"V. c #546059",
"C. c #515860",
"Z. c #5B6866",
"A. c #697879",
"S. c #797978",
"D. c gray42",
"F. c #8F3F0C",
"G. c #853F1B",
"H. c #8D430C",
"J. c #8E4407",
"K. c #954303",
"L. c #994203",
"P. c #94440B",
"I. c #9B420B",
"U. c #8C4313",
"Y. c #864419",
"T. c #934617",
"R. c #854222",
"E. c #468203",
"W. c #498202",
"Q. c #468109",
"!. c #4C820B",
"~. c #4F890E",
"^. c #51830D",
"/. c #4D8212",
"(. c #528414",
"). c #53831A",
"_. c #568815",
"`. c #538223",
"'. c #74847A",
"]. c #7B8A8C",
"[. c #778787",
"{. c #7F9191",
"}. c #799B8A",
"|. c #878A8A",
" X c #859697",
".X c #989897",
"XX c #8A98A0",
"oX c #93A8A8",
"OX c #9AACB3",
"+X c #B2B1AF",
"@X c #A5BCBD",
"#X c gray64",
"$X c #A6C1AE",
"%X c #B3CBCD",
"&X c #BAD6D9",
"*X c #ABC8CB",
"=X c #B7EBDF",
"-X c #B8EADF",
";X c #B7ECE0",
":X c #B9ECE1",
">X c #C2D8DB",
",X c #D7D6D9",
"<X c #CACACA",
"1X c #C3ECDC",
"2X c #C2DEE1",
"3X c #C3EBE2",
"4X c #C4E5E9",
"5X c #C9EAED",
"6X c #C7E7E8",
"7X c #D1EBEC",
"8X c #C8EDF3",
"9X c #CBFBFF",
"0X c #CAF6F7",
"qX c #D1F5FA",
"wX c #D3FDFD",
"eX c #DAFFFF",
"rX c #D6F8F5",
"tX c #EDECED",
"yX c #E3E2E3",
"uX c #FEFEFE",
"iX c #F9F9F6",
"pX c #F1F6EF",
/* pixels */
"9X9X9X9X9X9X9X9X9X9X9X9X9X9X9X9X9X9X9X9X9X9X9X9X9X9X9X9X9X9X9X9X9X9X9X9X9X9X9X9X9X9X9X9X9X9X9X9X9X9XqX9X9X9X9X9X9X9X9X9X9X9X9X=X",
"9X9X9X9X9X9X9X9X9X9X9X9X9X9X9X9X9X9X9X9X9X9X9X9X9X9X9X9X9X9X9X9X9X9X9X9X9X9X9X9X9XqX9X9X9X9X9X9XwX9X9X9X9X9X9X9X9X9X9X9X9X9X9X=X",
"9X9X9X9X9X9X9X9X9X9X9X9X9X9X9X9X9X9X9X9X9X9X9X9X9X9X9X9X9X9X9X9X9X9X0X0XqX5X5X5X5X5X0X9XqX9X9X9XwX4X5X5X5X5X5X5X5XrX9X0X9X9X9X=X",
"9X9X9X9X9X9X9X9X9X9X9X9X9X9X9X9X9X9X9X9X9X9X9X9X9X9X9X9X9X9X9X9X9X9X5X.Xa ~ ~ ~ ~ r  XqX9XwXqXOXV ^ ~ ~ ~ ~ ~ ~ ~ 1 oX5X9X9X9X=X",
"9X9X9X9X9X9X9X9X9X9X9X9X9X9X9X9X9X9X9X9X9X9X9X9X9X9X9X9X9X9X9X9X7X].@ a.3.W.W.W.W.4.5 *XqXwX,.l.Q.W.W.W.W.W.E.W.W.W.b.$ 7X0XwX=X",
"9X9X9X9X9X9X9X9X9X9X9X9X9X9X9X9X9X9X9X9X9X9X9X9X9X9X9X9X9X9X0XrXZ.g.W.E.E.E.W.W.W.W.4.r.6 Z.w.3.3.!.W.E.W.W.E.W.W.W.E.d.r 6X0X-X",
"9X9X9X9X9X9X9X9X9X9X9X9X9X9X9X9X9X9X9X9X9X9X9X9X9X9X9X9X9X9X9X X@.W.W.W.W.W.W.W.E.W.W.3.c.s !.W.W.W.W.W.W.W.W.W.W.W.W.W.d.u 5X-X",
"9X9X9X9X9X9X9X9X9X9X9X9X9X9X9X9X9X9X9X9X9X9X9X9X9X9X9X9X9X9X@X^ W.E.W.W.W.W.W.W.W.W.W.E.s s.E.4.W.W.W.W.W.W.W.W.W.W.W.W.W.i.%.3X",
"9X9X9X9X9X9X9X9X9X9X9X9X9X9X9X9X9X9X9X9X9X9X9X9X9X9X9X9X9XeX,./.W.E.E.W.W.3.3.W.E.W.!.W.%.`.c.c.f.c.b.b.d.7.6.W.W.W.W.W.W.W.p.n.",
"9X9X9X9X9X9X9X9X9X9X9X9X9X9X9X9X9X9X9X9X9X9X9X9X9X9X9X9X9X XO.W.W.!.Q.!.Q.!.W.W.W.W.!.z.@ h.s.a.p.a.a.a.<. .@ g s.E.W.E.W.W.Q.@.",
"9X9X9X9X9X9X9X9X9X9X9X9X9X9X9X9X9X9X9X9X9X9X9X9X9X9X9X9XeXm./.b._ q >.>.>.f 2 ..).!.d _ 7.W.W.W.W.W.W.W.3.W.W.p.1 p.W.3.W.W.E.Q.",
"9X9X9X9X9X9X9X9X9X9X9X9X9X9X9X9X9X9X9X9X9X9X9X9X9X9X9X9X&X& a ..t.6.E.7.Q.W.i.w.x.m -.W.E.W.E.W.4.W.W.W.W.W.W.E.b.6 a.E.W.W.W.E.",
"9X9X9X9X9X9X9X9X9X9X9X9X9X9X9X9X9X9X9X9X9X9X9X9X9X9X9X3X* l.^.E.E.E.E.W.W.4.W.!.6 O.!.W.W.W.W.W.W.W.W.W.W.W.W.W.E.!.Q.W.W.W.W.E.",
"9X9X9X9X9X9X9X9X9X9X9X9X9X9X9X9X9X9X9X9X9X9X9X9X9XwX|.g s.3.W.W.W.W.W.W.W.3.!.' 0.E.W.W.W.W.W.W.W.W.W.W.W.W.W.W.W.W.W.W.W.W.E.E.",
"9X9X9X9X9X9X9X9X9X9X9X9X9X9X9X9X9X9X9X9X9X9X9X9X9XXX] !.W.W.W.W.W.E.W.W.W.3.d.8 7.W.4.3.4.W.W.W.3.W.W.4.W.W.W.W.W.W.W.E.W.W.W.E.",
"9X9X9X9X9X9X9X9X9X9X9X9X9X9X9X9X9X9X9X9X9X9X9X9X2X/ E.E.W.E.W.W.W.W.W.W.W.E./ a.!.!.^.!.^.(.^.^.(.!.!.W.E.W.!.E.W.W.W.W.W.W.W.E.",
"9X9X9X9X9X9X9X9X9X9X9X9X9X9X9X9X9X9X9X9X9X9X9X3X& @.9.+.2.8.!.W.E.W.W.E.W.y.u ..a ^ / ) m # 9 9 4 8 %.&.&.=.$...7.W.E.W.W.W.W.E.",
"9X9X9X9X9X9X9X9X9X9X9X9X9X9X9X9X9X9X9X9X9X9X{.9 l.l.l.h.| N f ..W.W.W.W.W. .V ..).y.] 2 ( d.t.r.0.0.0.y.y./.(.q.8 <.7.W.W.W.W.E.",
"9X9X9X9X9X9X9X9X9X9X9X9X9X9X9X9X9X9X9X9X0XA.M 5 { .. ... .) ) 0.E.W.W.W.W.d h.4.i.6 s.!...0 ' w.p.p.w.X...5 g @.d.s r.W.E.W.W.E.",
"9X9X9X9X9X9X9X9X9X9X9X9X9X9X9X9X9X9X9X9X*XZ @.w.g d d d s *.f.' ' 6.E.Q.] :.W.q.1 a.y.f ..!.3.3.W.W.W.W.E.W.!.h.@ f.0 q.W.W.W.E.",
"9X9X9X9X9X9X9X9X9X9X9X9X9X9X9X9X9X9X9X9XrXq a.0 !.4.4.4.4.e.+  .c.6 !.E.2 W.] '  .6 g ).W.E.E.3.W.W.W.W.3.W.W.W.).m ~.8 /.!.W.E.",
"9X9X9X9X9X9X9X9X9X9X9X9X9X9X9X9X9X9X9X9X9Xm . u.y. .=.' ' ` ' * ' i.3.6.d z./ 5 & Z ,.,.M o # # u a ) *.=.&.=.x.a.g ' g /.E.W.E.",
"9X9X9X9X9X9X9X9X9X9X9X9X9X9X9X9X9X9X9X9XwX& = s Z tX.X    X - X |.<.3.7.>.1 b.S.iXuXuXtXo O X O   +Xn B.iXuXiX|.y c.f.s.E.W.W.E.",
"9X9X9X9X9X9X9X9X9X9X9X9X9X9X9X9X9X9X9X9X8Xz |.iXiXuX- M.-   |.N.S.B.c.7.%.s.( tXuXuXuX<X  #XyXo   = X   ,Xv  .i./.Q.E.W.W.E.W.E.",
"9X9X9X9X9X9X9X9X9X9X9X9X9X9X9X9X9X9X9X9X0X& iXuXuXuXX uXM.        pX. 7.2 3.x uXuXuXuX<X  D.uXv   ,X    = i.!.!.3.E.W.W.W.W.W.E.",
"9X9X9X9X9X9X9X9X9X9X9X9X9X9X9X9X9X9X9X9X8X*.x tXuXuX% V &   S.o   iX= !.} q.,XuXuXuXuXtX    % X X o . :.E.E. .] W.W.W.W.W.W.W.E.",
"9X9X9X9X9X9X9X9X9X9X9X9X9X9X9X9X9X9X9X9X9X6 c.v .X<X|.o           |.C i.} o .XyXuXuXuXuXZ     7 z.y.!.Q.W.a ..^.W.W.W.E.W.E.W.E.",
"9X9X9X9X9X9X9X9X9X9X9X9X9X9X9X9X9X9X9X9X9X5Xw ).5.} 9.9.+.2.2.q.2.5.^.6.5 f.2.N M.V.V.m.$...+.!.3.W.).#.3 <.7.W.W.W.W.W.W.W.W.E.",
"9X9X9X9X9X9X9X9X9X9X9X9X9X9X9X9X9X9X9X9X9X9X%X= g.7.7.!.4.W.W.!.a.q.t 3.q.h ..!._._.)._.(.@.} ^ s $.) { /.W.W.3.W.W.W.W.W.W.W.E.",
"9X9X9X9X9X9X9X9X9X9X9X9X9X9X9X9X9X9X9X9X9X0X].*  . .8.W.!._ ) %.* / 7.E.W.!.} * ) ] | [ ( O.2.i.^.!.W.4.W.W.W.W.W.W.W.W.W.W.W.E.",
"9X9X9X9X9X9X9X9X:X9X9X9X9X9X9X9X9X9X9X9X9X6X` i.g ' | 6.E.^.l.a w.E.3.W.W.3.!.[ -.W.W.W.W.E.E.4.E.E.W.W.W.W.W.W.W.W.3.i.!.W.W.E.",
"9X9X9X9X9X9X9X9X9X9X9X9X9X9X9X9X9X9X9X9XqXb 7.4.W.!.!.E.3...a !.4.W.W.W.W.E.W.E.^ ) /.W.W.W.W.W.W.W.4.E.W.W.W.W.W.W.p.g -.!.W.E.",
"9X9X9X9X9X9X9X9X9X9X9X9X9X9X9X9X9X9X9X9X@X/ W.W.W.E.E.W.@.f ^.E.W.W.W.W.E.W.W.E.3...N s.W.W.W.W.W.W.W.W.W.W.W.4.W.W.!.^.W.E.W.E.",
"9X9X9X9X9X9X9X9X9X9X9X9X9X9X9X9X9X9X9X:X- ..4.W.W.W.W.W.[ !.W.W.W.W.W.W.W.W.W.W.W.4.s.5 f w.!.W.E.W.W.W.W.W.W.W.W.0.5 8 ) y.W.E.",
"9X9X9X9X9X9X9X9X9X9X9X9X9X9X9X9X9X9X9X.XT.j 4.W.W.W.W.E.6.E.W.W.W.W.W.W.W.E.W.W.E.W.E.W.(.r a l.7.W.W.W.W.W.W.W.!.8.t.r.j.9 @.E.",
"9X9X9X9X9X9X9X9X9X9X9X9X9X9X9X9X9X9X9X|.Y.p d.W.W.W.W.W.W.W.W.W.W.W.W.W.W.W.W.W.W.W.W.W.4.W.W.(.7.W.3.4.!.4.6.<.; > R Y.I v.#.E.",
"9X9X9X9X9X9X9X9X9X9X9X9X9X9X9X9X9X9X9XqX= R.:.4.W.W.W.W.W.W.W.W.W.W.W.W.W.W.W.W.E.W.W.W.W.W.3.3.4.7.d.g...a : Y.P.R K L.T 0.W.E.",
"9X9X9X9X9X9X9X9X9X9X9X9X9X9X9X9X9X9X9XrX4XH - a.!.W.W.!.^.W.W.4.W.!.W.W.W.W.W.W.E.Q.4.4.3.W.c.h ; < H R.F.T.F.Y.> T P.Q u /.W.E.",
"9X9X9X9X9X9X9X9X9X9X9X9X9X9X9X9X9X9X%X& A.b k.P = 7.W.W.W.4.W.W.4.!.W.!.W.!.^.3./.c.<.] y ; W F.L.L.L.K.H.Y.H E J.T.: @.Q.W.W.E.",
"9X9X9X9X9X9X9X9X9X9X9X9X9X9X9X9X9X9XOX@.3 [., G.H.H y > e e e e > e e e e , H I T 1.H.F.H.L.L.L.P.U.Y > F R F.I.! u u.W.W.W.W.E.",
"9X9X9X9X9X9X9X9X9X9X9X9X9X9X9X9X9X9X].).u.- U., R K.K.K.K.J.K.K.K.K.K.J.K.K.K.I.I.U.T L S A S , K R G.F.P.U.T i x.4.W.E.W.W.W.E.",
"9X9X9X9X9X9X9X9X9X9X9X9X9X9X9X9X9XwXC !.!.+ P.P.Y F S A A D D D A D D A D A F , J R R H.K.P.K.K.L.L.L.T.: ..t.!.W.4.W.W.W.W.W.E.",
"9X9X9X9X9X9X9X9X9X9X9X9X9X9X9X9X9XwXB !.!.f , J.L.H.H.P.P.P.P.P.P.P.P.K.P.I.P.K.K.K.K.L.K.K.K.L.L.P.R e c.W.E.W.4.W.W.W.W.W.E.E.",
"9X9X9X9X9X9X9X9X9X9X9X9X9X9X9X9X9XeXO W.W.@.XXY K.K.L.L.L.L.K.L.L.L.L.K.K.L.L.K.K.K.L.L.K.L.L.T.K p ` /.W.W.E.W.W.W.W.W.W.E.W.E.",
"9X9X9X9X9X9X9X9X9X9X9X9X9X9X9X9X9XeXB ^.W.z.>XM Y U.F.K.L.L.L.L.L.K.L.K.L.L.K.L.K.K.T.T K U H j @.^.W.Q.W.W.W.W.W.W.W.W.W.W.W.E.",
"9X9X9X9X9X9X9X9X9X9X9X9X9X9X9X9X9XwXM W.W.w.&X;.O.j H J J K P P P P K I I P P H W W k [ 2.7.^.W.E.W.W.W.W.W.W.W.W.W.W.W.W.W.W.E.",
"9X9X9X9X9X9X9X9X9X9X9X9X9X9X9X9X9XwX. ] 0.<.>X8 4.W.^.(._.(.(.(._.(././.(./.(.(.E.W.!.W.W.4.W.W.W.W.W.W.W.W.W.W.W.W.W.W.W.W.W.E.",
"9X9X9X9X9X9X9X9X9X9X9X9X9X9X9X9X9XwX  l.^.] rX[.p.7.Q.W.W.W.W.E.E.W.W.W.W.W.W.W.E.E.W.W.W.W.W.W.W.W.W.W.E.W.W.W.W.W.W.W.W.W.W.E.",
"9X9X9X9X9X9X9X9X9X9X9X9X9X9X9X9X9X9X  @ 9.@.&X9Xm !.4.W.W.W.W.W.W.W.W.W.W.W.W.W.W.W.W.W.W.W.W.W.W.W.W.W.E.W.W.W.W.W.W.W.W.W.W.E.",
"9X9X9X9X9X9X9X9X9X9X9X9X9X9X9X9X9X8X+ W.W.0.&X9X].X.3.W.W.W.W.W.W.W.W.W.W.W.W.W.W.W.W.W.W.W.W.W.W.W.W.W.W.W.W.W.W.W.W.W.W.W.W.E.",
"9X9X9X9X9X9X9X9X9X9X9X9X9X9X9X9X9X8X+ W.W.q.&X9XwXb x.y.E.E.W.W.W.W.W.W.W.E.W.W.W.W.W.W.W.W.W.W.W.W.E.W.W.W.W.W.W.W.W.W.W.W.E.E.",
"9X9X9X9X9X9X9X9X9X9X9X9X9X9X9X9X9X8X+ W.W.a.M.O A.b y y ` W.4.E.W.W.W.W.W.W.W.E.W.W.E.W.W.W.E.W.W.W.W.W.W.W.W.W.W.W.W.W.W.E.E.E.",
"9X9X9X9X9X9X9X9X9X9X9X9X9X9X:XwXC.% 6 W.4. .f /.z.8 !.W.) a W.W.E.W.W.W.W.W.W.W.W.W.W.W.W.W.W.W.W.W.W.W.W.W.W.W.W.E.W.W.W.W.W.E.",
"9X9X9X9X9X9X9X9X9X9X9X9X9X9X:X6 @.w.@ W.W.&.0.E.W.$ t.E.!.5 9.W.W.W.W.W.W.W.W.W.E.W.W.W.W.W.W.W.W.W.W.W.W.W.W.W.W.E.~.W.W.W.E.~.",
"9X9X9X9X9X9X9X9X9X9X9XqXOX XC l.4./.@ !.4.q.` E.W.w.` W.E.O.( E.W.W.W.W.W.W.W.E.E.E.W.W.W.W.W.W.W.W.W.W.W.W.W.W.W.W.W.W.W.W.E.E.",
"9X9X9X9X9X9X9X9X9X9X9X}.2 / ` E.!.E.) _.W.y.a E.W.!.u W.W.a.s E.W.W.W.W.W.W.W.!.W.E.W.W.W.W.W.E.W.W.E.W.W.W.E.W.E.W.W.W.W.W.E.E.",
"9X9X9X9X9X9X9X9X9X9XqXx t.} [ W.W.W.$.`.4.W.7.W.E.c.' W.W./.@ ^ ).E.!.3.W.W.W.3.W.W.E.W.W.W.W.W.W.W.W.W.W.W.W.W.W.W.W.E.W.W.W.~.",
"9X9X9X9X9X9X9X9X9X9XwXv !.y.^ E.W.W.<.0.7.W.W.W.W.!.t.W.W.W.2 $XV.^ W.W.W.W.W.W.W.E.W.W.W.W.W.W.W.W.W.W.W.W.W.W.W.W.W.W.W.W.E.E.",
"9X9X9X9X9X9X9X9X9X9XwXh W.~.7 W.E.W.} @.W.W.W.W.W.W.W.E.W.E.^ [.wX Xr E.!.W.W.W.W.W.W.W.W.W.W.W.W.W.W.W.W.W.W.W.W.W.W.W.W.E.E.E.",
"9X9X9X9X9X9X9X9X9X9XeXM W.!.9 ~.W.W.6.y.W.W.W.W.W.W.W.W.W.E.).v eXwX].t E.W.3.W.W.W.W.W.W.W.W.W.W.W.W.W.W.W.W.W.W.W.W.W.W.W.E.E.",
"9X9X9X9X9X9X9X9X9X9XeXm W.W.8 _.W.W.W.E.W.3.W.W.W.W.W.E.W.W.W.0 5X9X9XZ.] W.W.W.W.W.W.W.W.W.W.W.W.W.W.W.W.W.W.E.W.W.W.W.W.W.W.~.",
"9X9X9X9X9X9X9X9X9X9X9Xb i.Q.5 w.W.W.W.W.W.W.W.W.E.W.W.W.W.E.W.z.A.9X9X0Xn.a.W.W.W.E.W.W.W.E.W.W.W.W.W.W.W.W.W.W.W.W.W.W.W.W.E.E.",
"9X9X9X9XwX9X9X9X9X9X9XoX( Q.p.a W.E.4.W.W.W.E.3.W.E.W.W.E.Q.6.5 %X9X9X9XwXV.f.W.E.W.W.W.W.W.E.W.E.E.W.W.E.W.E.E.W.W.W.W.E.E.E.E.",
";X;X;X;X;X;X;X;X=X=X:X:Xc u./.0 Q.E.Q.E.3.E.E.Q.3.E.E.E.E.E.[ [.-X-X;X:X:X1X2 6.Q.E.Q.E.E.E.E.E.E.E.E.E.Q.E.E.E.E.E.E.E.E.E.E.E."
};
