/* XPM */
static char *resizegena4[] = {
/* columns rows colors chars-per-pixel */
"64 64 256 2 ",
"   c #1B1415",
".  c #1A1917",
"X  c #1C1618",
"o  c #1D1C1B",
"O  c #171616",
"+  c #1C0E0F",
"@  c #221D1C",
"#  c #281619",
"$  c #38151B",
"%  c #2F0D10",
"&  c #24211E",
"*  c #2B211E",
"=  c #35221D",
"-  c #3A1E21",
";  c #262321",
":  c #2B2523",
">  c #2C2926",
",  c #2E2B29",
"<  c #322523",
"1  c #342926",
"2  c #342C2A",
"3  c #3B2C2A",
"4  c #3A2825",
"5  c #35312D",
"6  c #3C322E",
"7  c #3B3531",
"8  c #3D3935",
"9  c #393835",
"0  c #352E35",
"q  c #1F201B",
"w  c #412D2B",
"e  c #462727",
"r  c #43322F",
"t  c #4A322E",
"y  c #562B32",
"u  c #443432",
"i  c #4A3533",
"p  c #4B3A36",
"a  c #433D3A",
"s  c #4D3C3A",
"d  c #443A35",
"f  c #523B36",
"g  c #533E3B",
"h  c #5B3D3B",
"j  c #593437",
"k  c #53302E",
"l  c #633B3D",
"z  c #67353A",
"x  c #47161D",
"c  c #44423D",
"v  c #4C423D",
"b  c #54423D",
"n  c #59433E",
"m  c #5C483F",
"M  c #63433E",
"N  c #4E3E41",
"B  c #6A3D42",
"V  c #733D43",
"C  c #454543",
"Z  c #4A4541",
"A  c #4C4A44",
"S  c #4E4E4A",
"D  c #464847",
"F  c #544441",
"G  c #5B4542",
"H  c #534B44",
"J  c #5B4B45",
"K  c #514E4A",
"L  c #5C4E49",
"P  c #51464A",
"I  c #4F504B",
"U  c #54534C",
"Y  c #59554D",
"T  c #58544A",
"R  c #545451",
"E  c #5A5651",
"W  c #5B5952",
"Q  c #5A5957",
"!  c #544F51",
"~  c #634542",
"^  c #6B4344",
"/  c #644B45",
"(  c #6A4B45",
")  c #644E4A",
"_  c #6C4D4A",
"`  c #6F4748",
"'  c #724549",
"]  c #724C4C",
"[  c #78474B",
"{  c #64524C",
"}  c #6C524C",
"|  c #6C574C",
" . c #73544D",
".. c #74594D",
"X. c #79564E",
"o. c #794E51",
"O. c #6C5452",
"+. c #625A53",
"@. c #6D5C54",
"#. c #685B59",
"$. c #745552",
"%. c #7A5553",
"&. c #755A53",
"*. c #7B5C54",
"=. c #7D5D5A",
"-. c #745B59",
";. c #6B4E50",
":. c #6C635D",
">. c #65635C",
",. c #7C6156",
"<. c #7D625B",
"1. c #76655A",
"2. c #655D65",
"3. c #6C6966",
"4. c #756A65",
"5. c #7D736C",
"6. c #7B7776",
"7. c #6C6A76",
"8. c #505666",
"9. c #824648",
"0. c #874B54",
"q. c #815D56",
"w. c #825D5A",
"e. c #87555A",
"r. c #90585A",
"t. c #84645C",
"y. c #89645D",
"u. c #84695D",
"i. c #86685B",
"p. c #91635D",
"a. c #8C5B60",
"s. c #955A62",
"d. c #846561",
"f. c #8B6562",
"g. c #856B63",
"h. c #8B6B63",
"j. c #8C6E6A",
"k. c #876969",
"l. c #916C65",
"z. c #936C6A",
"x. c #976767",
"c. c #8C7264",
"v. c #8D726B",
"b. c #897368",
"n. c #927565",
"m. c #94746C",
"M. c #95796B",
"N. c #9A7A6E",
"B. c #9A746E",
"V. c #877C76",
"C. c #967A74",
"Z. c #9C7C72",
"A. c #9C7D7A",
"S. c #987473",
"D. c #A16C6E",
"F. c #A46C73",
"G. c #A27C74",
"H. c #A47D7A",
"J. c #A77777",
"K. c #B37A7D",
"L. c #8C837C",
"P. c #9C837B",
"I. c #978378",
"U. c #A4837B",
"Y. c #AB847C",
"T. c #AC897E",
"R. c #A98176",
"E. c #B2877D",
"W. c #797B83",
"Q. c #9E7C83",
"!. c #7A8192",
"~. c #89868A",
"^. c #948982",
"/. c #988A83",
"(. c #9C928B",
"). c #959599",
"_. c #8A8C94",
"`. c #AD8B83",
"'. c #A88786",
"]. c #B48C83",
"[. c #BA8D85",
"{. c #B58D8B",
"}. c #BB8D8B",
"|. c #B68486",
" X c #A6938C",
".X c #BA9187",
"XX c #B3938B",
"oX c #BB938B",
"OX c #BC998E",
"+X c #B59489",
"@X c #A89C95",
"#X c #BD9591",
"$X c #BB9B92",
"%X c #B49793",
"&X c #BD8F92",
"*X c #B7A39A",
"=X c #AEA29B",
"-X c #9C9DA4",
";X c #9EA1A9",
":X c #A4A5AA",
">X c #B5A9A1",
",X c #A7ABB5",
"<X c #ADB3BC",
"1X c #B6B6BC",
"2X c #B2ADB3",
"3X c #C18D88",
"4X c #C3938D",
"5X c #C2998D",
"6X c #C18D92",
"7X c #C49592",
"8X c #C39B93",
"9X c #CB9B94",
"0X c #C59B99",
"qX c #CC9C9A",
"wX c #CA9594",
"eX c #D19C9D",
"rX c #C5A39B",
"tX c #CBA29C",
"yX c #C9A69A",
"uX c #D4A59D",
"iX c #CDA4A1",
"pX c #CAAAA2",
"aX c #D4A3A4",
"sX c #D2ABA3",
"dX c #DCAAAC",
"fX c #D8A9A8",
"gX c #D4B2A4",
"hX c #DBB4AB",
"jX c #D9B5A8",
"kX c #DCB8B3",
"lX c #CAB6AE",
"zX c #E3B8AB",
"xX c #E6B9B5",
"cX c #E2ADAE",
"vX c #CB9AA0",
"bX c #CFC3BA",
"nX c #E7C3BA",
"mX c #F3C4BC",
"MX c #B6BBC5",
"NX c #ADB5C8",
"BX c #EEBBC0",
"VX c #BBC2CD",
"CX c #BCC3D0",
"ZX c #C7CCD6",
"AX c #CED0D7",
"SX c #F8C9C8",
"DX c #EECBC9",
"FX c #D4DAE5",
"GX c #DDE2E9",
"HX c #DFE6F0",
"JX c #E5EBF6",
"KX c #ECF3FA",
"LX c #FBFEFF",
"PX c #F3F9FD",
"IX c #E5E9EC",
"UX c #E0DFE4",
/* pixels */
"U U U U U U W W W U W U W T W U U U Y W U A 8 : > , , , 7 d :.^.(.5.4.W K v Z A +.V.V.5.>.T H T T W T W W W W U W U W U U W W U ",
"U U U U W U U U W W U U U W T T Y W Y c , q & ; > > 7 8 c v :.^.@X>XL.K d A A A W 3.^.>X>X XL.>.+.W Y W U W U W U W U W W U U W ",
"U U T U U T W T T T W W W U W U U c > q & , , 5 5 8 7 d T V.@XbX^.6.W 7 8 c 8 5 , 5 d >. XlXbXlXI.3.+.W W W W W W U W R U W Q W ",
"T U Y T W T U T U T T T U U W I 5 q q 5 5 5 5 , 5 +.L.4.5.L.@X=X(.:.6 5 5 7 8 c 9 d c L >.b.I.lXbXlXI.4.T T U W U W U W W U W U ",
"U U U U U U W U T U W T U W D q q & , > > , c A A c 4.L.I.bX@X5.K F d 5 , , > & > , 8 A @.V./.V.I.>XlX=XL.T U T W U U W W U W U ",
"T U U U T T T T T U U U W D q q > , ; ; : 5 7 7 8 5 1 5 2 A 5.:.v v 7 1 > * & > > , a K :.V./.(.@XI.I.@X=XI.3.W W W U U U W U W ",
"T I T U T W U T T T T W A q q > : : : > 5 5 * & q & : : 1 1 d b J v r r r 5 > & ; & @ @ : a b.@X=X>X@XL.(.I.^.L.>.U W W U W W U ",
"I T T U T U T W W T T A > q q > : & > 7 5 > & & * * 4 6 v J | @./ b m b v w 2 * : : & & : @ @ Z L.>X@XL.5.=XL.3.>.W U W W W U W ",
"U U U U U U T T U W U c q q > > : : > , > o @ * 1 u b ) -.g.g.=. .| -.$.J m f u r 3 2 : @ @ @   > (.@X4.+.4.@XL.>.>.W W T T W W ",
"U U U U U U T U U U c 9 > q > > & @ & @ o : 1 r f J ,.j.C.Z.v.i.t.h.b.t.*.%.) ~ b v b i 7 > @ @ O o V.L.v 5 >.I.5.I T T T T T T ",
"T U U U T T T U U A q > > , q q o ; & o 1 7 p m { &.h.m.Z.M.m.B.N.m.m.z.z.c.k.<.O.{ G J G J 6 * o O q W +.5 6 >.V.4.c W W U T T ",
"U U U U T T U I W 5 q q > q q q @ * : 3 6 p n { ..i.c.N.Z.N.N.G.G.N.G.Y.H.'.U.m.c.t.*.} O.@.J 2 @ . . & U v > 8 T W A A W U U W ",
"U U U U T T I U A & > ; q q q q . * 1 d p b / ..,.c.m.N.Z.Y.T.T.Y.T.{.{.oXoX{.'.H.Z.m.g.<.$.{ d 1 @ o . 5 c 5 6 8 5 c I W W T W ",
"U T U T T T T T 8 o q o q q . q o 2 r p b n | t.M.U.`.`.].#X#X#X#X#X#X#X8XiXiX$X%X{.'.'.m.,./ p 5 @ @ o & 8 5 5 5 5 8 c W W T T ",
"I U U U U U U A > . q & q . q . : u d b m @.g.V.C./.XXXX{.8X0X0XtXiXsXiXiXlXdXdXiXrX*X%X'.m.} f 6 : @ o q 7 5 5 q , 5 5 C >.U W ",
"U U U U U U I c , q q o O q . . 2 p p f J { O.) ) ) k.C.S.'.{.&X0XtXaXsXsXfXkXkXxXnXkXfX*XU.&.b w 1 ; @ q > 5 > 5 q 5 5 9 W W U ",
"U U U U U U U I 5 q q . o o . : u r d s w * * = : < u N ;.w.j.Q.{.7X0X0XvXvXiXkXkXBXDXDXkXpX/.O.w 3 > ; ; ; , , ; o , , ; 9 Q ! ",
"U U U U U U I I : q q o O o . 3 r i g p r i u 3 1 < 3 < u n B w.S.J.|.|.'.|.'.{.%X'.(.'. X X'.k.F 2 1 > o ; : ; o @ ; ; ; 0 E R ",
"U U T U U U T A : . o . o o , 6 u J } } ;.;.;.L G i i 4 4 w j ` a.B.F.H.H.S.w.~ P w 3 3 0 P G L P 3 3 1 @ , , ; o ; o , > : K E ",
"U U U U U U T I 5 . o & o > a u ) $.} G F f i r i N P G N t f ~ w.a.B.F.B.=.h t w 3 w s h n G N s 3 , 2 @ , : : o o ; , , , A E ",
"U U U U U U U T c q & & @ v b n &.) h r 4 1 2 < : - 3 F J G ~ ] w.z.J.Q.x.$.] ;.;.) ;.-.d.z.z.v.=.i 2 1 * > 2 : o o ; ; , , Z W ",
"U U U U U U U U R 7 & & 4 / b { } g 4 4 a s : , 7 2 : w f G _ %.S.vXfX}.f.w.=.&.;.^ B ~ ;.$.w.z.m.O.i < > 2 0 @ ; ; ; : , 2 A E ",
"U U U U U U U U U , & & v { ) } ~ f - r #.3 X   : u 3 3 r f M w.#XnXSX{.%.$.^ h w e 6 i h ~ ^ ;.=._ g < 1 2 2 ; ; ; : : , 7 Z E ",
"U U U U U U U T c & & 1 / { | | m f g u i 3 : # * 3 - e i f ` f.0XBXSX{.%.( h k i N N s G F ) l ~ G s 1 1 2 2 @ ; ; : > , Z v Y ",
"U U I U U U U T 5 q q d / / | ( ~ / M ~ n h N g g i s f h / $.o.|.SXSXwXB.d.h e l P < : N ! 0 j k b d < 1 5 3 o ; , : ; , 8 R E ",
"U U U U U T T U 5 q = d { { / M  .$.%.%.$.-.$.;.;.$.$.$.} %.$.f.&XSXxXaX7XH.z.;.P u < # u ~.;.3 f n 3 = 3 v r * ; ; : : 0 d U Y ",
"U U U I A T T T T d q p } ( ..X.%.y.t.t.f.w.f.f.d.k.d.$.$.%.w.J.0XSXBXdXdXvX'.Q.k.-.O.{ o.-.l h n M t w b / b 2 : ; : 7 7 v Y U ",
"U U U U T T H T ..| = m } ..*.X.q.w.y.f.f.f.z.z.z.f.-.%.%.%.p.z.|.xXxXcXdXkXkXiX&X'. X'.Q.k.k.=._ M n f m ..m 4 2 : , 0 5 A U K ",
"I U U U U U T T | 1.m f ....*.q.%.q.w.y.f.x.z.z.z.w.%.o.] w.x.D.K.eXzXcXdXdXcXhXiX$X0XiXiX0X&XY.B.y.y.h.n.i.( 4 2 5 5 d 5 K R U ",
"U U I U U U T T ,.| h | ..,.*.,.q.*.q.q.a.l.z.S.z.w.o.;.%.q.p.x.F.K.wXeXfXuXaXaXaXqX&X&X0XiXaXtXuXsXuXgXgX5Xc.= 6 u 1 , 5 K U R ",
"U U U U U I T T | k m ....,.q.q.q.q.t.w.w.f.x.z.z.o.B w.%.' r.r.s.K.K.3XcXaXdXfXaXaXeX7X&X7XuXcXzXzXzXzXgXsXz.4 3 6 * 1 6 U R Y ",
"I U T U U T T T f e ( ....q.q.q.q.q.t.w.q.w.f.z.a.j ] o.- % o.x.x.9.z F.wXeXdXcXaXeXaXeXqX9X9XfXzXnXnXzXzXgXu.4 4 = i b.{ U Y U ",
"I T I I U T T +.n j h  .=.q.t.t.y.w.=.t.=.a.a.z.;.l l l e y B o.V % x 0.|.fXdXdXdXaXwXwXwX9XwXeXuXjXzXzXzXuX..e m e n.5XM T T T ",
"U I T T U T T T <.d.....q.t.t.i.t.t.t.w.w.=.d.w.;.^ l j j j y z V e.a.F.aXBXBXcXdXaXeXwX4XwXwXwXwX9XuXfXzX5Xk ( p.X.5Xn.m | T T ",
"I T T I U U T H @.g.<...q.y.y.y.t.f.d.w.f.=.=.o.$.;.` o.e.o.0.0.D.|.vXaXaXxXBXdXdXaXeX4X7X4X4X4X5X5XuXuXuXp.p.R.p.uXuXn.H U T I ",
"T I I I T I A T J :.<.%.i.i.y.i.t.f.f.f.f.=.=.$.;.' a.a.a.s.F.K.3XcXSX6Xo.vXdXdXdXdXeX0XwX4X4X4X4X5X5X9X5XE.5Xq.9.5XzXi.H T U U ",
"I U I T T A T T K T | 1.i.i.u.i.y.i.f.f.a.<.-.;.' o.o.B y B B ' V 0.|.dX6X6X6XaXaXfXaX9XwX5X9X3X3X4X9XuX5X9X3X9.9.4XpXL T U U U ",
"I I T I U I I I H U J @.u.i.i.y.f.f.f.d.f.-.;.` o.] j $ # : - 0 e y V K.vX6X6XvXeXuXqX7X3X4X3XE.3X9X9XuXuXE.3X9X3XnX<.H T U U U ",
"A I I T U U U U U T J | ,.c.i.i.f.i.d.f.d.$.;.;.o.B - + + +   X + $ y o.6X&X|.vX9X9X4X3XE..XE.E.E.5XuX9X.X9XzXmXnXU.H U U U U U ",
"I T I I U K U H T H J @.,.i.i.u.d.d.i.g.d.-.=.$.B y # + X X X X O + e B J.&X|.6X9X5X3X[.E.E.J.R.E.5X9X.XR.9XuX5Xu.b R U U U R R ",
"T I T T I I I T T A T ..1.i.i.u.u.t.t.d.d.=.$.] B y X X X X X X X + e V S.}.|.7X7XoX{.[.E.E.J.E.[.5X5X5XrXOX`.1.K U U U U R C , ",
"U I I T I T I I T H | | ,.,.i.u.u.t.d.d.d.=.` j y - X X X X X X X # j [ J.|.|.$XvX#XoX}..XE.E.E.oXoXoXm.c.b.{ J U U U U I R , O ",
"I U I I I I I T H | 1.....,.u.u.t.u.d.i.d.=.` j y y # # X # X X # # y B z.J.|.qXtX5X}.oXoXoX.X.X].oXP.n b H K U H U K I I R 0 o ",
"I A I I T I I I T @.u.,.,.,.,.i.t.u.h.y.f.w.` V 0.y # # # # # $ $ y o.F.K.oX#XtXtX7XoXoXoX3X.X.X].XX:.H U U I U U U K U I U 0 o ",
"I I T I I A U I T 1.c.u.,.<.<.,.t.u.h.t.d.=.' B 0.V x $ $ % # % $ o.6XK.wXeX8XtX0X7XoXoX.X]..XT.`.P.H Y S K U U U I I I I R 9 q ",
"A I I I I I T H +.c.c.,.u.u.i.,.t.t.f.w.=.%.o.V 0.0.s.V B B y z z s.F.F.eXeXqXuXyX8XoXoX].T.E.T.%X1.A U U I S K U I R I I R 9 o ",
"T I I I U I I A 1.n.c.i.,.u.u.i.,.t.d.t.%.*.%.o.V [ s.s.0.0.0.0.0.0.s.K.6XeXeXtXrXOX.XE.T.E.T.T.XXL L I I U S U U U I I I R C o ",
"I I I I A I T T 1.n.n.c...u.u.i.i.t.t.t.&.%.o.o.V V V V V 0.0.0.V 0.s.D.K.wXeX0XoX.X.XE.E.T.U.*XV.A K I I I I I K S I I I I C o ",
"I A I W >.3.5.5.c.n.n.n.q...c.i.i.,.t.t.,.&.] ] ] ^ B B B V V [ [ f.s.x.H.[.7XoX.X.X.X+X+XU.T.*X| H I U I I I I I I I I I U D q ",
"W 3.W.6.3.>.T 1.I.n.n.c.i.....c.i.,.,.t.i.=._ ~ / ~ M j j j ^ ` q.r.l.G.E.+XOXoX+XOX5X+XT.U.rXP.v U I I I I I I I I I I I I D & ",
";X;XL.3.T v 6 b.I.n.n.c.i.,...i.i.i.,.i.t.u.$./ _ ( M j j j B f.x.x.G.].oX.X].#XOX5XOXT.U.+XrX@.A U I K I I I I I I I I S R S ; ",
"<X,X_.6.W d 4 c.I.n.n.n.i.i.......,.*.,.,.*.,.&.$.-.$.;.] ;.m.iXvX$X#X#XOXE.T.+XOX5XT.I.T.yX/.J K I I I I I S I I I I I S I S ; ",
"<X;X_.6.Q > * 1.I.M.n.n.i.i.,...| ( ..,.....&.,.<.t.=.*.f.z.U.|.{.{.].oXE.E.E.T.T.T.N.R.7X*X@.A U I S I I S I R I S I I I R S , ",
"<X:X).6.U . = | n.R.N.n.n.i.i.......| } } ( } ( %.%.*.q.=.f.q.y.j.B.B.Z.G.G.Y.R.R.n.R.$XsX/.J K U I S S I I I I I S R I I S R , ",
"VX,X_.W.C . 2 m c.N.I.N.n.n.i.,.*.*.&.*...( M / / }  .(  .X.%.X.q.q.y.B.N.n.h.i.i.R.sXpX*X@.P K I I R R R I I S I R S I S S R 0 ",
"VX<X).!.9 q 1 f ,.n.M.I.M.n.c.i.,.*.&.*.i.u.*./ M M ( X.X.X.%.=.q.q.q.%.] ` ( i.`.yXyX*X*X3.K R I D C C D R R S S I R S I S I 9 ",
"CX<X-X~.0 : 3 p | c.M.C.M.M.b.u.,.,.&...u.h.t.*.X.M M ` [ q.q.X.X.%.X. . .q.Z.#XyXsXyXOXAXIXZXAXUXAXMX).>.A D S 8.I I I I I R 9 ",
"CX<X;X).A 3 r p | ,.M.M.M.b.b.u.,.&...,.h.c.i.*.q.t.p.q.q.q.y.t.y.t.w.t.z.T.yXsXgXgX*X X2XPXPX,X<XVXUXLXPX1X7.R D S R I I I I C ",
"NXNX2X-XP 3 d i m 1.b.M.M.m.j.h.t.<.*.<.g.g.t.t.t.y.l.y.p.p.y.i.t.y.l.U.OXrXgXjXjXgX%X| /.AXLXIX6.W.!.:XPXLXLXUX;XQ D R I I R D ",
"<XMX1XW.7 s s s m | b.n.C.C.M.v.g.d.<.<.<.g.<.<.y.c.i.p.i.i.y.c.m.A.`.$XpXjXjXjXgXrXg.w :.:XUXLXZX7._.MXPXLXLXLXLXIX).I 8.I C C ",
"MXMX-XP P G F h F ) d.V.C.P.A.m.j.d.<.<.d.<.<.,.t.h.h.y.h.n.N.U.T.OXyXgXjXjXjXjXsXOX@.< 4.~.2XFXJXNXZXHXHXHXKXPXPXLXLXGX<XZX2X3.",
"CXNX7.L L L G F b ;.<.k.A.P.P.P.C.h.g.=.<.d.d.k.h.c.l.B.M.U.T.OXyXlXjXkXjXjXjXgX$XOX|   ;.V.~.).,X,XCXZXFXFXJXKXLXLXPXPXHX!.PXLX",
"NX~.2.#.#.) L J G ) <.j.A.A.'.P.A.C.j.k.g.d.g.j.C.Z.A.U.T. X$XyXjXbXnXnXkXjXgXrX+XOXG   0 ! 6.).NXZXFXFXHXJXJXKXPXPXKXKXPX,X).PX",
"W.8.2.2.#.O.O.O.{ $.<.v.A.P.'.'.'.H.C.v.v.v.v.C.A.U.U.`.XX$XyXlXzXnXnXnXnXjXyX].].#XN # X X 0 Q _.MXFXHXJXJXJXKXPXKXKXJXHXPXZX,X"
};
