/* XPM */
static char *resizegena2[] = {
/* columns rows colors chars-per-pixel */
"64 64 256 2 ",
"   c #151514",
".  c #1B1615",
"X  c #1B1916",
"o  c #1C1C1B",
"O  c #171813",
"+  c #15110E",
"@  c #231A16",
"#  c #221D1B",
"$  c #2B1E1B",
"%  c #241815",
"&  c #1E201E",
"*  c #23211E",
"=  c #2B211E",
"-  c #32221C",
";  c #3C231F",
":  c #242322",
">  c #2C2422",
",  c #2C2926",
"<  c #2D2C2A",
"1  c #322622",
"2  c #332A25",
"3  c #3B2B26",
"4  c #332C2A",
"5  c #3B2D29",
"6  c #3C2723",
"7  c #35322D",
"8  c #3D322D",
"9  c #3B3531",
"0  c #3D3935",
"q  c #363633",
"w  c #212531",
"e  c #422C25",
"r  c #412E2B",
"t  c #4C2A26",
"y  c #44332D",
"u  c #4D322D",
"i  c #56322F",
"p  c #443531",
"a  c #4A3631",
"s  c #443A36",
"d  c #4C3A34",
"f  c #433D39",
"g  c #4A3D3A",
"h  c #553431",
"j  c #523C35",
"k  c #523D3A",
"l  c #5B3A37",
"z  c #552D2D",
"x  c #642E31",
"c  c #633D3C",
"v  c #673637",
"b  c #6C3536",
"n  c #3F413E",
"m  c #44423D",
"M  c #4C433C",
"N  c #4E4037",
"B  c #53433C",
"V  c #5C433D",
"C  c #52483F",
"Z  c #5B4037",
"A  c #63433D",
"S  c #66483E",
"D  c #373644",
"F  c #454542",
"G  c #4C4541",
"H  c #474944",
"J  c #4C4C45",
"K  c #4E4D48",
"L  c #5D4641",
"P  c #524D45",
"I  c #5D4A44",
"U  c #524F48",
"Y  c #594945",
"T  c #4F504A",
"R  c #4F5146",
"E  c #525147",
"W  c #535149",
"Q  c #59544B",
"!  c #5A5248",
"~  c #5B5553",
"^  c #5C5951",
"/  c #545657",
"(  c #644542",
")  c #6B4542",
"_  c #644A44",
"`  c #6B4C44",
"'  c #6B4E49",
"]  c #654C48",
"[  c #714C45",
"{  c #734E49",
"}  c #754746",
"|  c #6E5246",
" . c #64524B",
".. c #6C524B",
"X. c #69554B",
"o. c #715347",
"O. c #73554B",
"+. c #7A554D",
"@. c #76594D",
"#. c #795B4E",
"$. c #735847",
"%. c #625A52",
"&. c #6D5B54",
"*. c #675A56",
"=. c #725651",
"-. c #7D5552",
";. c #755A53",
":. c #7C5C52",
">. c #7A5F5A",
",. c #5E605D",
"<. c #6A615B",
"1. c #7E6154",
"2. c #7D635B",
"3. c #746256",
"4. c #696866",
"5. c #766A63",
"6. c #7C736A",
"7. c #797678",
"8. c #85494C",
"9. c #894C51",
"0. c #855353",
"q. c #825D54",
"w. c #835F59",
"e. c #8B5A59",
"r. c #915B5A",
"t. c #83534F",
"y. c #826256",
"u. c #83645B",
"i. c #8A645D",
"p. c #85695C",
"a. c #8A6B5C",
"s. c #886957",
"d. c #91655F",
"f. c #92715E",
"g. c #975C60",
"h. c #8A6661",
"j. c #856962",
"k. c #8C6C63",
"l. c #886966",
"z. c #926C64",
"x. c #9B6A66",
"c. c #916E69",
"v. c #996866",
"b. c #8E7266",
"n. c #8D726C",
"m. c #837069",
"M. c #947364",
"N. c #997665",
"B. c #93746A",
"V. c #9A746C",
"C. c #95796C",
"Z. c #9D7A6B",
"A. c #9B7965",
"S. c #857B73",
"D. c #997672",
"F. c #9C7A72",
"G. c #9A7A78",
"H. c #A1696A",
"J. c #A2796E",
"K. c #A47672",
"L. c #A37C75",
"P. c #A87B78",
"I. c #B4777B",
"U. c #8B8279",
"Y. c #9B8278",
"T. c #A38276",
"R. c #A5837B",
"E. c #AB837A",
"W. c #AE887F",
"Q. c #A1806F",
"!. c #7B7F80",
"~. c #BA7D82",
"^. c #88888A",
"/. c #988983",
"(. c #8D8F97",
"). c #AB8682",
"_. c #AC8C8A",
"`. c #A88782",
"'. c #B68984",
"]. c #A9938A",
"[. c #B5938B",
"{. c #BB948D",
"}. c #B99388",
"|. c #A89D94",
" X c #B49492",
".X c #BD9A94",
"XX c #BC9C9A",
"oX c #B99893",
"OX c #AEA297",
"+X c #B8A49A",
"@X c #979BA6",
"#X c #A2A4AA",
"$X c #B8ACA2",
"%X c #A7ACB6",
"&X c #ADB1BD",
"*X c #AEB2B4",
"=X c #B9B7BB",
"-X c #9EA2AE",
";X c #C2898B",
":X c #C2958E",
">X c #C29C95",
",X c #CB9D9B",
"<X c #C69896",
"1X c #C88D91",
"2X c #C4A39B",
"3X c #CBA49B",
"4X c #CDAB9D",
"5X c #C6A599",
"6X c #D2A79E",
"7X c #CAACA5",
"8X c #CCADA9",
"9X c #C7A7A3",
"0X c #D4ACA3",
"qX c #D5ADAA",
"wX c #DBAEAB",
"eX c #D6A8A5",
"rX c #CEB0AB",
"tX c #CAB3A8",
"yX c #D5B2A4",
"uX c #D3B4AC",
"iX c #DBB3AB",
"pX c #DBB9AE",
"aX c #D8B6AB",
"sX c #DDB4B2",
"dX c #DCBCB3",
"fX c #D7B8B5",
"gX c #C7BAB1",
"hX c #E1B7AD",
"jX c #E2BCB4",
"kX c #E7BAB8",
"lX c #DDC3BA",
"zX c #E3C1B6",
"xX c #E4C4BA",
"cX c #EAC3BA",
"vX c #EBC9BD",
"bX c #E8C8BC",
"nX c #F1C1BD",
"mX c #B5BAC5",
"MX c #BFC2CB",
"NX c #D2D3D8",
"BX c #D0CBCD",
"VX c #EDCCC2",
"CX c #E9CBC6",
"ZX c #F3CAC8",
"AX c #EBD1C5",
"SX c #F6D6CB",
"DX c #FCD9D4",
"FX c #FFE4DB",
"GX c #FDE2D5",
"HX c #D9DEE2",
"JX c #DCE0E9",
"KX c #E4E8ED",
"LX c #FFEBE5",
"PX c #FBFEFF",
"IX c #F5F8FB",
"UX c #EAEDF3",
/* pixels */
"! Q E Q E E ^ Q ^ R ^ R R W R W / m & & o < < & : < < < < 7 0 0 0 m G Q *.6.6.6.! ! ! Q E E Q T Q T Q W W W W W W W T W T T ! W ",
"E ! ! E Q / R m n 7 7 n m R R W H < & & o q w & o       o o & > > q 0 G U <.7./.5.E ! R ^ Q Q Q T Q Q Q W W W W W W W W T ! W W ",
"W R W W n < &   O O O & , q / R F : o o : < o o   & & & : : : : , X   > 7 P S.|.$X|.6.&.R E ! W W Q T W ! W W W W W W U W W W W ",
"W ^ m , O     o O & : : 7 q 0 H <   o & : < X   & & & & o * : 7 F ~ 0 + X 7 C ^ U.+X$X|.U.! ! Q W W W W ! T T E W R U U U W W W ",
"/ q     O O     o   : < , < 7 q H 7   & o < X & & w : * & * : , 4 s <.~ 7 > g ! M <.OX|.OXU.W W W Q W Q W E W E W U W U W T W W ",
", O o O   O       o : # & , q n H 7 : : : * * : : o .     * = > : : f <.S.5.P Y %.y %.].|.U.6.^ W W W W E W W E W W U W W W W W ",
"o & O O         o   X # X o : , o o : : : & * * & o o o * # o . # X * = 0 6.OXS.B <.f f U./.5.5.%.^ ! W Q E E E U U W W W T W W ",
": O             & : , 7 m m T ^ W 7 * 2 * o # # # X # # $ : o # * # @ X @ = V gX$X<.%.s 7 %.5.~ ^ ^ W W E P P W R T T W W W W W ",
"            o & : : < < 0 ~ K g G s 1 7 > = * = $ # > # = = > = 1 > : $ # . $ Y gX|.%.M 9 @ f <.W ! Q E W P R W W R T W T T E R ",
"          & & &   o # < 7 > * # # > 1 7 8 5 y 8 5 3 4 3 3 5 5 5 p d p r 4 $ # % 8 6.S.~ 0 7   4 G M W Q W R W W E R E W E W R E ",
"        : & X X & & : # . . # 1 1 3 8 d d k C B B j B d d d d B k L L L Y g 4 > @ 1 Y *.s < >   4 7 7 G Q R K W T T E T E E T T ",
"+     & & o o & : : < 4 , > 1 5 3 d B I _ _ _ ` | | ..' _ ] _ I L L L Y ]  .Y f > # 1 f U 9 : # o , 7 0 P U U U R R W K R T T E ",
"      w o * o o # & # # > 1 r d B _ X...=...| @.>.>.1.u.2.;.=.' ( _ ] I ( X.&.] s = > 2 8 f 7 & X o 7 m G W U W W R R R R R R T ",
"    o o * * X & : # # > 1 r k L X.=.#.:.>.#.;.;.1.i.k.k.k.i.2.:.| ..| ] (  .>.&.] a 1 > > > 9 > o O 1 0 P Q U U R T W R R E T T ",
"    & & * * o < * : $ 1 y d L ] =.#.:.1.1.y.u.:.i.M.V.V.V.V.M.a.h.u.u.>.;...X.&.3. .g 5 : # , 4 : O * 7 m W P P W E E E E E T E ",
"  o & X : * * 4 > > = 4 p d V ] =.:.:.u.u.a.h.k.M.V.V.Z.Q.E.P.T.L.T.R.T.D.h.u.] &.>.=.s 1 @ : 2 , # # 4 0 Q W R E E W W R E E T ",
"  & o o * # > < > * 1 r y N I  .@.#.u.i.k.M.V.V.J.L.L.E.E.P.E.E.).{.>X{._.~.G.n.>.&.>.I a # # 1 4 > : 7 > m ~ U W U U U U W W R ",
"  & o X * * > > > - 2 7 y N V S | #.w.u.k.M.L.L.K.).E.E.E.W.'.'.}.>X,XXXXXXX X X_.G.j.Y I B % 4 7 , : 1 7 P Q U E T R W U U T W ",
"  * o o : : , > 1 2 2 2 y j V | ' @.w.i.:.i.L.E.V.).P.D.L.x.P.).{.,X9X,XoXXXXXXX X]._.n._ *.3 > 7 2 2 8 f 4.W R U T E W W U U U ",
". & . o > > > > 1 2 5 5 a N A S | O.O.u.u.w.z.G.z.E.L.v.P.i.w.z.K.).). X_./.G.n.m.m.5.n.2.L g $ 2 8 s 7 8 P E E W U T W U W W U ",
"O o o X : 1 $ > 1 1 2 r d V ] ' ' ' ' ' >.;.-.h.O.c.V.h.K.J.-.-.( ( d r g k k k ] ..=.;.2.&.a $ 2 9 9 8 8 m Q E Y W W U U R U W ",
"X   X X # 4 > > - > 2 y B ] ....=.] ] L j k k a u ' -.-.k.P.0.[ l e - $ $ 1 5 r L &.m.n.C.n.2.a - y g f 5.C P Q U W W U W U K U ",
"X X   X * , = 1 2 - 3 d I I B I Y p r = $ > 1 1 5 u l { q.z.v.O.( L l r 6 1 5 r s k Y >.b.T.R.u.j 6 M W G W 5.^ P R R U E K W R ",
"o o X O @ < > 1 2 2 8 j d a k a $ # % . # > $ - 6 5 h ) O.e.L.q.[ { l e 1 5 > $ 4 s p t h [ c.c.@...a d p f ^ %.R R W W T U W W ",
"o & o X X 2 2 2 1 2 8 y p d r = $ > 1 > > 1 4 p r d ( ) { d.:X}.) i e e d p * % = Y /.] ( -.l.P.Q.].$.- p d <.%.P P W W U K U T ",
"o : # . O 2 7 2 = 2 3 y a d a s 9 4 > $ @ # 1 5 u d V ) { Z.:XiXG.l h ; r r 1 = 5 *.G.l.G.XX,X8XzXSX4X3 3 ! /.M Q P P W U U E T ",
"X : # # X - 2 2 $ - 8 N C B s > . . o 4 4 1 1 3 y d l S } d.'.6XkXP.u.;.] c c ' w.n.G. XqXfXZXDXSXSXGXm.e X.5.C P P W W W W U T ",
"o o # o & = 1 2 = 3 d B p 6 $ X # . . , p 1 1 5 a d l ) [ t.H.;XnXwX{.).c.l.c.D.).oXqXkXZXFXLXLXFXGXGXdXV X.&.I Q R P W U P R R ",
"& o o @ # o = > > 8 y e - @ 8 C $ . # > 6 1 6 3 y h V | O.} t.K.,XnXsXsXsX9X2X[.{.<X9XsXZXSXSXSXGXGXGXGXi.5Xm.C W U R U U U P U ",
"o * # o = % . @ - - 6 3 - 3 3 8 5 5 5 p a a a y j V ) { [ [ +.v.~.nXZXqXkXkXwXsXqXeXeXqXiXjXjXcXbXAXSXGXQ.6XXXN ! U U U P U U U ",
"O o # # = 2 @ @ $ - 1 e a N j Z k c ] ] ] ( V Z S ` ` | [ [ +.d.I.1XDXDXkXkXsXsXsXwXsXkXkXkXhXhXzXzXvXGX<XN.qX| Y P U U U R U K ",
"# . @ = 8 C N d N d d j Z V S S ' { =.-.-.O.{ ] ` ) ' [ S } t.r.H.P.eXDXcXkXkXwXkXsXwXwXwXwXhXhXhXhXhXSXhXr.3Xk.M P U U R R T U ",
"@ @ @ = 8 _ &.X.| X.` ` S | $.$.:.y.w.q.:.#.O.S ] ) ' c ( } -.e.v.K.'.,XeXkXnX<X,XwXsXwXeXwXwXhXwXyXhXcXcXE.hXY.M E U U U P U U ",
"d 6 2 $ 6 P $.@.@.@.$.#.#.t.q.q.q.q.q.q.q.-.O.[ ) ) ) ) { -.-.0.e.r.K.1X;X'.,XhX9X,X,XeXeXwXwXhXhXyXyXjXcXFXAX&.P E U P U U U G ",
"O.V y e $ j @.$.#.@.#.q.:.q.t.$.q.q.w.e.q.t.+.{ ( c ) -.0.-.] } q.e.H.v.x } 1XZXZXkX9X,XeX0XwXhXhXyXyXzXvXvXY.N ! W W W K R U R ",
"+.p.=.X.e e $.=.@.#.q.#.q.:.q.q.q.q.w.q.q.q.+.[ ) ) ) ' ) t t h } h.d.0.d.<XwXh.sXFXZXsXeXeXwXhXjXhXyXcXyX5X<.P P P W W K T G U ",
"+.k.q.l #.V _ #.$.#.:.1.q.#.y.q.q.q.e.q.q.-.{ ' ] } ( l c c ( ( c } -.e.oXsXsXXXfXCXCXCXhXyXhXhXcXzXaXbXzXW.C E U P U G E G K K ",
"#.u.c t | j.$.O.$.#.y.#.#.q.y.q.q.q.q.q.q.+.{ { =.] ] ] Y c c c { e.K.~.,XkXZXDXZXZXkXfXzXpXhXzXvXzXzXVXOXC I R U U R P R R T K ",
"..#.i i ) a.1.o.$.#.#.y.q.y.q.y.q.q.q.t.-.+.{ =.=.' ) L c ( ] e.H.~.~.~.;X1X1X<XeXsXjXiXpXzXhXcXvXVXzXAXW.C ! R U P R R P K K K ",
"Y &.i z ) | $.=.o.#.$.:.1.q.q.q.q.y.y.:.:.+.=.=.=.) ] ( ] =.9.0.} } 8.9.9.8.8.g.H.v.P..X>XaXhXvXVXVXbXAXOXC E E P U R R J R J J ",
"P  .=.A :.O.` y.O.O.>.#.:.1.y.q.q.y.y.q.:.+.O.' ] ] ' =.{ ) v v x v b b 8.H.I.1X1X~.H.e.d.W.hXvXvXbXbXAX+XC P W K K R R R R R J ",
"P P ..2.k.k.p.1.3.$.@.:.:.1.1.1.q.y.i.y.y.@.=.] ..;.=.c l x z v } 9.g.g.H.I.I.~.~.1X6XwX3X3X4XhXbXzXzXbX+XC Y R R R K G J G J R ",
"P G P C 3.j.u.p.2.@.$.#.#.1.1.y.y.y.y.y.1.O.| &.| ( i i c ) } 8.9.9.g.9.0.0.e.r.x.K.;X6XhXhXyXyXhXaXyXxXOXC Y R K U G R R J G R ",
"G R R P C &.2.p.#.V $.@.y.s.y.u.s.y.s.y.1.@.=.| Z t l ) c ) } } } } } c x v } +.0.x.K.W.:X3X4XyXyXyXyXlX].B W R K K K R K R K K ",
"R J J C R C E I V Z o.$.:.1.1.y.u.y.y.s.y.#.| A A O.-.O.+.O.O.{ ( h u t h [ q.h.f.Z.J.E.}.:X6XyX4X4X4XpXS.C R P J J K K J J K K ",
"J J J J J P P C  .O.$.o.@.1.1.1.y.y.y.y.u.y.O.O.+.#.+.O.O.{ [ Z u h ( { w.c.).>X3X,X5X5X3X6XyXhXyX4X4X4X&.G R G K H K K J J K K ",
"J J P J J J P C  .p.1.$.$.3.1.1.1.y.y.#.y.:.@.O.O.O.@.o.[ ) A l c O.;.w.>.i.L.[.3X3X5X4X4XyXyXyX4X4X$XY.Y R K K J J K K J K J J ",
"J J J J J J R C C 3.s.#.$.$.1.1.1.1.#.#.:.:.#.O.+.| { | ' ` ' O.=.=.;.-.-.>.h.D.T.}.}.>X4X3X3X5X+X}.W.3.G U K K K J K J J J K J ",
"J J J M J J J R N 3.2.1.#.$.3.1.1.1.#.#.#.#.#.q.#.#.#.+.@.;.#.o.| O.#.y.y.w.>.l.n.C.E.).}.oX}._.T.T.gXX.G R G G R K J J H J K K ",
"J J J J J J C C M ! s.s.s.#.$.1.1.1.:.#.#.#.#.#.#.#.#.#.#.$.o.| ` | X.:.:.;.u.#.:.i.M.D.T.T.F.M.T.pXbXX.R K K K H K J H J J J J ",
"R m J J J J R J C ! s.s.s.s.$.$.:.:.#.#.#.$.#.$.@.@.O.#.$.' ` _ S ` ) O.@.;.@.#.;.i.u.u.B.B.b.Y.pXAXlXQ G K K J K J J J H K H J ",
"H R H H J C H C R C 1.f.f.s.s.#.$.$.#.$.$.$.$.$.| o.o.o.o.| _ ` ` | | | O.O.#.:.w.u.p.b.B.b.C.rXdXlXlXX.J J J J J H H J J J H K ",
"H H J H H C J J R C 3.f.f.f.s.2.:.o.| $.O.$.o.O.| | | | | | ` ' | $.O.O.;.:.i.i.a.k.M.B.B.D.2XuXpXbXlX! C R K J H K H K J H J J ",
"H J H H H J H J H R 3.Q.f.f.f.s.p.s.#.o.o.o.o.O.| | | ) | o.| | X.$.@.>.y.u.i.u.k.c.c.c.C..XiXaXlXbXlXX.C J J J J H K H J H J J ",
"H H H J C J J H R N $.f.A.f.f.s.s.s.p.s.#.$.$.$.O.O.$.O.O.O.O.@.#.#.:.#.>.1.u.u.j.l.n.G.XXrXuXdXzXxXAX&.M T T J J H J J K H J J ",
"H H H C J H J J H 5.U.f.Q.A.f.s.a.a.p.p.p.1.3.@.O.@.@.@.@.O.O.$.O.O.| O.#.;.1.i.l.c.G.XXrXpXdXdXdXlXAX%.m R J K J J H H K K J J ",
"M H H H H J H m 4.U.3.Q.A.A.f.f.f.s.i.a.a.k.a.p.1.@.@.O.| | ' ) _ ` ] O.O.;.w.c.G.`. XrXfXfXpXpXfXlXCX$XH K T J J J H T J T H J ",
"J H H J H m ~ 7.^.<.! Y.Q.A.A.f.a.a.a.a.a.M.b.b.B.b.k.p.y.#.+.{ { | { =.;.l.S.~._.XXfXlXuXrXuXuXsXlXlXLXNXK H T T J H H T H T H ",
"H J m n / 7.#X#X!.,.C Q.Q.A.A.f.a.a.a.a.a.b.B.C.C.n.C.M.k.j.>.;.>.;.-.u.n.U.`. XXXfXCXfXrXuXuXpXfXfXlXlXIXBXK F H H H T T H H T ",
"H n / ^.%X*X#X-XU.^ y 1.T.Q.A.N.c.a.a.a.a.b.C.C.V.B.n.k.k.k.h.u.w.w.k.D.G.~. XXX8XfXfXuXuXuXfXiXpXpXCXdXBXPX*X/ 4./ T n n H T T ",
"/ ^.mXmX&X%X%X%X^.~ p V T.Q.Q.A.M.z.a.a.k.a.b.B.B.C.b.k.h.2.h.j.h.l.G.~.)._. XXX8XrXfXrXrXrXuXaXpXpXlXrX=XKXIXHXHXKXHX=X(.,.n n ",
"%XmX&X&X&X%X&X@X7.~ f 3 Q.T.Q.Z.N.M.a.a.a.a.b.B.C.b.b.b.k.l.l.c.D.G.`./.)._._.XXXXtXrXrX7X7XrXqXuXuXkXOX|.NXIXHX@XMXKXPXIXIXMX@X",
"mXmX&X%X%X%X-X^.4./ g 1 2.T.T.F.C.B.b.k.j.a.p.b.b.C.b.k.h.j.h.z.c.D.~.G.`.~. XXX9X8X7X7X7X7XrXrXuXrXfXY.^.MXUXIX(./ @XMXUXPXPXPX",
"&X&X%X%X%X-X-X(.7.~ G = ] C.T.Q.F.A.B.k.p.p.p.m.b.b.b.b.j.j.h.u.i.h.D.U.~. X XXXXXXX9X7X7X7X0XrXrXtXuX3.7.mXKXIXMXw D (.NXIXIXIX"
};
