/* XPM */
static char *resizegena1[] = {
/* columns rows colors chars-per-pixel */
"64 64 256 2 ",
"   c #15140D",
".  c #161511",
"X  c #181712",
"o  c #1B1A15",
"O  c #1E1E19",
"+  c #171813",
"@  c #24160C",
"#  c #241C15",
"$  c #2A1C14",
"%  c #231E19",
"&  c #291F19",
"*  c #2A1710",
"=  c #311E14",
"-  c #1F201B",
";  c #26221B",
":  c #2B231C",
">  c #2B271B",
",  c #33241C",
"<  c #3A251C",
"1  c #33291F",
"2  c #3C2A1E",
"3  c #362315",
"4  c #2C2621",
"5  c #2E2922",
"6  c #272724",
"7  c #342B23",
"8  c #3B2C23",
"9  c #342923",
"0  c #3B3227",
"q  c #363129",
"w  c #3C342A",
"e  c #393429",
"r  c #3B3835",
"t  c #422A1D",
"y  c #452617",
"u  c #582F1E",
"i  c #432E24",
"p  c #4B2D23",
"a  c #432F28",
"s  c #453226",
"d  c #44342B",
"f  c #4B342A",
"g  c #43392E",
"h  c #4C392D",
"j  c #4B3226",
"k  c #53392D",
"l  c #5D3B2C",
"z  c #563428",
"x  c #443B32",
"c  c #4B3B33",
"v  c #4A3730",
"b  c #543E32",
"n  c #5B3E32",
"m  c #5C2B26",
"M  c #682F2A",
"N  c #64382D",
"B  c #633E32",
"V  c #6B3D32",
"C  c #733B34",
"Z  c #71352D",
"A  c #4D4236",
"S  c #4C453A",
"D  c #4A4638",
"F  c #554335",
"G  c #5D4235",
"H  c #53453A",
"J  c #5C453A",
"K  c #544D3E",
"L  c #5C4D3C",
"P  c #594935",
"I  c #56513E",
"U  c #5A513F",
"Y  c #5E412F",
"T  c #634335",
"R  c #6B4436",
"E  c #644539",
"W  c #6A4639",
"Q  c #644A3C",
"!  c #6C4B3C",
"~  c #6A4936",
"^  c #74443B",
"/  c #734D3D",
"(  c #7B4B3E",
")  c #774438",
"_  c #68513E",
"`  c #75523E",
"'  c #78543F",
"]  c #4C4A45",
"[  c #554C42",
"{  c #5A4D42",
"}  c #584F48",
"|  c #565141",
" . c #5A5342",
".. c #5F5946",
"X. c #5C5449",
"o. c #5F5848",
"O. c #514F50",
"+. c #6D4D41",
"@. c #624C42",
"#. c #754D41",
"$. c #7B4D42",
"%. c #7B4640",
"&. c #645444",
"*. c #6D5443",
"=. c #605946",
"-. c #625A4B",
";. c #6A5A4A",
":. c #755342",
">. c #7B5444",
",. c #7C5946",
"<. c #7B5548",
"1. c #7C5B4A",
"2. c #745948",
"3. c #665E54",
"4. c #7E5F52",
"5. c #7C614C",
"6. c #6B6255",
"7. c #69645A",
"8. c #746555",
"9. c #7B6C5C",
"0. c #756659",
"q. c #716653",
"w. c #766D64",
"e. c #7C7264",
"r. c #7B756B",
"t. c #71706E",
"y. c #844A3D",
"u. c #864E46",
"i. c #825546",
"p. c #815C46",
"a. c #835649",
"s. c #8D534A",
"d. c #835C4A",
"f. c #8B5D4D",
"g. c #93594D",
"h. c #8B5E50",
"j. c #965E53",
"k. c #85614D",
"l. c #8A634E",
"z. c #856653",
"x. c #8C6452",
"c. c #8E6955",
"v. c #8D6E59",
"b. c #856958",
"n. c #936555",
"m. c #916C56",
"M. c #9C6559",
"N. c #926C59",
"B. c #9C6C5C",
"V. c #986756",
"C. c #85715D",
"Z. c #967157",
"A. c #95715B",
"S. c #9A735C",
"D. c #9E795F",
"F. c #93604D",
"G. c #A56B5C",
"H. c #A2745D",
"J. c #827A6C",
"K. c #877867",
"L. c #9D7261",
"P. c #9B7A65",
"I. c #817F79",
"U. c #A76D61",
"Y. c #A37464",
"T. c #AB7365",
"R. c #A37B64",
"E. c #A47B6B",
"W. c #AB7C6B",
"Q. c #A97967",
"!. c #B37C6C",
"~. c #B87F6E",
"^. c #B77E71",
"/. c #898275",
"(. c #968978",
"). c #90816D",
"_. c #AC826C",
"`. c #A48068",
"'. c #B2856E",
"]. c #AD8372",
"[. c #AA8A75",
"{. c #B38373",
"}. c #BB8474",
"|. c #B58A73",
" X c #BB8D75",
".X c #B48B7A",
"XX c #BC8D79",
"oX c #BD917A",
"OX c #B6917B",
"+X c #A4937F",
"@X c #C38C7C",
"#X c #C18878",
"$X c #C3937C",
"%X c #C9937E",
"&X c #C8997F",
"*X c #8C8A86",
"=X c #989589",
"-X c #989792",
";X c #958E89",
":X c #BC9582",
">X c #BE9983",
",X c #B79E88",
"<X c #A69889",
"1X c #A3A295",
"2X c #A4A49B",
"3X c #AAA79E",
"4X c #B8A18E",
"5X c #ABABA6",
"6X c #A8A9A4",
"7X c #B1B2AA",
"8X c #B9B8B5",
"9X c #B0AEA1",
"0X c #C29583",
"qX c #CC9583",
"wX c #C39A85",
"eX c #CB9B83",
"rX c #C59D8A",
"tX c #CA9E8A",
"yX c #D29B86",
"uX c #D49C8B",
"iX c #D09784",
"pX c #CC9589",
"aX c #CCA28C",
"sX c #C6A189",
"dX c #D2A58D",
"fX c #D8A48C",
"gX c #D4A68C",
"hX c #CDA491",
"jX c #CEAA93",
"kX c #C4AA9B",
"lX c #D4AA93",
"zX c #DAAD93",
"xX c #D6A796",
"cX c #DCB096",
"vX c #DDB39A",
"bX c #D2B69F",
"nX c #E4B698",
"mX c #E1AE98",
"MX c #D4BAA7",
"NX c #E7BBA5",
"BX c #E8AEA1",
"VX c #CAC2BD",
"CX c #D5CBBF",
"ZX c #E8C3AA",
"AX c #FFD0BB",
"SX c #EAC6B3",
"DX c #D8D8D6",
"FX c #D2CDCA",
"GX c #EBD9CD",
"HX c #DFE0DB",
"JX c #E8E9E8",
"KX c #F5F4F3",
"LX c #FDFDFC",
"PX c #FBF9F6",
"IX c #F2EEEA",
"UX c #FFECD8",
/* pixels */
" . . . . . . ...I I e 1 D e O + o + . . . o % ; : 1 e A S 7 > 5 5 ; o . + + + . o o o 5 -.q.9.<X).=.C.=.C.<X+X(.C.U U ..=.=.....",
"I I U U I .. .I D 1 g D > + + + . + + O O 6 ; 6 7 r X.r.(.w.S 5 ; - ; O O - O - - ; 6 ; > 3.(.).4X+XK.C.8.e.(.K.).9.=...=.=...-.",
"U I  .U I I I D 1 D D +   + + + o o O O O O % & ; : r K [ r q 5 ; O O O o ; - - ; 5 r X.A o U ).).(.).q.&.9.e.(.e.=.q.......-...",
"I .. . .I I D > D e + + + o + o o X X X X % ; % ; > 9 x [ 7 ; 5 5 : ; ; ; % + . o ; 1 g 6.0.s P (.(.K.q.{ F { 0.).=.;...U ......",
"U U I U ..D e D 6   + o o o o + . o % ; 4 9 8 x -.r.3.{ 7 7 7 5 5 1 9 7 q q r 8 #   # # &  ./.e.L (.).K.o.A H c q.K.P U =...=.=.",
"U ....U ..e e 5   o o o o o o O 6 4 4 : 9 a ] X.{ 6. ., > 9 9 9 1 > & # > > 9 x 3.3.d A A 1 d (.).q.K.6.e.{ x c S q.U A ..=.....",
"U I ..U I e e   + o o o o + ; 6 ; & ; # & > q g 0 < 0 0 8 8 8 9 9 8 , : & & & # > 0.).c ;.K.K 2 0.3. .6.[ 7.S q x K H A D ....U ",
"U U I ..K 7 > + o o o o + o > O ; ; > 7 9 : , 9 8 8 s f d f f f f f a 8 , > , , = @ 6.8.3 0.<X9.H A A { c c 3.c 7 [ g x x I ....",
"I ..I .. .> + + O o o o o ; # : 4 & ; 9 8 8 8 a f b F b n G G T Q J n k f i i 8 8 8 = 9.h # b e.e.{ w g w q S S 7 g { 8 r g  .o.",
"I I I  .| > + O o + o o > ; : : ; & & & : 8 a k F T E T E E +.+.Q ~ ~ J G b k k f k j f 9., # v X.K c 7 q 9 q w e e } 0 0 8 K -.",
"I U I I | 5   O + o + O ; ; : : : & & , 8 s b J ! +.+.! +.:.+.+.#.! Q Q W Q Q E B P b f ;.J , , X.0 g q 7 & ; 5 7 : e q w e A ..",
"U U  . .| 5 + o + O - 6 ; 4 > 4 & 4 8 i f b E +.+.! ! *.:.:.+.! ! ! +.! ! ! W W W E E T b b g 8 , g 9 w 7 ; % 4 5 4 5 q w w r o.",
"U I I U I 7 o o o O : ; 4 & : : : , 8 a k G Q +.+./ :.:.:./ +.^ ! #./ :.! ! ! ! ! E E @.E s b c 0 & 9 9 q : # O ; 4 : ; 0 r 0  .",
"..I I I  .g o o O ; ; ; > & , , < 9 8 a k G W ! ! :.,.,.:.#.:.` :.>.>.<.>.>.#.+.! W ~ +.Q 2 H b v 9 & & 7 5 % O ; 4 4 % 7 q q H ",
"U I ..I  .K # o ; ; % ; : > 9 , < 8 a f n E ~ ! 2.<.,.d.1.<.<.<.d.d.>.a.d.d.1.:.>.#./ +.+.i Q H v 8 & & 9 9 % O O : ; ; 7 7 w A ",
"U U I ..U ..8 o ; o & 4 : , 9 1 < i f k G Q / >.,.f.f.x.n.n.x.h.x.h.h.n.n.N.B.n.n.z.d.<.@.t @.J H c , & : q ; O ; ; ; ; 5 7 q e ",
"U U U I  ...D o # # > : & 9 8 8 8 i k n W ! #.,.a.h.x.N.B.B.V.B.B.B.N.L.L.L.E.^.^.W.Y.b.@.p +.@.E { i & & 9 6 % ; ; 6 & 4 9 7 g ",
"..U  .I I ..D # ; # > & & 8 8 < t j n ~ ' :.<.a.<.h.n.h.N.L.L.L.L.L.L.Y.Y.E.E.^.:XXX.XE.#.k 4.+.@.J a $ & 5 ; ; ; ; q 4 4 9 1 r ",
"I U  ...U ..D # # : : # 8 d 8 2 z T +.<.1.<.>.<.<.h.M.h.n.B.L.W.E.T.E.T.B.Y.Q.W.W.^.^.].W ! d.+.+.J v : : 1 5 ; ; % 4 9 7 7 0 A ",
"U U U U U U D # # : # : g h 2 f E *.2.<.2.:.:.2.+.2.h.<.a.h.h.L.E.E.^.^.T.W.W.^.^.E.W.L.l N.c.<.+.G @.< # 7 5 : ; 6 4 9 > 8 e D ",
" .U  .I U ..e # : : o 9 F s i F @.n n n k G H b n @.+.<.<.#.<.M.M.U.M.j.T.T.E.W.E.L.E.<.$.E.N.z.1.+.@.v $ 9 7 5 & 4 4 q 5 9 d H ",
" . . . . .I 1 # # & @ > A 8 2 s a k b k v 8 , 9 9 & v b a k $.$.$.B.s.%.M.Y.E.E.P.b.b.n 4.b.4.4.<.<.n d $ 9 8 : & ; 5 7 1 & d  .",
" . .U U I I 8 # # # # # g 8 s F E @.{ v 8 : & % * & , , = f n B ( B.f.V u.<.+.n @.b v v H J n n k n v 8 # 9 7 : ; : 7 8 d  .9.9.",
"U  .U U U I K 2 : : 9 @ $ 8 f J b f t 9 & # # % 4 & & & < t p W $.j.n.V V p < * # * & , a J ;.@.E b k < $ 9 9 : : 9 w d d P 0.K.",
"I  . . .U L ;.U , 3 F h @ @ 2 < < = 8 H 9 # o & r 9 , a s f l R $.F.B./ l f p < 9 9 9 % $ , v @.b.b.5.Y = 2 2 > 5 9 g { s d F 8.",
" .I U U  . .*.2.b 2 P ;.P 2 3 t f f i a 8 $ & = , = , i f z T / n.W.{.$.l k i < 8 v , % # : J p p ! k.x.k 3 s g : : c H 3 C.(.;.",
".. . . . .L &.z.*.3 ~ :.2._ Q T ! ~ E E b k f i 8 t p p k l ^ i.U.^.0XT.N z i < < < , $ , i E v < p Y p.k.Y t _ G < h 2 T 4X;.&.",
"I I U  . .L *.4.z y Q 2.:.' ' ' :.` ! ! W E n l k k k n B R / i.U.#XpXqXn.N z p k z n E @.@.B E ! V Y ` p.l.l.l._ t s y c.|.P =.",
"I I U  . .U :.E z Y ! :.,.,.p.p.,.>.' / / R T T B B E ! W $.( $.G.@XuX@X}.Y.M.d.#.#.$.<.x.n.N.n.n.h.p.i.F.'.gX|.' y ) p.eX`.L =.",
"U U  .I  .U :.l y >.2.` ,.k.p.k.d.d.,.>.$.` ^ ` #.#.#.^ >.>.u.d.U.#XuXiXpX@XXXW.W.Y.B.x.B.Y.!.}. X X$X$X&XzXzXgXZ.u p. XZXp._ U ",
"I ..I  . .U &._ B T / ' 5.p.k.d.f.f.d.d.d.d.i.,.i.$.#.#.$.$.d.B.T.qXBXxXiX@X#X}.}.XX^.^.}.}.@X%X&XyXfXgXnXnXnXnXm.u g.T.sX` U  .",
"I I U U U U L ;.v.d.~ >.k.p.k.l.l.x.l.h.f.f.d.s.a.$.! ^ V ' g.M.T.^.BXBXuX#X!.^.}.}.}.}.qX0X%X%X%XyXfXnXnXnXnXzXZ.H.y.G.0X_ _  .",
" .I |  .U  .U L 5.A.5.` k.k.k.l.l.j.f.l.h.f.f.d.>.! %.#.%.<.h.M.U.^.uXmXuXpX#XU.T.}.}.#X#X@X%XyXfXyXfXfXnXnXnX&X XgX'.mX[.P _ U ",
"I I |  .U  .U U =.z.b.:.,.k.c.x.x.x.x.x.h.d.,.a.$.W #.h.a.s.h.M.M.U.^.pXuXuXuX!.M.U.}.#X@X%X%X%XyXyXfXfXgXzXzXeXgXAXAXjX2.U U ..",
"I I I  . .U  .U L ;.5.2.,.l.x.x.x.n.f.f.h.p.d.i.>.W C $.<.$.a.s.j.U.^.0X^.qXiX#X'.G.T. X@X%X%X%XyXyX%X%XgXeXgXeXZXnXOXP U  . . .",
"I I  .I I U  . .U U U _ 1.k.l.k.x.n.x.l.h.i.,.<.#.W @.E E V ^ h.j.M.U.g.y.u.M.qXiX#XT.}.#X@X%X%X%X%X%X%X&X&X&XoX&XoX_ _ .. ... .",
"I | I  .U U  .I U U L _ 5.k.k.k.l.c.c.c.d.,.#.:.~ Q E E E +.^ +.a.<.#.%.u.h.C .XpXaXqX}.#X#X%X&X&X&X&X$X$X&XgXsXOX2.L ..U U  . .",
"I I I I U U I  .U U U L ,.z.k.z.k.l.x.l.,.! ! ~ ! E E B n B B M N N ^ n..X:X.X0XwXpXaXpX$X%X%X&X&X%X#X XeXgXZ.5._ U U  . ..... .",
"I I I I I U U  .U  .U L 2.k.z.k.k.l.c.d.2.' <.2.<.+.$.#.E N N C %.g.U.pXuXxXxXtX0X:XeXaX&X&X&X&X%X#X X XgXgX_ _ U =. . . . . . .",
"I I I I I I I I I U U L 2.k.x.l.l.l.x.l.f.2.+.<.<.%.#.^ %.%.%.u.g.j.U.U.T.^.0XpXhX0XoXsXgXyXeX&X%X$X$X$XgXoXU U ..U  . . .I .. .",
"I I I I I I I  .I U  .L 2.5.k.k.k.k.l.c.' ` Y u z N m m m m m M M M Z Z C y.s.j.U.U.Y.oXeXaX&X&X$XoX$XoXsX[.L U U U  . . .I  . .",
"I I I I | I  .I U U  .L ` 5.5.k.k.k.l.l.,.' ` ~ V V +.C ^ C C C C u.s.g.g.s.u.y.C ) l.W.&XeX&X$X$X$XoX|.sXP.L .. . . . . . .I ..",
"I I I I I I I I I  .U L _ k.k.k.k.k.k.k.k.p.p.k.<.$.$.( %.$.u.u.u.s.g.M.U.T.~.}.{.!.W._.oX&XoX$XoXoXoX XjXv.L U  . ... .I I | I ",
"I I I I I I I I I  .I _ *.,.z.k.p.k.k.l.k.,.d.d.1.f.i.$.#.%.^ ^ C u.u.s.g.M.U.'. X$X X'. X XoXoXoXoXoXOXbX5.U .. . . . . ...I ..",
"I K K I  .I I I I I U U 2.5.p.k.k.k.k.k.k.,.,.,.,.p.>.` ~ N l z m V ) ( i.F.V.T.Q.'.'.|. X X XoX$X XoXjXbX_ I U  . ...I I I  . .",
"K I K I | |  .I I I U L 5.v.' ,.k.p.k.k.x.k.k.' ,.$./ R ~ ! ~ W W / >.d.d.F.V.H.T._.|.oX X X XoX$X X|.ZX,XP U U  .| I | I ..|  .",
"I I K I I I I [ I I I I 5.v.l.' ' k.k.k.k.k.k.p.,.,.:.:.$.:.>.<.,.d.B.].'.'.'.|.|. X$XoX X X X$X>X`.&XZX).Y .. . . .| .. .| |  .",
"I [ I I I [ | | I I U I 2.v.c.k.p.p.k.,.k.k.k.p.,.,.>.:.:.>.:.` ,.f.B.].|. X$XoX$X$XoX X|. X X|.`.|.nXZX9.K  .|  .|  .| |  .|  .",
"[ I K | I I I | | | I K 5.v.v.m.c.p.>.,.,.,.k.5.' ' ` ` ' 2.,.,.<.p.c.c.Q.`.|.oXoX X|.].'._.`.R.'.gXnXbX*.I  . .|  .| | | X.| | ",
"I K I | I I K | | | I U 5.v.Z.m.m.c.k.,.` ' ,.' ' _ _ ~ ! ` >.' >.>.p.>.c.S.Y._.`.Q.S.S.R.R.H._.gXlXnXbXI  . .} } | |  .| | | | ",
"I K [ K D I I I I K ..).A.v.m.m.m.c.c.x.5.` _ ' ` ! ` ' / / ( ` ` ` ' >.p.d.n.N.Z.A.S.S.D.S.`.eXgXcXZX,XP | }  . .| | [ | | X.| ",
"K K K I I I K I K | /.9.z.S.m.Z.m.v.m.m.v.c.,.' ` ~ / ' :.' ' ' >.>.<.f.d.p.x.N.M.A.S.S.Z.W.wXdXcXnXZXOXP X. .}  .| X.} | | | | ",
"K K I I ] I I I I e.w.L z.Z.Z.v.m.c.c.c.c.v.x.l.,.' / / :.<.p.p.k.l.l.l.l.x.c.c.n.N.c.S.].wXdXcXcXbXZXbXU I ..o.X.X.| | X.| X.| ",
"K I I I I D I 6.e.w. .h z.R.S.m.m.m.c.x.c.N.v.v.m.c.l.:./ ~ ~ / ` ` ' ' :.<.p.h.l.n.R..XhXzXlXxXcXnXnXUXCXD D S ] ] | X...| X.| ",
"] | ] D K 6.I.=Xr.6.| s c.`.Z.Z.Z.m.c.c.c.c.N.N.N.N.N.c.l.>.^ ( ^ ^ ` $.<.h.x.B.L.].0XhXlXlXdXdXcXnXZXGXPX8X=X-X/.t.X.] D | X.X.",
"I D | w.=X1X=X(.r.3.[ s k.R.D.Z.m.m.m.c.c.v.N.N.A.v.N.n.c.c.d.>.>.>.f.x.c.L.E.].>XrXhXhXjXlXxXcXnXbXZXCXIXLXDXHXPXPXJXVX*X3.] D ",
"| r.1X9X1X1X=X1X(...K s 1.R.D.S.Z.m.m.m.m.m.m.v.N.N.N.c.c.c.x.1.p.h.n.L.P.E.:X:X>XtXjXjXxXlXlXzXxXvXNXkXHXPXHXt.7XDXLXLXLXKXFX5X",
"6X9X3X2X2X1X1X1Xr.X.K 8 _ R.D.D.Z.Z.m.m.m.m.v.m.N.N.v.N.n.N.B.n.N.L.L.E.W.:X:X:XrXaXjXjXhXhXgXlXzXBXxX;XCXKXLX;Xr -XDXKXLXLXLXLX",
"8X7X9X2X1X1X-Xr.7.-.[ < P A.D.D.S.Z.v.c.z.c.m.m.v.n.n.b.c.x.B.B.Y.Q.Q.W.E.:X:X:XhXkXhXhXhXaXdXlXjXzX:XK.VXKXPXJXO.6 *XHXLXLXLXLX",
"7X5X2X1X1X1X-Xr.7.-.[ 9 f z.Z.D.v.Z.Z.A.m.c.c.m.N.v.v.c.c.n.n.B.Y.Y.E.[.:X:X:X:XsXsXrXrXaXhXaXhXaXjXL.4.8XKXLXPX-Xr O.DXLXLXLXLX",
"6X5X6X6X6X2X-XI.7.X.{ < j 5.m.v.Z.Z.Z.A.N.c.b.c.N.v.N.N.N.n.x.n.c.E.W.[.:X:X:X:X>XrXrXaXaXsXaXaXrXsXF 0.8XIXKXPX8X] 7.JXLXLXLXLX",
"I.2X6X6X5X6X-X/.7.X.[ 1 t *.c.v.v.v.A.A.N.v.c.c.n.v.v.n.v.n.n.v.n.Y.E.].E.:X:X:XwXrXhXrXsXsXsXoXsX[.t 0.VXPXPXKXJXt.8XLXKXLXLXLX",
"7.t.2X6X5X6X2X*Xt.{  .8 2 Q 5.c.A.A.A.N.N.m.n.c.N.v.N.v.b.N.n.N.N.L.E.W.[.:X:X,X0XwXrXrXsXwX>X>XrX1.< 0.-XIXKXKXJXDXJXKXJXKXKXLX",
"*X7.*X2X5X5X2X*Xt.3.} 2 1 F 2.z.A.A.A.Z.Z.v.v.N.N.N.A.B.L.A.L.P.E.E.].:X:XrX0X:X>X>XrXrXrXwX>X>X:Xj < w.t.t.-X6X5X8X8XFXHXJXKXLX"
};
