/* XPM */
static char *resizegena3[] = {
/* columns rows colors chars-per-pixel */
"64 64 256 2 ",
"   c #171616",
".  c #15161A",
"X  c #1C1C1B",
"o  c #181617",
"O  c #160C0A",
"+  c #221E1D",
"@  c #291817",
"#  c #351C1C",
"$  c #220A0A",
"%  c #22211E",
"&  c #2B211F",
"*  c #34201E",
"=  c #1A1D24",
"-  c #171F32",
";  c #211F20",
":  c #1C2128",
">  c #232222",
",  c #2B2422",
"<  c #2D2926",
"1  c #2C2A2A",
"2  c #25262B",
"3  c #332524",
"4  c #322926",
"5  c #342C2A",
"6  c #3A2C2B",
"7  c #3C2725",
"8  c #3C302D",
"9  c #33312E",
"0  c #262B35",
"q  c #2D323C",
"w  c #3B3532",
"e  c #393736",
"r  c #452A2A",
"t  c #56282C",
"y  c #43332E",
"u  c #4C332E",
"i  c #443533",
"p  c #4B3533",
"a  c #423A37",
"s  c #4C3A35",
"d  c #4D3D3B",
"f  c #443D3B",
"g  c #5B3234",
"h  c #543D3A",
"j  c #5C3C3B",
"k  c #573836",
"l  c #582F31",
"z  c #663B3D",
"x  c #602F32",
"c  c #491B1E",
"v  c #47413D",
"b  c #54423D",
"n  c #5B433D",
"m  c #564035",
"M  c #65443E",
"N  c #2D3647",
"B  c #353945",
"V  c #2E384E",
"C  c #1C2B42",
"Z  c #683E41",
"A  c #723D43",
"S  c #3A4457",
"D  c #3E414D",
"F  c #3C4962",
"G  c #4B4643",
"H  c #4B4D4B",
"J  c #494947",
"K  c #5C4542",
"L  c #544E49",
"P  c #574945",
"I  c #54554E",
"U  c #59534D",
"Y  c #57584D",
"T  c #464B54",
"R  c #555651",
"E  c #5A5651",
"W  c #575852",
"Q  c #595952",
"!  c #56575C",
"~  c #4E5152",
"^  c #6B4343",
"/  c #634B45",
"(  c #6B4B45",
")  c #644D4A",
"_  c #6B4E49",
"`  c #654544",
"'  c #76494B",
"]  c #6C524C",
"[  c #68514B",
"{  c #73544D",
"}  c #79544D",
"|  c #7C4D51",
" . c #695956",
".. c #745552",
"X. c #7B5452",
"o. c #755A53",
"O. c #7B5C54",
"+. c #7C5D5A",
"@. c #755C59",
"#. c #68635C",
"$. c #7E615C",
"%. c #7B6258",
"&. c #585B65",
"*. c #4A5974",
"=. c #495468",
"-. c #5B626B",
";. c #566278",
":. c #6A6766",
">. c #786966",
",. c #7B726E",
"<. c #7B7675",
"1. c #6B6E75",
"2. c #8A565B",
"3. c #835C5B",
"4. c #8A5B5D",
"5. c #835657",
"6. c #864F55",
"7. c #83635B",
"8. c #8B655D",
"9. c #87675C",
"0. c #90685F",
"q. c #8B5D60",
"w. c #925E63",
"e. c #856663",
"r. c #8C6563",
"t. c #856965",
"y. c #8B6B64",
"u. c #8C6D6A",
"i. c #856C6A",
"p. c #936464",
"a. c #926C64",
"s. c #9A656A",
"d. c #936D6B",
"f. c #9B6C6B",
"g. c #966566",
"h. c #8D716C",
"j. c #8B7167",
"k. c #937265",
"l. c #93736C",
"z. c #9B756B",
"x. c #9D7A6D",
"c. c #977569",
"v. c #996E71",
"b. c #897775",
"n. c #947572",
"m. c #9B7573",
"M. c #957974",
"N. c #9C7B74",
"B. c #9A7D7A",
"V. c #9B7878",
"C. c #A17C6E",
"Z. c #A2726E",
"A. c #A37473",
"S. c #A27C72",
"D. c #A37B7A",
"F. c #AC7C7B",
"G. c #AA7779",
"H. c #A77176",
"J. c #8A817D",
"K. c #9D817C",
"L. c #988179",
"P. c #A48173",
"I. c #AA8575",
"U. c #A4847C",
"Y. c #AA857B",
"T. c #AD8A7D",
"R. c #A78879",
"E. c #B18A7D",
"W. c #A3816F",
"Q. c #687689",
"!. c #727A8C",
"~. c #576784",
"^. c #B37D82",
"/. c #7D8695",
"(. c #758FB4",
"). c #898788",
"_. c #978786",
"`. c #898D98",
"'. c #919399",
"]. c #A48482",
"[. c #AB8484",
"{. c #A68A83",
"}. c #AD8B84",
"|. c #A98A8A",
" X c #B58384",
".X c #B18D83",
"XX c #B48C8B",
"oX c #BA878A",
"OX c #B49184",
"+X c #B4928A",
"@X c #B9958C",
"#X c #BB998D",
"$X c #B99487",
"%X c #B49592",
"&X c #BD9C92",
"*X c #BB9898",
"=X c #AC9391",
"-X c #BDA19C",
";X c #8F9AAA",
":X c #BD9FA1",
">X c #9CA4B0",
",X c #A4A4A9",
"<X c #BEA3A2",
"1X c #A9ACB3",
"2X c #B1B2B8",
"3X c #C39294",
"4X c #C59B99",
"5X c #C49294",
"6X c #C5A39C",
"7X c #C7A59B",
"8X c #CA9DA1",
"9X c #D39DA1",
"0X c #C3A3A2",
"qX c #CBABAB",
"wX c #CBA8A4",
"eX c #D6AAA8",
"rX c #CEB1AD",
"tX c #D8B4AD",
"yX c #CCAEB1",
"uX c #D4B4B2",
"iX c #DCB4B4",
"pX c #DABAB8",
"aX c #CEB2B4",
"sX c #E3BBBD",
"dX c #E4B9B6",
"fX c #DFC2B9",
"gX c #E3C4BC",
"hX c #E9C5BC",
"jX c #8DAAD1",
"kX c #B4BAC3",
"lX c #A6B9D4",
"zX c #A5B4C8",
"xX c #EABFC3",
"cX c #B8C3D0",
"vX c #B7CCE9",
"bX c #C5CBD5",
"nX c #CBD3DC",
"mX c #D1D3D8",
"MX c #ECCCC3",
"NX c #E7C4C5",
"BX c #F1CCC3",
"VX c #EED2C7",
"CX c #F3D4C9",
"ZX c #FCD3D3",
"AX c #CCD6E3",
"SX c #D1DCEA",
"DX c #E2DDE2",
"FX c #D9E2EE",
"GX c #DBE7F5",
"HX c #DFF1FD",
"JX c #E3ECF7",
"KX c #E9F3FC",
"LX c #F5FDFF",
"PX c #F6FBFD",
"IX c #E2E9EE",
"UX c #FAE2D8",
/* pixels */
"H I I w X X : % % X X . X   X   X X . X   X X X X % 1 1 1 9 e w w w w U ,.<.G > , > 1 J Q ,.J.#.W #.Q Y Y Y Y Y Y U W W E Y Q W ",
"I J <   X % % X X X X X . X X X o o   .   X X X % > > > 1 < 9 v P U <.J.G w w 1 X % > 1 e Q )._.:.#.#.#.Q Y E E Y Y W W W Q Q W ",
"a %   X X X = X X X = X X X     . o . . X X % X % % % % , 5 e L #.:.>.J.=X>.f w + X X X 9 G E ! J.:.Q #.Q Y Y Q E Y Q Q Q ! Q W ",
"X X X X X X X % X X X X       X X X + > X X % % > < < 9 w w v a a v f 8 e :.<.Q 5 > 1 1 e H G G w P E L #.Q Y Q Y Q Q Q Q W W Q ",
"% X X X X % % X X   X X . . X X + ; ; > + X + ; < < 4 9 a a i 4 3 1 1 6 a a E >.f 4 5 w w w Q _.=XJ.L v b :.Y Y Y W Y I Q Q Q Q ",
"X % % X X X X X X X X X % % X % X X > > + + > 3 4 9 6 w f a y 6 r i p P U  . . .G 6 5 5 1 9 a G #.)._.J.#.J #.Y R R Y Y Q Q Q Q ",
"X X X X X X X X X X X : : X X % + % , & , 4 6 5 9 8 a v b b b d b )  .@.>.b.i. .P a 8 5 1 4 1 a Y  .#.J.J.#.#.Q Q Y I Y W R Q Q ",
"% X % X X % % % % X X % % % % X % X & < 4 6 6 6 y i m b K K ) ] @.i.b.^.=X=XV.@.{ U b 6 4 < , , w #.J.,.,.#.Y %.Q Q Y Y Y Y R R ",
"% X % X % % < % : % % % % X % % & , 4 5 8 8 y 8 y d d K ) ] ..e.V.|.*X<X:X:X|.v.i.>.) p 4 3 4 , > 3 G #.#.:.L P #.Q I Y Y W Y Q ",
"X X X X % % % % > > < % > < < < 4 5 5 6 8 y y y h b / ] o.$.t.V.|.*XqXyXyX0X:X'.K.n.$.) h y 3 , , > 3 w v L L v L Y I Y I I Y I ",
"X X X % % % % % % > > < & & , , 5 6 8 8 y y d m / [ o.+.7.h.m.U.XX*X<XyXyXyX:X*X=X|.v.$...K d y 4 , > 1 w v H J v P Y Y I I I I ",
"  % % % % % % % > > % % & , & < 5 y y y u m / ) { o.7.e.k.N.U.}.*X0XqXqXyXyX:X:X:X%X|.V.e...) b w 3 + > < < v <.Q f I Y I I W W ",
"% > % % % X % % & % , , , & 4 8 8 y s m n n ] ..@.9.j.k.V.].XXXX:XqXuXaXyXyXaX0XwX8XXX^.V.i.@.) K y + + > 1 , W ,.L a Y I I Y I ",
"% % % % X X % % , & , & , 5 8 u m n n / / ] o.o.$.l.x.N.B.^.+X*X6XqXuXpXpXiXaXaXaX0X*XXX[.V.u.e. .b & . X X > X 9 L w H Y I I Y ",
"2 % X % & % , , % , 4 8 m b n n / / / / ] { +.r.k.N.].}.^.%X%X:X0XqXeXpXNXNXpXpXpXyXeX4X%X[.D.d.e.) & . X . X > X e w G E Y I I ",
"> % % > % & < 4 , 6 s P / / / [ / / _ ] ..%.t.u.n.K.].XX%X=XXX^.8XqXqXiXNXVXNXsXsXsXsXeX8X3XXX|.V...3 . X . . + X 9 e G Q I Y I ",
"% % & & & 4 < 4 7 m / ] ] ] ] ] / ] ] ] %.o.%.%...@.i.V._.^.^._.|.0X:X:XpXxXNXNXNXsXxXiXuXeX4X%X^.@.4 . X o o + X < w G R I Y I ",
"9 9 % & 4 4 8 y Y %.%.%.O.o.] { { m m m m P n m K ) P j ) &.>.e.i._.^.^.%XqXxXNXNXNXsXsXsXiXeX5X].@.3   . . . X ; > e L I I Y Y ",
"m y , 4 8 a m P %.9.9.9.%.%.} { M m m m m m m m p r * * 6 6 3 r i ) i.d.^.|.:XaXsXsXsXxXxXNXdXwXXX+.,   X o X . X > v W W I W W ",
"Q y 8 8 y m n [ %.k.9.9.9.%.O.O.} { %.] [ ) ) ) K K h d i 3 3 & 3 7 p Z @.v.^.8XeXiXsXxXsXdXdXiX*X$.*   o . X ; X > J W I I W W ",
"[ m m y m / [ %.k.k.9.9.O.7.} } ( M / ( ) / / ) )  . . .) K d y 6 3 6 p j ..v.|.8X8X8XeXeXiXeXiXeXh.,   o o X X X % L I L I W W ",
"9.9.[ u m Y %.9.k.c.x.9.9.9.9.5.} M m l u 7 @ * 7 r p r p h K K h 8 6 r p ` q.^.XX3X3X5X9XqXeXiXtXK.@   o ; ; X X 1 W W Y Y R I ",
"W.R.W./ M %.k.W.W.c.c.k.9.9.9.9.7.5.5.( j k l u r r # # # 3 r s b h p p p ` q.V.^.oX^.V.[.%X0XqXuX<X, O ; ; X > % e W I I R I R ",
"k.$X$XW.k.k.W.W.W.W.W.x.k.0.0.9.9.0.0.a.8.} M j j j K h i 7 7 7 p p h ` ` ..p.D.XXV.@.j j K ] i.].:XR   > ; > ; % L I W R I I W ",
"k.OX$X$XR.I.I.W.W.W.W.W.k.k.x.k.0.0.0.z.Z.F.S.v.X.` M n j h h u r p j ` X.r.Y.4XF.( j 7 # # * 7 s  .U + % + < % v Q R R Y R I I ",
"W.E.$XOXE.I.I.I.I.I.W.W.x.k.x.k.k.k.Z.C.F. XoX5XoXA.r.} ` j k j j Z ( X.p.F.eXsXX.r h K P ) K s u d G , X , > 5 I Y I R R R I W ",
"OX#X#XR.R.R.E.I.W.W.W.W.C.x.C.x.Z.C.C.G.F.E.3X5X8X3X^.A.g.3.5.3.q.3.4.4.s.F.dXZX_ @ 3 7 s ) $.t.$. .d 4 & % < H W I I Y I R W I ",
"$X7X#X$XE.OXE.I.I.W.W.W.x.C.C.C.C.C.G.C.F.F.oX5X8X9X4X3XXX XA.Z.v.d.s.g.g.f.9XZXe.$ @ 3 i j ( $.h...8 , X % J R I I Y I W R R I ",
"#X7X7X$XOXOXOXR.I.W.W.W.W.W.C.W.C.S.A.S.D.F.Y.oXoX5X5X4XoXoXG.f.Z.Z.H.s.f.f.oXZXoXM ` K s # K ] @.p , + , G W I I I W I I L I W ",
"$X7X#X#X$XOX$XOXI.W.W.W.W.W.C.C.C.Z.f.f.f.f.A.A.G.H.s.r.g.p.s.Z.Z.H.H.G.E. X5XZX4X' 4.y.e.n u ) d , & < G W I R W W I W I I W I ",
"$X7X7X#X$X$X$XR.I.I.I.I.W.W.x.W.Z.k.g.a.y.4.4.5.4.4.4.5.' w.G.oX9XF.H.^.^.5X9XZXsXG.p.4.r.y.@.m 7 & w I W I I I W I I W I I I W ",
"7X7X7X#X#X#X$XOXE.I.I.I.k.x.x.c.z.a.a.3.O.} } X.4.d.d.X.g 5.g.H.^.oXH.^.^.^.9XxXdXeX9X@XF.N.n./ v H Q I L R I R I W Y I I I W I ",
"tX7X7X7X#X@X$XOXE.Y.Y.Y.Z.x.C.x.d.r...' ^ ) | 3.r.V.^.' g Z | 2.s.s.g.s.G.oX5X9XeXdXeXeXeX9X=X@.Y Y I I I R I I I I I I I I I I ",
"eXeX7X&X#X$X$X.XE.Y.E.S.x.P.P.f.8.( ) ]  .@.@.e.v.V.n.3.Z k g g A 6.4.2.s.G.^.oX9X9XeXeXeXeX%X>.U Y I W I I I I I I I I I I W I ",
"rX7X7X4X#X#X$XOX.X.XY.C.x.Y.A.k.5.( $.+.@.q.e.e.d.V.v.f.3.Z t k g g z 5.w.w.H.^.5X5X5XeXeXeX9X .I R I W I I I I I I I I I L I I ",
"tX7X7X4X#X$X$XOXXXY.Y.z.C.Y.z.z.5.` ) Z  .e.i.v.v.v.v.D.D.v.X.g l j z X.2.w.s.H.F.f.F.9XeXdX6X/ Y I W I I I I I I I I ~ I I I I ",
"tX7X7X&X#X.XT.T.E..XU.z.z.S.C.N.} ( { j 7 r g Z Z A ' A | 4.f.2.Z l l Z A ' A 3.3X0.f.3X8XgXJ.P Q I I I I R I I I I I I I I I I ",
"7X7X7X#X#X.XT..XE.E.P.z.c.P.Z.z.3.O.r.O.Z r # c j ' Z g x t z ' | A Z g g g A.8X5Xz.w. X6X0X .U Y I I R I I ~ R I I I ~ I ~ I I ",
"7X#X#X#X+X.XT.E.E.T.I.f.a.C.N.z.3.7.a.r.q.X.' t Z | ^ ..^ z | A Z A ' 6.2.^.eXeX3Xf.p.Y.-Xi.L E W I I I I R I I I I I I ~ I I I ",
"7X7X#XE.+X.XT.Y.T.Y.S.x.a.C.S.z.a.r.d.g.g.q.w.3.| ^ l | { a.m.X.| +.Z z Z 6.^.9XXXk.f.].i.U E R W R I I I I R I I I I I I I I I ",
"&X&X+X}.+XOXR.U.Y.S.S.z.k.x.S.S.k.8.p.y.r.p.w.4.w.s.6.x Z w.q.3.m.m.8.X.r t ' G.A.l.L.%.U R R R W R I W I I ~ I I I I I ~ I I I ",
"#X$X}.R.U.R.{.R.Y.I.S.C.c.z.W.S.A.d.r.r.4.8.4.2.2.2.s.q.' Z z A 3.O.5.( c t ' 8.M.U.@.I W R R R I I W W I I W I I ~ I I I ~ I ~ ",
"#XOXR.L.W.M.P.{.R.R.W.x.z.C.C.A.A.S.k.r.4.5.X.X.| | | 2.2.6.6.| A c t t t ^ 8.M.{.%.L Q R R R I I W R R W I I I I I H I I R I R ",
"#X$XOXR.M.k.l.P.U.R.P.x.c.k.C.C.C.x.S.m.r.+.X.' ^ Z A A 6.2.w.H.H.H.s.s.v.D.U.{.,.U E W R R R I R I ~ I I I I I I I Y I I I I ~ ",
"@X@X+X.XR.M.l.j.c.P.L.k.k.0.z.x.N.S.U.U.U.N.g.3.| ' j g g Z | 6.2.s.v.v.^.[.].i.L Y R R R R I R I W I W R R R R R ~ I I ~ I I I ",
"&X@XOX}.R.P.c.k.j.j.k.k.y.a.y.k.z.x.D.D.[.XX[.]._.B.v.u.@.Z Z ' 6.2.w.V.=X].i.v L Q R R ~ R R I ~ R I I R R R I I I I I I I I ~ ",
"&X&X}.{.R.M.c.n.k.9.7.7.%.9.8.y.k.k.m.k.k.V.D.].^.|.*X8X:X^.v.q.6.r.D.XX|.aXDX,X:.J H W W Q W W R R I ~ Y R R I I I ~ I I I I I ",
"&X@XOXR.S.c.l.j.k.j.9.7.%.O.O.%.9.7.7.7.$.7.y.u.v.V.].XX*X0X0X5XXX8XqX%X_.2XnXKXKX1X:.J J H ~ R ! R Q ! ~ I R ~ I I I I I I I L ",
"&X@X}.R.N.n.l.j.j.y.y.7.%.3.O.o.O.O.} o.o.o.{ o.%.9.k.n.V.^.%XwXaXaXyXb.! 1.!.).2XJXPX2X).1.-.! ~ J J J ~ Y Y R ~ R I R I R H I ",
"&XOX}.U.N.l.l.j.y.y.9.7.%.%.O.O.O.} { { ] { { ] ] } +.7.3.u.V.|.:X:XyXDX,X&.) :.1.).mXLXLXIXbXkXcXbX1X).! J R W R ~ I I H R I R ",
"#X+X}.U.N.x.l.u.y.y.y.y.9.7.O.} } 3.O.O.} { { { { ] { ] ....%.%.u.i._.2XDXmX`.&.&.&.,XJXPXLXKXmXkXAXLXLXIX,X! J W R I R R H I H ",
"#X+X}.R.U.V.n.l.j.y.e.j.n.l.9.9.{ { { O.%.%.%.O...+.X.O.O...) i.v. .e.1.).:XDXbX_.'.nXFXGXJXPXPXIX1X`.bXLXLXmX1.T H ~ ~ W I I I ",
"#X}..XU.B.N.M.l.d.h.h.n.M.M.M.l.a.3.{ ( _ { O.3.7.7.7.9.e.9.R.gXb.K :.>.<.>.<.'.1X,XkXAXFXJXGXJXLXLX1XT >XFXLXKX1X/.-.H H W ~ I ",
"@X+X}.U.K.N.B.c.h.h.d.l.M.P.N.N.n.u.e.+.{ ' _ { X.O.7.3.{ R.fXVX>.@ h L  .>.<.<.!.,XkXmXAXFXFXFXIXLXLX! q /.cXKXHXSXGXzX1.T W ~ ",
"+XOX}.U.K.K.M.M.V.h.h.l.n.M.M.V.n.d.u.e.3.X.X.X...{ { _ l.tXhXUX>.O > ; ; 3 i T &.1.'.kXbXFXFXJXJXJXLXmXq q -.2XKX>X;XHXHX;XT ~ ",
"+X+X|.R.P.K.N.N.n.h.l.j.u.j.l.u.u.e.r.e.t.3.+.+.O.$.+.+XMXVXVXUX{.O ; 2 2 2 = 0 6 2 0 D ! /.>XkXKXKXKXLXbX-.-.S '.FXQ.Q.cXHX'.T ",
"+X}.|.{.{.K.L.V.n.n.h.i.j.y.i.i.e.e.e.e.y.r.e.e.7.9.=XMXMXVXCXCXgXu O X X > 2 0 q 0 q 0 2 : - q 1.kXJXLXLXSXAXnX=./.HXzXQ.zXHX>X",
"R.{.{.U.K.K.N.L.M.l.j.i.i.t.r.t.t.e.e.8.r.r.y.y.n.%XfXVXVXCXCXCXMXK.3   o . X 2 2 0 B D B B N 0 - 0 -.kXLXGXAXKXHXD Q.HXlXQ.lXHX",
"].R._.K.K.K.L.M.M.b.l.h.i.e.e.t.t.e.e.e.y.a.r.N.%XuXgXVXVXVXCXCXMXrXl.& o = X . = : q 2 B B T S N C = C 2XKXAXnXFXbX: /.vXlXQ.lX",
"n._.R.K.K.P.K.M.M.M.b.h.i.e.>.t.e.e.e.e.y.u.K.%XrXfXgXhXMXVXCXCXMXfX7Xt.* o ; = . . 6 D q B T S S S V - V bXLXHXAXHX1.C vXvXlXQ.",
"n.L.K.K.K.B.B.M.M.M.M.h.h.i.t.t.t.t.e.t.j.K.#X<XuXfXfXfXMXVXVXCXBXhXtX4X@.@ X = = X . B T B B B N =.S *.S C `.SXKXFXcXN Q.lXlXjX",
">.M.L.].].K.B.B.B.B.B.V.l.h.y.j.i.j.u.V.{.%X-XrXtXfXfXfXhXMXVXCXBXhXtX7X-Xj X > ; = . . J -.&.S S S C *.*.F V F lXHXGX;X;.lX(.(.",
"K ,.M.L.B.K.K.M._.B._.B.M.M.h.n.n.n.M.=X-X7XwXrXtXtXfXgXhXhXBXBXBXhXdXtXtXXX3 > 2 : = . = T !.`.!.*.F F F ~.~.*.C >XHXGXlXjXjXjX",
"y ) i.b.V._.].].].B.K.B.B.B.M.B.L.{.=X-X&X-X-XrXrXrXfXfXhXhXBXBXBXhXhXsXdXsX .+ 1 : : : . : =.`.;XzX(.*.*.*.~./.*.F (.SXHXvX(.jX"
};
