/* XPM */
static char *_564268593255[] = {
/* columns rows colors chars-per-pixel */
"64 64 58 1 ",
"  c gray37",
". c #5F5F5F",
"X c #606060",
"o c gray38",
"O c #626262",
"+ c gray39",
"@ c #646464",
"# c #656565",
"$ c gray40",
"% c #676767",
"& c #686868",
"* c DimGray",
"= c #6A6A6A",
"- c gray42",
"; c #6C6C6C",
": c #6D6D6D",
"> c gray43",
", c #6F6F6F",
"< c gray44",
"1 c #717171",
"2 c #727272",
"3 c gray45",
"4 c #747474",
"5 c gray46",
"6 c #767676",
"7 c #777777",
"8 c gray47",
"9 c #797979",
"0 c gray48",
"q c #7B7B7B",
"w c #7C7C7C",
"e c gray49",
"r c #7E7E7E",
"t c gray50",
"y c #808080",
"u c #818181",
"i c gray51",
"p c #838383",
"a c #848484",
"s c gray52",
"d c #868686",
"f c gray53",
"g c #888888",
"h c #898989",
"j c gray54",
"k c #8B8B8B",
"l c gray55",
"z c #8D8D8D",
"x c #8E8E8E",
"c c gray56",
"v c #909090",
"b c gray57",
"n c #929292",
"m c #939393",
"M c gray58",
"N c #959595",
"B c gray59",
"V c #979797",
/* pixels */
"rytr>:;:44444444<>>16998bbbvxzllO+#oxjllrttw7445::>;64655336qtre",
"wree>::,34444555<,>15775vvcxzlkk+++Xlhjhwerq7557::>;645453360wwq",
"yiyt,>;>23443445,,,26009bbbvxzzz+OOOzlzktttw8445::>-64543336qrtr",
"rtew::-;55654334>:>14787xccxlkkk@+@@ggjgrtrq8555:;:;767644570wee",
"sddgweerxxxlhffgMmnnmMmn344321119898bvbbklzzllzx:;:;980988765443",
"ipps0wqwvbbxjfdfnnbbbbvv1111<,,,9900zzxxjklllzzx:-::00q099864222",
"dfsfqwqqcvvzhddfbbnnmMMM23321111980wzvbvzzzzllll:-;;00w078875455",
"asadqewexvvzhffgnnnbbbbb1121<<<<088qlcczkklllzzz:-;;00q978874223",
"7667#%$#<,,<2332-=&;#*%$6417,52<jhfk>2<,iyyi1321etuwBbmN99q9puip",
"7887$$$$1<<<111<>:->$*%$3426<423ghgj><,<uuuu1111ytywNbnn00w9puii",
"4665%#$%<<<12334**&;@%$%56461312jkjh,>:,yuuu4334trtrNMNM9908ituu",
"0083=#++,<11<112;;;,#&%&34233423fhfd3212sair51,>ytuynbmnq0w0spaa",
"0wruhlxcaaaurqqw9988--==rtetjlklyuyi0wqw;;>20ryy<,1,6565:;>:8798",
"yyttllkkpaauw990qwq0;;=;weqwzxlzerrtryty<,>,www01<212233,>,,qqwq",
"eerelklliasirqwr7988===;etrwxljltuyrtrer,,,>trrr1,133564>:>:0909",
"etyezjkzpssiw99q0wq0--=;qtrqxkkceyyetwwt,<<>rwwr3<<32552,>>>0909",
"teeufkjglljz>1,,21124554=,::5648112<2<11lzzlhghjlkkkjjjhvcnn$$*&",
"yrrudjhflzll>,>,43334443:,;:56361<<11221zxczkhhjjjjjjkkkMnxm&;&%",
"ewwydjkjhlkk<<,2<1123444;:-:68674213<11>zzzlhgghzllkkkjhxMvm#&@=",
"rrtidhhhcclh3,;:12333345:>:,3555,,15:144zxxzkjjjlkjjkkjhvMvx:-$-",
"3322221<9qwyqyup0qq852234453<>,,sair@o. rrrrewee<<<26898$+#=4907",
"554321<<rterrterwee051136575:->:yuiuOoO+rrrrrrtt,>,15898&+#@qqw8",
"22321112weewyyty80q831244265>:1>ipppXXooeeeeeeee21<36886+#$#978q",
"33431<<1wrrwyrry0we94<137355>:<;piipXOOottrrrrre<,,26997$&+#0e79",
"jkhkmNmm90w7yqeeffsh:1,,paspNmMM9we8perispia3432bbvmhlkkgddh%==&",
"hjhkmBMNq0q6r0q0fgfj>1<1saapMMMmqee8ieetuuii2223ccxbglkkfffh&*==",
"hjgkmNMNq908rerwpssf,<<2appsMBVN0008uttyaddp5334vbvmjzzzfggf&%%%",
"jljlnMnMw0wqq0w0kkgd31>>sssfcbbbweewtrrtyuur6434vvcngjhjddda:;;;",
"0q90ttertryr3<21*=-<>345776611<<122<&$$%<11144448978:>;:iuip8909",
"weq0rrweuyiu,><,1<><24218998;--;3453$##$;;;-65558877==*=uttuette",
"qeq0reqeytup,<31::;:23237780->>>2224#%%%,<<:95569099;;-;uyytewwq",
"0wqqrrerityi><1>:,>>33349770->>:5314#%$@;>,-83477878--=;yyutrqww",
"rtyezjjkzxxx$$$%xzkc48657757rurtweewzzzxvcccccxxffsfxvzzccxxzlll",
"yttrxlllxvbx%@#%zxzv58786757rutterrexzzxccccccccddadzczxxxxzzlll",
"uyttjjjhkzxj&@#%zxzz45356657rytyereexzzzvvvvvvvvdfsfxvxcxccxzzzz",
"eryihlxcbbcj:&$$lzkk98786767rtrtwewwxxzzccccxxxxdfsfzxlxzzzlkjjk",
"aaie2;--;:<4=>115656,1<17978erwe&&%&qqqq8998655512<16756ghhgsppa",
"tipy<>,12113<11<443445348988weqw%%$%qwqq78874333<2<<5535fggdpyui",
"uipu:;;>,>,,<11<453231<18988wwqe%%$%qwqq8998534512115646fhhfpuip",
"iiii>>>,1<1<1,<<365252147988weqe*&%&qwqq79985445<2<15546dggdpuup",
"9008fssfvvcb25343333aapplkhz2754+oOO<<1,vccvbnnbvcxvrytr0909q0q0",
"7998fdfgvbvv22121222assshjhl2545+oOO<12<bvvvvvvccccvttyy9789qwwq",
"9097fsascbvv54364433aapplzlz4545OoOO<<1<ccvvbbnnvbbcyeer099q9qq9",
"9987gfddmmvl73<<4323ssaahjhh7757+O++<,1,ccvvccvvzzzkpyyu78qt60er",
"OOO@890080qywuip>>,1fhjjrtry9q0qzlzlVBVBerrq7444ppaaffggbvxj>*%$",
"Ooo@9qqqww0wrytr>>>1fjkkqw0wwewwxzxlVNBBerr05212ttytjjjkxcvz-**-",
"+Oo+8098qw0quiuu<<,2fjhhrtrwrwqwzlxlVNBBqerq6335yiirkgghvbbc*%&*",
"OoX+9qq9qwqquyty,>>1gkkjwrrqrqqezlxlVNVVwrtq5113tiptlfgkxccc***=",
"aaaa,>>>55543211,<<,:;;;53452231Mbbmryur6537>31<,<,<67671,>28ww0",
"assp>;;>45554444>>>:;;;;53552342nvnnrryr3437>212>,>,56562<<38q08",
"psdp2,,1554321<<221,>:;-42441131MmMntere6867<1<2,1,<6867,>>270q9",
"sspe2:--76554432,>::::;-64651131bcbxiyuy24222312:,:>4645111480q0",
"0wrugkzclllxvnmnhghlvnmnq9q0435321333243$%#&3645qw0wipipcxzzzzzl",
"wwqwghggzzzvmNNNdsdhcmmnwqeq5343,:,,6576O+o+57569090yuyubvvcxzzz",
"qwwqlkkkxzzxbnnbkhgkvMmbq0w031321<2>7455@$@+76560q0qupuixxcxzzzx",
"qeeqkhjkxzzcnMMmhfdjvMmbq0w04243,,2:7255O#@O75589q90yiyucvvczlll",
"988qyppiyqwt:<1;11<23554;;,-5134ttttrrrtsjgfxzkcetrr>>:,;,,:iyti",
"q00wyiiuw0wr:,1>22223444,:,;5242yyytrrergkgfxxkzwree>>:,><>>iiyi",
"878qtipitetr>><>><<,4445:-;;4453yyttrreefgdfxczxyutr,>:>;;->ypii",
"000eypapwqw01,<,441>9633<><<1131rrrrrttrhhghllllerww,<>><1<2ruty",
"21<<121<2<222232OO@=flxczkzkutytqqqetuuuwwe053333437>112wrwwww0q",
"43333321,>,>4342&$$*kxzlcxvcrwre090wtiiireyw3<221115>222yiyu9080",
"<<<12233212>6232#@@$lxxzxlxcwryr099wtiiue0rw31525436,311rtey8q90",
"32222222>,2:5<34#$$$lzzzvzxvetyeq00wtuuyyqrw324<3215>321yteu8e09"
};
