/* XPM */
static char *cbt6v_b1597[] = {
/* columns rows colors chars-per-pixel */
"64 64 250 2 ",
"   c #1D0D05",
".  c #140F0A",
"X  c #1A0E09",
"o  c #130C04",
"O  c #15120D",
"+  c #1C140D",
"@  c #1B150B",
"#  c #161512",
"$  c #1C1611",
"%  c #1D1A14",
"&  c #1A1A19",
"*  c #171919",
"=  c #0F0E0A",
"-  c #23140C",
";  c #22190E",
":  c #2C1A0E",
">  c #27140A",
",  c #331B0E",
"<  c #37180E",
"1  c #221611",
"2  c #241B13",
"3  c #2B1D14",
"4  c #241E19",
"5  c #2A1A16",
"6  c #331E13",
"7  c #3A1D13",
"8  c #381E1B",
"9  c #2A0A00",
"0  c #39220D",
"q  c #2C2116",
"w  c #24221B",
"e  c #2D221A",
"r  c #352315",
"t  c #3B2316",
"y  c #33251B",
"u  c #3C251A",
"i  c #35291C",
"p  c #3C2A1C",
"a  c #3B2A16",
"s  c #2C2924",
"d  c #342B23",
"f  c #3B2C22",
"g  c #342924",
"h  c #3B3329",
"j  c #3D3934",
"k  c #1E2015",
"l  c #421C19",
"z  c #422516",
"x  c #43261A",
"c  c #4C251C",
"v  c #442A1C",
"b  c #4B2B1D",
"n  c #4B2816",
"m  c #522D1D",
"M  c #592E1E",
"N  c #4C311E",
"B  c #54321E",
"V  c #5A341F",
"C  c #5D381D",
"Z  c #632F1E",
"A  c #432D21",
"S  c #4C2E21",
"D  c #422F2A",
"F  c #532E22",
"G  c #5A2E24",
"H  c #443223",
"J  c #4C3324",
"K  c #4C3529",
"L  c #47372A",
"P  c #543223",
"I  c #5B3423",
"U  c #543925",
"Y  c #5C3925",
"T  c #543329",
"R  c #5B352A",
"E  c #543A2A",
"W  c #5C3B2B",
"Q  c #493C31",
"!  c #5D3D31",
"~  c #533B32",
"^  c #623625",
"/  c #633A25",
"(  c #643C2A",
")  c #6B3D2B",
"_  c #673928",
"`  c #723D2B",
"'  c #713D27",
"]  c #6B3E32",
"[  c #653D33",
"{  c #723F30",
"}  c #3C433C",
"|  c #5C412C",
" . c #4A433B",
".. c #5C4333",
"X. c #594538",
"o. c #66412D",
"O. c #6D422C",
"+. c #6C4027",
"@. c #72442D",
"#. c #75492E",
"$. c #7B452F",
"%. c #644334",
"&. c #6B4432",
"*. c #634A34",
"=. c #6B4B34",
"-. c #654539",
";. c #654C3B",
":. c #6B4C3A",
">. c #6C433A",
",. c #734433",
"<. c #7B4533",
"1. c #744B35",
"2. c #7A4A35",
"3. c #744C3A",
"4. c #7B4C3A",
"5. c #76453A",
"6. c #6B523B",
"7. c #75533C",
"8. c #7C523C",
"9. c #7A553C",
"0. c #574C43",
"q. c #51524B",
"w. c #6A5648",
"e. c #755243",
"r. c #7C5542",
"t. c #7B5943",
"y. c #7B5B4A",
"u. c #725349",
"i. c #7A634C",
"p. c #6C6257",
"a. c #7A6457",
"s. c #7B705A",
"d. c #79756A",
"f. c #706C63",
"g. c #834D3A",
"h. c #834D38",
"j. c #83533C",
"k. c #89543E",
"l. c #875A3E",
"z. c #835543",
"x. c #8A5541",
"c. c #845B44",
"v. c #8B5B44",
"b. c #8B5C4A",
"n. c #86584A",
"m. c #935C4B",
"M. c #945B46",
"N. c #965C51",
"B. c #8E5951",
"V. c #8D624B",
"C. c #886448",
"Z. c #94644C",
"A. c #9A644C",
"S. c #9D6D4D",
"D. c #946649",
"F. c #896654",
"G. c #946552",
"H. c #9C6453",
"J. c #946B54",
"K. c #9C6C53",
"L. c #986B5A",
"P. c #9B725A",
"I. c #997557",
"U. c #8F7459",
"Y. c #A26C4E",
"T. c #A36C53",
"R. c #A76C58",
"E. c #A47354",
"W. c #AB7A56",
"Q. c #A2735C",
"!. c #AC755C",
"~. c #AB7B5B",
"^. c #A87957",
"/. c #B37C5E",
"(. c #B5795A",
"). c #A1704F",
"_. c #8D786A",
"`. c #967664",
"'. c #867C74",
"]. c #966C63",
"[. c #AA6E63",
"{. c #AC7B63",
"}. c #A97763",
"|. c #B27C62",
" X c #B87C65",
".X c #B2825C",
"XX c #B4895E",
"oX c #A9825D",
"OX c #938374",
"+X c #938674",
"@X c #AB836A",
"#X c #A98466",
"$X c #B38464",
"%X c #BC8465",
"&X c #BB8A6C",
"*X c #B78568",
"=X c #BB8B74",
"-X c #B78875",
";X c #BA9379",
":X c #AA8D73",
">X c #C5886B",
",X c #C4916D",
"<X c #C58D74",
"1X c #C49372",
"2X c #CB9473",
"3X c #C3947C",
"4X c #CB957C",
"5X c #CC9A7C",
"6X c #C79A77",
"7X c #D29374",
"8X c #D39C7C",
"9X c #D79979",
"0X c #D28E75",
"qX c #D8A17D",
"wX c #CAA578",
"eX c #E2A57D",
"rX c #99948B",
"tX c #94918A",
"yX c #B29D91",
"uX c #AAA39A",
"iX c #B7A69A",
"pX c #B5A684",
"aX c #AAA7A1",
"sX c #B9B1A6",
"dX c #CC9B84",
"fX c #C69982",
"gX c #D69D82",
"hX c #CBA487",
"jX c #D5A183",
"kX c #DAA483",
"lX c #DBA788",
"zX c #D7A993",
"xX c #D2B597",
"cX c #E3AD8B",
"vX c #E6A987",
"bX c #E8AD92",
"nX c #E9B496",
"mX c #F4B89A",
"MX c #ECB08F",
"NX c #ECBDA4",
"BX c #C2B1A1",
"VX c #DFC394",
"CX c #E5C797",
"ZX c #ECC295",
"AX c #F8C6A9",
"SX c #F8CDB1",
"DX c #FAD5B9",
"FX c #EAC8A8",
"GX c #FDDDC1",
"HX c #FFE4C8",
/* pixels */
"I.V.9.:.*.o.U U v a , , , 0 , : r r a r x n c m P T R W [ R o.&.%.=.>.&.o.o.%.&.o.&.&.| E J v p u x b b P R 1.c.c.C.S.I.W.$X;XwX",
"7.=.| U L L v p r q q q 3 3 q q : q : r r p v a x S S P G R [ ! [ ( W W W ( W ( o.( W P J v v p p p A K T E *.:.1.j.V.I.^.$X;X4X",
";.;.w.w.s.d.d.d.+XtXtXrXrXuXuXuXuXuXuXrXd. .f f v v n S T S T T R R R R P T R W Y R W W E L L ~ p.f.OXrXuXuXiXiXsXiXBXiXiXyXyXyX",
"f.p.q. .h s w 4 # * % k w w s s h X.d.tXuXsXaXuX_.w.A r 8 A S S P S P I Y I W R ! ! ..~ ~ 0.p.'.d.f.q.q.j h j L } q.q.p.d.tXaXsX",
"O O = o . + + + 2 2 2 % k % % w % @ @ % @ @ d q.f.'.d.w.j p A v T T F T P I W ..~ D y e e 4 4 & $ 4 w w s h h L h D D p 8 5 2 5 ",
"o @ 3 y f g g y g y e e i i i q e d d i e e 2 X # * w h 0.0.X.J L K E [ ..E A t 1 $ $ 1 $ # s s g g h d d i g p S E =.7.F.y.y.i.",
"f h H f p y y y 3 5 q 3 q 2 @ ; q e i i y q r d w ; + % & g 0.f.'.'.'.OX'.p.Q . $ . $ 4 s g w $ $ # % % % w i a A J U | t.J.P.@X",
"v v v u 6 3 : - 2 - @ @ @ ; % % @ k q e r p i q i q 2 4 & O # . s j  .h 5 # * * O 4 s s 4 % $ 2 # # # * w i f h g L K U o.1.Z.$X",
"N r 6 3 3 2 1 $ O . = O O O % % 2 % ; 2 q i y i y y 3 2 O & = @ O # # # $ & + + 5 g 3 % 5 e 1 $ # # # & & h X.H u v L B P o.c.Q.",
"i q 3 1 1 2 $ X O O O # O @ 4 3 ; @ @ 2 3 q q e y y q 4 # # % o $ . $ $ & 1 . $ e g q 2 5 s 4 % @ O % % d 0.X.L L ....W ( 1.J.#X",
"3 : : - + 2 4 $ O # # # O $ 4 w @ 2 ; ; 2 q 3 3 5 e q 3 O O +   o 1   - X $ * * g f 2 ; 2 4 4 5 q + 2 1 h X.E :.:.u.t.9.9.Z.E.#X",
"3 ; 2 - + 4 4 1 O = O O O $ e e q ; + - ; 2 q q 5 y e 2 . % o L _.yX:XL.-.- . * g H 6 3 q e 5 3 i e D A X.;.| y.V.J.J.J.^.#X*X$X",
": 2 3 3 2 3 2 + @ @ # @ @ % e e q 2 @ + 2 q q q e q g $ + 1 f _.;XdX3X@X:XE X = i X.H v p d y p f H K ~ -.y.t.t.V.J.S.oX&X1X1X1X",
"3 3 y y y y 3 ; 2 ; @ % @ q q e 2 ; + 2 2 q q 2 e 3 q + 1 ; a.-XfXhX=XK.J.F.- $ y X.E v p y p p A D H P W =.6.9.l.D.W.&X2X6X1X1X",
"q r r i i p i r q q q q q q 3 % ; ; 2 2 q q q 2 3 e 2 O $ 8 F.Q.}.{.G.8.o.y.: X q w.=.J N a p u v A K R W / O.j.K..X,X7XqX5X6X6X",
"r : : r r r a i a i d d i e q 2 2 q q q 2 2 q w 3 f 2 O + K 3.h.c.U.}.J.=.A : 1 : a.F.e.X.L H t p A v x U O.7.U.$X1X2X2X2X7X5X5X",
"r r r r r r r a a f f f i q q q w ; 5 q 3 3 5 d p i % O o v &.b.].-XhXxX;XG.7 % % i.oXQ.F.e.6.o.R I E :.y.F.P.|.&X1X2X2X2X2X2X6X",
"N p i r r r r 0 a a i a e e q q q q 3 3 3 q y g f y + O - T r.R.@XzXNXSXFXxXF.+ 2 *.;X-X:X@XP.G.F.F.J.`.{. X-X1X7XkXkXqXqX2X2X2X",
"J H p a a r r a r i r r i i e r r e q q i y p p f q . X 5 W b.!.dXNXSXGXHXFXdXE 5 p #X=X=X=X=X-X@X{.{.-X;X3XfXgXlXlXvXqXqXqXqX2X",
"U N v v x r a i a i a i a a a e i r i p p p p f g 2 . - u %.m./.6XnXSXHXGXNXbXK.1 6 `.<X4X-X-X3X-X*X|.-X<X3XgXlXjXjXjXqXqXqXkXqX",
"N U J J v v v p p p v N H H H H p p p p p A f v 5 + X 3 J ,.Z. X,XlXAXGXHXAXbX,XS : y.;X4X2X;X=X=X-X-X=X3XfXdXdXjX5X8XkXkXqXcXcX",
"B U U U J J J N N J K K E E K K N v p p p A v h 2 @ - 3 J &.m.(.<XvXnXSXDXAXbXvXV.  Q -X<XdX3X3X3X3X;X3XfXfXdXdXgX8X8XlXcXcXcXcX",
"| U E U E E U J J E E E | | W E J J p p v H h i + @ 3 i J ( v.T.>XgXbXSXGXAXMXeX>Xr e `.dXhXfXdXhXdXfXfXdXdXgXgXgX4X6XqXcXcXcXcX",
"B | U W | | | U ..W | W E ..! E E J H v L H p : o X y p T ) x.Y.*X9XcXmXDXAXmXvX7X:.1 y.dXdXhXgXhXjXdXdX4XdX4X4X4X4X,XwXqXcXcXcX",
"| ..| | | ..*...-.%.! W [ [ -.>.[ ! T J J L y X   5 u A F o.v.K. X>XgXmXSXSXmXMXeX>Xl 8 `.wXjXcXzXhXdXdXdXdXdXdX3X;X&X>X8XvXcXcX",
"U.w.X.X.w.>.&.&.1.&.&.=.] ] >.%.e.-.-.X. .p - o 3 r A S I &.z.H.R.>X9XbXAXSXmXvXvX9Xb.< z `.zXdX5XdXgX5X0X4X4X4X0X0X>X>X2XlXzXdX",
" .s.:X+XF.y.y.z.e.u.3.e.e.u.e.e.w.w.-.L 6   + 5 y r x S R 1.c.H.R. X7XvXAXSXAXMXMXMX,XC < 8 -.`.-X;XfXfX3XfXfXfX4X3X3X;X-XpX`.%.",
"N 0 a w._.OX_.'._.F.a.p.u.u.0.0.J x r > ; r r 6 u u u P o.8.m.H.(.(.0X9XMXAXAXmXmXeXeXY.c l S 7 a J >.a.F._.`._.U.i.6.*.m Y F.:X",
"o.o.%.=...T A 7 8 < < > < 5 : > < t u t 8 u u u u u v R 3.b.R.}. X>X>X7XkXnXNXAXmXmXMX9XR.j.8.J.e.-.W R P T ! [ %.e.F.G.Q.4XbXzX",
"O.1.n.N.L.].L.B.n.B.n.y.r.e.3.>.%.T x z u u 7 7 6 7 S ( j.Z.}.-X<X>X0X7X9XvXmXAXmXAXMXmXvX2XY.h.x.2.,.4.g.z.B.N.[.[.[.!.!.>XgX9X",
"9.j.b.b.N.N.N.N.B.B.x.z.e.5.] ( T m v u 7 : , 7 7 x Y ,.z.K.{. X>X<X>X7X9XgXMXAXmXmXmXmXvXeX8X/.k.$.' ' ' ) ` { 5.g.k.k.D./.2X5X",
"9.9.c.t.z.z.z.8.{ 5.5.] ] G G F n b z r r i t 6 x E =.3.c.Z.!.|. X>X>X>X0X9X8XnXmXMXMXMXMXvXvX7Xx.5.,.&.] { { ,.@.<.2.h.M.!.>X2X",
"8.8.4.2.5.,.) ( _ ^ ^ I I P P m F c x x u 7 x v R [ &.r.z.b.G.H.T.!. X/. X>X>X7X9XvXeXvXeXeXeX7XY.$.' +.( ) ] &.5.{ <.g.M.E.%X>X",
"5.5.&.&.( ( / ^ Y ^ I I I P P m F F S c x u n P W / ] ,.,.5.<.h.k.x.M.N.A.Y.R. X%X0X0X0X7X0X7X0Xk.$.@.+._ ( / ( { ,.4.j.v.T. X*X",
"O.O.o._ / Y I ^ G I ^ I I I P M F m F b b n F P P I Y / / _ ) ' ` { { <.h.h.k.H.R.(.(. X%X%X>X%Xz.` ) O.( _ _ ^ ) ,.h.g.k.Y.!./.",
"&.O.) / ^ ^ Y / ^ ^ ^ I P G m P m m c F b m F Y Y I / / _ _ _ _ ' ` ` ` $.$.$.k.A.(.Y.Y.(.(.(.M.2.@.&.O.( ) ( ) ) ) ,.h.v.D.)./.",
"@.O.) _ / / / ( ) _ R I B m m m m m m m c m I R ^ _ _ ] ) { ` ) ` ` { { ` ` $.g.A.T.A.A.T.T.A.h.5.&.&.&.O.&.) &.) / _ 5.k.v.S.W.",
"O.O.) ) ) ) ) ( / R ^ P M m m P m m F b m F I ^ _ ) ] { { { { { ` { <.<.h.<.h.M.k.z.h.h.k.l.j.,.3.,.1.=.&.1.o.&.o./ ^ ) 4.k.M.W.",
"@.@.O.O.O.O.) _ I I V B B P B m b b b b S F P I ) ] ] ) ) ^ ^ ^ _ { <.h.g.k.k.k.4.j.h.k.v.b.b.t.8.4.1.1.1.1.&.&.&.o.I Z @.j.M.E.",
"` O.' ) ' @._ ^ V I P I I T B m b b S b b m m F m V P G M M M I ^ { <.h.g.x.h.$.2.2.2.c.V.G.G.b.r.8.9.9.9.7.1.3.=.&.^ M _ 4.l.Y.",
"&.O.@.,.O./ I I Y C I Y I V P P b J b v n S S S S S F F I R I ^ ^ _ ] { ,.,.,.,.,.,.4.G.P.K.P.V.b.c.c.j.c.8.2.1.&.o.W I I <.j.E.",
"@.) O.O._ ^ I V U V I I I P P b m b b v v J S S x c n c m m P P ^ _ _ ] ) ) ( ( ) 1.V.Q.Q.Q.}.P.V.b.C.c.9.9.9.3.o.) R F I ,.k.W.",
"#.O.O.) ^ V V V I Y U Y I I T b m b n b S J b v c x x x v b b F I I R I I I Y ( o.z.K.{.{.{.~.P.D.Z.b.c.c.t.=./ ( W W m I ` l.~.",
"#.@.O.) V B V I C I I V P I P B m b v b J J S n A x x x x b b S b b b F m P Y ( 3.G.}.*X*X|.~.Q.Z.D.V.b.7.&.| E Y R W b G @.A.~.",
"1.O.O.( M m B I C V V B V B M m S S c S P P v x x x x l x x x x v x c b S P W %.r.P.{.*X$X!.{.{.P.F.r.3.( b u n P T T c I <.K.^.",
"#.O.+.R m n B Y C B I I I I P T P S F T R T S b x c S S S c S S c S S P Y R &.3.b.H.Q.!.}.Q.P.L.F.%.z < , < r x F P b m _ h.E.E.",
"#.O.+.Y b b B V b b n N J b S K J J T W R I P F S S F S S S c c S c F R R ( 5.4.b.b.M.m.Z.G.r.R > > : 6 6 7 u x b J n P O.Z.!.S.",
"#.O.+.Y m b B P b t r 6 r 6 7 x S S P R R I P P G F F F F F S F S F F R / / ) 5.4.z.z.k.4.1.R 9 X 2 6 5 8 u A v b b z I 1.K.oXS.",
"#.#.O.Y m n v N v a 3 > - 1 1 1 : , x z G F F R F F P G F F S S c S G ^ ^ ^ _ ,.4.5.) C <.j.[   X 5 7 7 v J b n v J n o.l.~.).E.",
"#.#.O.Y m v v v n a 6 5 > $ 1 X 5 5 x x c F M F F F P F G G G T T G [ ) ` ' ) / Z ^ 2.h.v.}.-.- > 8 S F T Y T b n b N O.K.).S.$X",
"@.#.O./ B n v v a z t 6 5 - X - 1 : u S n P P B c n n c c c b m M F G M Z ) @.+.` k.I.v.l.{.F   u S ! >.:.-.W Y T z ( j.~.E.S.=X",
"+.O.@.( V n v v z a t r 6 5 > - X X y L A E Y B F I M V m m P Y I M M M C 4.i.6.$.J.^.D.D.L.< 8 [ >.e.r.r.7.&.-.W b O.D.W.S.~.U.",
"/ O.O.+.C v v n x x u t 8 6 5 > - X 5 u r J | T m ( Y Y m B +.o.O.o./ / 9.C.).oXC.I.oXoXI.e.< ~ e.z.V.C.b.t.7.=.V ^ O.E.).S.@XU ",
"+.+.#.O.C m x n v x z a z t 6 5 5 > - 1 > p %.W B 6.=.*.B Y =.=.1.=.&.o.i.i.oXoXC.I.oXI.r.[ &.y.n.N.K.J.Z.C.j.7.V / V.W.S.oXi.- ",
"o.+.+.@.+.V b z v v x z x u t y 7 5 1 1 - y ~ E x :.;.*.N U =.=.7.7.6.o.C.oXoX:Xt.I.oX9.R ] z.v.Z.P.Q.K.K.J.v.j.' +.~.E.^.I.H # ",
"+.+.O.@.O.W N z x n n x x u u f 6 8 g 5 1 > A 8 : X.*.-.N | *.=.6.7.6.o.C.C.+XoXC / C | ] n.B.M.K.}.~.K.K.K.C.j.@.l.E.E.~.t.+ * ",
"#.+.+.+.@.O.V n p n x v n n v p a t 7 6 , 6 : : 6 6 f f t K 0.-.*.6.6.Y F.i.C.o.].] { ].].B.M.H.W..XoXW.).).l.h.j.Y.(.W.U.; 2 @ ",
"@.O.+.@.@.O./ m x v n v v N b b J v v v x u u f 6 6 8 7 : z S S N N z 7 B z m P y.[. X XH.N.K.Q.oX.XoX).oX).S.l.D.W.W.#X| w * w ",
"#.O.+.O.#.&.o.Y S x n N N B P P I T T P J S S S x x l 7 < 7 7 < 0 7 l c R { b.L.[.-X XR.R.!.[.|.$X$X.X).).).S.D.Y..X.XC.; % & & ",
"#.@.+.+.O.#.O.o.J n v N U U Y Y Y Y Y I T F P S F S c c S c c F N J G ] z.N.[.[.[.[.R.R. X|.~.{..X%X.XW..X).).S.(.W.^.C > % 2 @ ",
"#.#.=.+.@.O.O.O.Y N n N U U Y Y Y / Y Y Y Y R I b F c F R R R [ 5.] ] z.x.x.N.N.M.H.!.|.~./.$X~..X$XXX~.W.).W.W.XXoXVXpXpX;X:X:X",
"#.#.#.+.+.+.O.@.o.C N B C U Y C Y Y Y ( / W R R G G F F G R G ] ] ] { z.z.g.N.N.A.m.R.}.!.|.$X~.$X*XXX.X.XW.W.XXXXXXVXCXCXCXCXCX",
"#.#.#.O.+.O.+.@.+./ V N B P Y I Y / / W W ( ( R ( [ I G R G G ^ ] { { { <.<.x.g.M.Z.T.|.|.~.~.(.%X%X%X.X.XW..XXXXXwXCXCXVXVXCXCX",
"#.#.#.O.@.+.@.+.@.o.C N P Y Y I Y W W ( W ( ( ( R R ^ R R ^ ^ ^ ] [ ] 5.{ { <.B.x.H.A.K.!.!.~..XXX$X%X%XXXXX.XXXXXVXVXCXVXCXVXFX"
};
